M48
; DRILL file {KiCad 9.0.2} date 2025-07-06T12:10:34+0200
; FORMAT={-:-/ absolute / metric / decimal}
; #@! TF.CreationDate,2025-07-06T12:10:34+02:00
; #@! TF.GenerationSoftware,Kicad,Pcbnew,9.0.2
; #@! TF.FileFunction,Plated,1,2,PTH
FMAT,2
METRIC
; #@! TA.AperFunction,Plated,PTH,ComponentDrill
T1C0.500
; #@! TA.AperFunction,Plated,PTH,ViaDrill
T2C0.635
; #@! TA.AperFunction,Plated,PTH,ComponentDrill
T3C0.813
; #@! TA.AperFunction,Plated,PTH,ComponentDrill
T4C0.890
; #@! TA.AperFunction,Plated,PTH,ComponentDrill
T5C0.900
; #@! TA.AperFunction,Plated,PTH,ComponentDrill
T6C1.600
; #@! TA.AperFunction,Plated,PTH,ComponentDrill
T7C3.200
%
G90
G05
T1
X198.6Y-80.0
X198.641Y-122.555
X199.303Y-78.303
X199.303Y-81.697
X199.344Y-120.858
X199.344Y-124.252
X201.0Y-77.6
X201.0Y-82.4
X201.041Y-120.155
X201.041Y-124.955
X202.697Y-78.303
X202.697Y-81.697
X202.738Y-120.858
X202.738Y-124.252
X203.4Y-80.0
X203.441Y-122.555
T2
X103.505Y-117.793
X103.505Y-119.062
X103.505Y-120.332
X106.68Y-116.84
X109.855Y-116.84
X109.855Y-118.11
X109.855Y-119.38
X111.76Y-115.57
X114.046Y-85.09
X121.131Y-110.455
X121.245Y-107.233
X122.449Y-107.612
X122.555Y-114.618
X123.88Y-91.242
X124.778Y-113.665
X125.73Y-112.712
X127.243Y-92.973
X127.319Y-100.076
X128.356Y-98.425
X129.759Y-101.574
X133.668Y-83.82
X133.985Y-93.662
X135.572Y-83.82
X135.572Y-94.932
X140.335Y-104.14
X140.335Y-110.49
X141.605Y-104.14
X142.558Y-85.407
X143.828Y-86.36
X143.828Y-88.582
X144.145Y-110.49
X145.732Y-93.98
X145.732Y-95.567
X146.001Y-91.073
X146.05Y-89.852
X147.002Y-92.075
X147.32Y-102.87
X147.955Y-92.71
X148.169Y-89.648
X148.908Y-102.87
X152.082Y-90.17
X153.988Y-102.87
X154.648Y-83.604
X155.575Y-120.015
X155.892Y-102.87
X156.845Y-120.015
X158.115Y-120.015
X159.385Y-120.015
X160.02Y-90.17
X162.242Y-119.38
X162.242Y-120.65
X162.878Y-102.87
X163.512Y-90.17
X164.148Y-92.392
X164.148Y-94.297
X167.005Y-104.14
X168.275Y-83.82
X168.275Y-104.14
X168.275Y-115.57
X168.275Y-116.84
X168.275Y-118.11
X170.18Y-86.36
X170.18Y-87.63
X171.133Y-108.268
X173.672Y-81.28
X173.672Y-91.44
X174.308Y-94.615
X178.752Y-106.68
X181.928Y-90.487
X192.405Y-82.55
T3
X105.41Y-90.17
X105.41Y-92.71
X105.41Y-95.25
X105.41Y-97.79
X105.41Y-102.87
X105.41Y-105.41
X105.41Y-110.49
X105.41Y-113.03
X113.03Y-90.17
X113.03Y-92.71
X113.03Y-95.25
X113.03Y-97.79
X113.03Y-102.87
X113.03Y-105.41
X113.03Y-110.49
X113.03Y-113.03
X177.8Y-83.919
X177.8Y-88.801
T4
X198.95Y-88.29
X198.95Y-98.4
X200.47Y-90.83
X200.47Y-100.94
T5
X186.69Y-90.17
X186.69Y-92.71
X186.69Y-95.25
X186.69Y-97.79
X189.23Y-91.44
X189.23Y-93.98
X189.23Y-96.52
X189.23Y-99.06
T6
X192.52Y-86.84
X192.52Y-102.39
T7
X201.0Y-80.0
X201.041Y-122.555
M30
