%TF.GenerationSoftware,KiCad,Pcbnew,9.0.2*%
%TF.CreationDate,2025-07-06T12:10:31+02:00*%
%TF.ProjectId,ISA8_Ethernet,49534138-5f45-4746-9865-726e65742e6b,1.1*%
%TF.SameCoordinates,Original*%
%TF.FileFunction,Soldermask,Top*%
%TF.FilePolarity,Negative*%
%FSLAX46Y46*%
G04 Gerber Fmt 4.6, Leading zero omitted, Abs format (unit mm)*
G04 Created by KiCad (PCBNEW 9.0.2) date 2025-07-06 12:10:31*
%MOMM*%
%LPD*%
G01*
G04 APERTURE LIST*
G04 Aperture macros list*
%AMRoundRect*
0 Rectangle with rounded corners*
0 $1 Rounding radius*
0 $2 $3 $4 $5 $6 $7 $8 $9 X,Y pos of 4 corners*
0 Add a 4 corners polygon primitive as box body*
4,1,4,$2,$3,$4,$5,$6,$7,$8,$9,$2,$3,0*
0 Add four circle primitives for the rounded corners*
1,1,$1+$1,$2,$3*
1,1,$1+$1,$4,$5*
1,1,$1+$1,$6,$7*
1,1,$1+$1,$8,$9*
0 Add four rect primitives between the rounded corners*
20,1,$1+$1,$2,$3,$4,$5,0*
20,1,$1+$1,$4,$5,$6,$7,0*
20,1,$1+$1,$6,$7,$8,$9,0*
20,1,$1+$1,$8,$9,$2,$3,0*%
G04 Aperture macros list end*
%ADD10C,0.800000*%
%ADD11C,6.400000*%
%ADD12C,1.397000*%
%ADD13RoundRect,0.150000X0.150000X-0.725000X0.150000X0.725000X-0.150000X0.725000X-0.150000X-0.725000X0*%
%ADD14RoundRect,0.237500X0.300000X0.237500X-0.300000X0.237500X-0.300000X-0.237500X0.300000X-0.237500X0*%
%ADD15RoundRect,0.237500X-0.300000X-0.237500X0.300000X-0.237500X0.300000X0.237500X-0.300000X0.237500X0*%
%ADD16RoundRect,0.237500X-0.250000X-0.237500X0.250000X-0.237500X0.250000X0.237500X-0.250000X0.237500X0*%
%ADD17RoundRect,0.237500X0.250000X0.237500X-0.250000X0.237500X-0.250000X-0.237500X0.250000X-0.237500X0*%
%ADD18R,0.800000X0.500000*%
%ADD19R,0.800000X0.400000*%
%ADD20R,1.397000X1.397000*%
%ADD21RoundRect,0.100000X0.100000X-1.150000X0.100000X1.150000X-0.100000X1.150000X-0.100000X-1.150000X0*%
%ADD22RoundRect,0.100000X1.150000X0.100000X-1.150000X0.100000X-1.150000X-0.100000X1.150000X-0.100000X0*%
%ADD23RoundRect,0.237500X0.237500X-0.300000X0.237500X0.300000X-0.237500X0.300000X-0.237500X-0.300000X0*%
%ADD24RoundRect,0.444500X-0.444500X-3.619500X0.444500X-3.619500X0.444500X3.619500X-0.444500X3.619500X0*%
%ADD25C,3.250000*%
%ADD26C,2.600000*%
%ADD27C,1.890000*%
%ADD28R,1.900000X1.900000*%
%ADD29C,1.900000*%
%ADD30RoundRect,0.250000X0.500000X0.925000X-0.500000X0.925000X-0.500000X-0.925000X0.500000X-0.925000X0*%
G04 APERTURE END LIST*
D10*
%TO.C,HOLE1*%
X198600000Y-80000000D03*
X199302944Y-78302944D03*
X199302944Y-81697056D03*
X201000000Y-77600000D03*
D11*
X201000000Y-80000000D03*
D10*
X201000000Y-82400000D03*
X202697056Y-78302944D03*
X202697056Y-81697056D03*
X203400000Y-80000000D03*
%TD*%
%TO.C,HOLE2*%
X198641000Y-122555000D03*
X199343944Y-120857944D03*
X199343944Y-124252056D03*
X201041000Y-120155000D03*
D11*
X201041000Y-122555000D03*
D10*
X201041000Y-124955000D03*
X202738056Y-120857944D03*
X202738056Y-124252056D03*
X203441000Y-122555000D03*
%TD*%
D12*
%TO.C,Y1*%
X177800000Y-88800940D03*
X177800000Y-83919060D03*
%TD*%
D13*
%TO.C,U3*%
X132715000Y-91475000D03*
X133985000Y-91475000D03*
X135255000Y-91475000D03*
X136525000Y-91475000D03*
X136525000Y-86325000D03*
X135255000Y-86325000D03*
X133985000Y-86325000D03*
X132715000Y-86325000D03*
%TD*%
D14*
%TO.C,C5*%
X168502500Y-82550000D03*
X166777500Y-82550000D03*
%TD*%
D15*
%TO.C,C8*%
X133757500Y-82550000D03*
X135482500Y-82550000D03*
%TD*%
D16*
%TO.C,R6*%
X136247500Y-102870000D03*
X138072500Y-102870000D03*
%TD*%
D17*
%TO.C,R7*%
X173632500Y-86360000D03*
X171807500Y-86360000D03*
%TD*%
D18*
%TO.C,RN2*%
X119010000Y-95180000D03*
D19*
X119010000Y-94380000D03*
X119010000Y-93580000D03*
D18*
X119010000Y-92780000D03*
X117210000Y-92780000D03*
D19*
X117210000Y-93580000D03*
X117210000Y-94380000D03*
D18*
X117210000Y-95180000D03*
%TD*%
D20*
%TO.C,SW2*%
X113030000Y-105410000D03*
D12*
X113030000Y-102870000D03*
X105410000Y-102870000D03*
X105410000Y-105410000D03*
%TD*%
D20*
%TO.C,SW3*%
X113030000Y-97790000D03*
D12*
X113030000Y-95250000D03*
X113030000Y-92710000D03*
X113030000Y-90170000D03*
X105410000Y-90170000D03*
X105410000Y-92710000D03*
X105410000Y-95250000D03*
X105410000Y-97790000D03*
%TD*%
D20*
%TO.C,SW1*%
X113030000Y-113030000D03*
D12*
X113030000Y-110490000D03*
X105410000Y-110490000D03*
X105410000Y-113030000D03*
%TD*%
D21*
%TO.C,U1*%
X145515000Y-105520000D03*
X146165000Y-105520000D03*
X146815000Y-105520000D03*
X147465000Y-105520000D03*
X148090000Y-105520000D03*
X148740000Y-105520000D03*
X149390000Y-105520000D03*
X150040000Y-105520000D03*
X150690000Y-105520000D03*
X151340000Y-105520000D03*
X151990000Y-105520000D03*
X152640000Y-105520000D03*
X153290000Y-105520000D03*
X153940000Y-105520000D03*
X154590000Y-105520000D03*
X155240000Y-105520000D03*
X155890000Y-105520000D03*
X156540000Y-105520000D03*
X157190000Y-105520000D03*
X157840000Y-105520000D03*
X158490000Y-105520000D03*
X159140000Y-105520000D03*
X159790000Y-105520000D03*
X160440000Y-105520000D03*
X161090000Y-105520000D03*
X161740000Y-105520000D03*
X162390000Y-105520000D03*
X163040000Y-105520000D03*
X163690000Y-105520000D03*
X164340000Y-105520000D03*
D22*
X166940000Y-102695000D03*
X166940000Y-102045000D03*
X166940000Y-101395000D03*
X166940000Y-100745000D03*
X166940000Y-100095000D03*
X166940000Y-99445000D03*
X166940000Y-98795000D03*
X166940000Y-98145000D03*
X166940000Y-97495000D03*
X166940000Y-96845000D03*
X166940000Y-96195000D03*
X166940000Y-95545000D03*
X166940000Y-94895000D03*
X166940000Y-94245000D03*
X166940000Y-93595000D03*
X166940000Y-92945000D03*
X166940000Y-92295000D03*
X166940000Y-91645000D03*
X166940000Y-90995000D03*
X166940000Y-90345000D03*
D21*
X164365000Y-87520000D03*
X163715000Y-87520000D03*
X163065000Y-87520000D03*
X162415000Y-87520000D03*
X161765000Y-87520000D03*
X161115000Y-87520000D03*
X160465000Y-87520000D03*
X159815000Y-87520000D03*
X159165000Y-87520000D03*
X158515000Y-87520000D03*
X157865000Y-87520000D03*
X157215000Y-87520000D03*
X156565000Y-87520000D03*
X155915000Y-87520000D03*
X155265000Y-87520000D03*
X154615000Y-87520000D03*
X153965000Y-87520000D03*
X153315000Y-87520000D03*
X152665000Y-87520000D03*
X152015000Y-87520000D03*
X151365000Y-87520000D03*
X150715000Y-87520000D03*
X150065000Y-87520000D03*
X149415000Y-87520000D03*
X148765000Y-87520000D03*
X148115000Y-87520000D03*
X147465000Y-87520000D03*
X146815000Y-87520000D03*
X146165000Y-87520000D03*
X145515000Y-87520000D03*
D22*
X142940000Y-90345000D03*
X142940000Y-90995000D03*
X142940000Y-91645000D03*
X142940000Y-92295000D03*
X142940000Y-92945000D03*
X142940000Y-93595000D03*
X142940000Y-94245000D03*
X142940000Y-94895000D03*
X142940000Y-95545000D03*
X142940000Y-96195000D03*
X142940000Y-96845000D03*
X142940000Y-97495000D03*
X142940000Y-98145000D03*
X142940000Y-98795000D03*
X142940000Y-99445000D03*
X142940000Y-100095000D03*
X142940000Y-100745000D03*
X142940000Y-101395000D03*
X142940000Y-102045000D03*
X142940000Y-102695000D03*
%TD*%
D17*
%TO.C,R1*%
X186650000Y-82550000D03*
X184825000Y-82550000D03*
%TD*%
D23*
%TO.C,C3*%
X181927500Y-93572500D03*
X181927500Y-91847500D03*
%TD*%
D17*
%TO.C,R3*%
X195857500Y-78994000D03*
X194032500Y-78994000D03*
%TD*%
D14*
%TO.C,C1*%
X173582500Y-90170000D03*
X171857500Y-90170000D03*
%TD*%
%TO.C,C2*%
X173582500Y-82550000D03*
X171857500Y-82550000D03*
%TD*%
D24*
%TO.C,BUS1*%
X180340000Y-130492500D03*
X177800000Y-130492500D03*
X175260000Y-130492500D03*
X172720000Y-130492500D03*
X170180000Y-130492500D03*
X167640000Y-130492500D03*
X165100000Y-130492500D03*
X162560000Y-130492500D03*
X160020000Y-130492500D03*
X157480000Y-130492500D03*
X154940000Y-130492500D03*
X152400000Y-130492500D03*
X149860000Y-130492500D03*
X147320000Y-130492500D03*
X144780000Y-130492500D03*
X142240000Y-130492500D03*
X139700000Y-130492500D03*
X137160000Y-130492500D03*
X134620000Y-130492500D03*
X132080000Y-130492500D03*
X129540000Y-130492500D03*
X127000000Y-130492500D03*
X124460000Y-130492500D03*
X121920000Y-130492500D03*
X119380000Y-130492500D03*
X116840000Y-130492500D03*
X114300000Y-130492500D03*
X111760000Y-130492500D03*
X109220000Y-130492500D03*
X106680000Y-130492500D03*
X104140000Y-130492500D03*
%TD*%
D14*
%TO.C,C6*%
X143102500Y-110490000D03*
X141377500Y-110490000D03*
%TD*%
D17*
%TO.C,R2*%
X195857500Y-82550000D03*
X194032500Y-82550000D03*
%TD*%
D15*
%TO.C,C4*%
X189002500Y-82550000D03*
X190727500Y-82550000D03*
%TD*%
D25*
%TO.C,J1*%
X195570000Y-100330000D03*
X195570000Y-88900000D03*
D26*
X192520000Y-102390000D03*
X192520000Y-86840000D03*
D27*
X198950000Y-88290000D03*
X200470000Y-90830000D03*
X198950000Y-98400000D03*
X200470000Y-100940000D03*
D28*
X189230000Y-99060000D03*
D29*
X186690000Y-97790000D03*
X189230000Y-96520000D03*
X186690000Y-95250000D03*
X189230000Y-93980000D03*
X186690000Y-92710000D03*
X189230000Y-91440000D03*
X186690000Y-90170000D03*
%TD*%
D18*
%TO.C,RN1*%
X119010000Y-109150000D03*
D19*
X119010000Y-108350000D03*
X119010000Y-107550000D03*
D18*
X119010000Y-106750000D03*
X117210000Y-106750000D03*
D19*
X117210000Y-107550000D03*
X117210000Y-108350000D03*
D18*
X117210000Y-109150000D03*
%TD*%
D30*
%TO.C,C9*%
X166725000Y-119062500D03*
X163475000Y-119062500D03*
%TD*%
%TO.C,C10*%
X108305000Y-119062500D03*
X105055000Y-119062500D03*
%TD*%
D16*
%TO.C,R4*%
X117197500Y-85090000D03*
X119022500Y-85090000D03*
%TD*%
M02*
