%TF.GenerationSoftware,KiCad,Pcbnew,9.0.2*%
%TF.CreationDate,2025-07-06T12:10:31+02:00*%
%TF.ProjectId,ISA8_Ethernet,49534138-5f45-4746-9865-726e65742e6b,1.1*%
%TF.SameCoordinates,Original*%
%TF.FileFunction,Legend,Bot*%
%TF.FilePolarity,Positive*%
%FSLAX46Y46*%
G04 Gerber Fmt 4.6, Leading zero omitted, Abs format (unit mm)*
G04 Created by KiCad (PCBNEW 9.0.2) date 2025-07-06 12:10:31*
%MOMM*%
%LPD*%
G01*
G04 APERTURE LIST*
%ADD10C,0.150000*%
G04 APERTURE END LIST*
D10*
X175260000Y-86360000D02*
X145732500Y-86360000D01*
X139700000Y-86360000D02*
X109220000Y-86360000D01*
X139223750Y-104140000D02*
X124936250Y-104140000D01*
X129092089Y-103062340D02*
X128949232Y-103109959D01*
X128949232Y-103109959D02*
X128711137Y-103109959D01*
X128711137Y-103109959D02*
X128615899Y-103062340D01*
X128615899Y-103062340D02*
X128568280Y-103014720D01*
X128568280Y-103014720D02*
X128520661Y-102919482D01*
X128520661Y-102919482D02*
X128520661Y-102824244D01*
X128520661Y-102824244D02*
X128568280Y-102729006D01*
X128568280Y-102729006D02*
X128615899Y-102681387D01*
X128615899Y-102681387D02*
X128711137Y-102633768D01*
X128711137Y-102633768D02*
X128901613Y-102586149D01*
X128901613Y-102586149D02*
X128996851Y-102538530D01*
X128996851Y-102538530D02*
X129044470Y-102490911D01*
X129044470Y-102490911D02*
X129092089Y-102395673D01*
X129092089Y-102395673D02*
X129092089Y-102300435D01*
X129092089Y-102300435D02*
X129044470Y-102205197D01*
X129044470Y-102205197D02*
X128996851Y-102157578D01*
X128996851Y-102157578D02*
X128901613Y-102109959D01*
X128901613Y-102109959D02*
X128663518Y-102109959D01*
X128663518Y-102109959D02*
X128520661Y-102157578D01*
X128187327Y-102109959D02*
X127949232Y-103109959D01*
X127949232Y-103109959D02*
X127758756Y-102395673D01*
X127758756Y-102395673D02*
X127568280Y-103109959D01*
X127568280Y-103109959D02*
X127330185Y-102109959D01*
X126996851Y-102205197D02*
X126949232Y-102157578D01*
X126949232Y-102157578D02*
X126853994Y-102109959D01*
X126853994Y-102109959D02*
X126615899Y-102109959D01*
X126615899Y-102109959D02*
X126520661Y-102157578D01*
X126520661Y-102157578D02*
X126473042Y-102205197D01*
X126473042Y-102205197D02*
X126425423Y-102300435D01*
X126425423Y-102300435D02*
X126425423Y-102395673D01*
X126425423Y-102395673D02*
X126473042Y-102538530D01*
X126473042Y-102538530D02*
X127044470Y-103109959D01*
X127044470Y-103109959D02*
X126425423Y-103109959D01*
X125996851Y-103014720D02*
X125949232Y-103062340D01*
X125949232Y-103062340D02*
X125996851Y-103109959D01*
X125996851Y-103109959D02*
X126044470Y-103062340D01*
X126044470Y-103062340D02*
X125996851Y-103014720D01*
X125996851Y-103014720D02*
X125996851Y-103109959D01*
X125568280Y-102205197D02*
X125520661Y-102157578D01*
X125520661Y-102157578D02*
X125425423Y-102109959D01*
X125425423Y-102109959D02*
X125187328Y-102109959D01*
X125187328Y-102109959D02*
X125092090Y-102157578D01*
X125092090Y-102157578D02*
X125044471Y-102205197D01*
X125044471Y-102205197D02*
X124996852Y-102300435D01*
X124996852Y-102300435D02*
X124996852Y-102395673D01*
X124996852Y-102395673D02*
X125044471Y-102538530D01*
X125044471Y-102538530D02*
X125615899Y-103109959D01*
X125615899Y-103109959D02*
X124996852Y-103109959D01*
X128853994Y-105329847D02*
X128663518Y-105329847D01*
X128663518Y-105329847D02*
X128568280Y-105377466D01*
X128568280Y-105377466D02*
X128473042Y-105472704D01*
X128473042Y-105472704D02*
X128425423Y-105663180D01*
X128425423Y-105663180D02*
X128425423Y-105996513D01*
X128425423Y-105996513D02*
X128473042Y-106186989D01*
X128473042Y-106186989D02*
X128568280Y-106282228D01*
X128568280Y-106282228D02*
X128663518Y-106329847D01*
X128663518Y-106329847D02*
X128853994Y-106329847D01*
X128853994Y-106329847D02*
X128949232Y-106282228D01*
X128949232Y-106282228D02*
X129044470Y-106186989D01*
X129044470Y-106186989D02*
X129092089Y-105996513D01*
X129092089Y-105996513D02*
X129092089Y-105663180D01*
X129092089Y-105663180D02*
X129044470Y-105472704D01*
X129044470Y-105472704D02*
X128949232Y-105377466D01*
X128949232Y-105377466D02*
X128853994Y-105329847D01*
X127663518Y-105806037D02*
X127996851Y-105806037D01*
X127996851Y-106329847D02*
X127996851Y-105329847D01*
X127996851Y-105329847D02*
X127520661Y-105329847D01*
X126806375Y-105806037D02*
X127139708Y-105806037D01*
X127139708Y-106329847D02*
X127139708Y-105329847D01*
X127139708Y-105329847D02*
X126663518Y-105329847D01*
X128853994Y-106939791D02*
X128663518Y-106939791D01*
X128663518Y-106939791D02*
X128568280Y-106987410D01*
X128568280Y-106987410D02*
X128473042Y-107082648D01*
X128473042Y-107082648D02*
X128425423Y-107273124D01*
X128425423Y-107273124D02*
X128425423Y-107606457D01*
X128425423Y-107606457D02*
X128473042Y-107796933D01*
X128473042Y-107796933D02*
X128568280Y-107892172D01*
X128568280Y-107892172D02*
X128663518Y-107939791D01*
X128663518Y-107939791D02*
X128853994Y-107939791D01*
X128853994Y-107939791D02*
X128949232Y-107892172D01*
X128949232Y-107892172D02*
X129044470Y-107796933D01*
X129044470Y-107796933D02*
X129092089Y-107606457D01*
X129092089Y-107606457D02*
X129092089Y-107273124D01*
X129092089Y-107273124D02*
X129044470Y-107082648D01*
X129044470Y-107082648D02*
X128949232Y-106987410D01*
X128949232Y-106987410D02*
X128853994Y-106939791D01*
X127663518Y-107415981D02*
X127996851Y-107415981D01*
X127996851Y-107939791D02*
X127996851Y-106939791D01*
X127996851Y-106939791D02*
X127520661Y-106939791D01*
X126806375Y-107415981D02*
X127139708Y-107415981D01*
X127139708Y-107939791D02*
X127139708Y-106939791D01*
X127139708Y-106939791D02*
X126663518Y-106939791D01*
X128853994Y-108549735D02*
X128663518Y-108549735D01*
X128663518Y-108549735D02*
X128568280Y-108597354D01*
X128568280Y-108597354D02*
X128473042Y-108692592D01*
X128473042Y-108692592D02*
X128425423Y-108883068D01*
X128425423Y-108883068D02*
X128425423Y-109216401D01*
X128425423Y-109216401D02*
X128473042Y-109406877D01*
X128473042Y-109406877D02*
X128568280Y-109502116D01*
X128568280Y-109502116D02*
X128663518Y-109549735D01*
X128663518Y-109549735D02*
X128853994Y-109549735D01*
X128853994Y-109549735D02*
X128949232Y-109502116D01*
X128949232Y-109502116D02*
X129044470Y-109406877D01*
X129044470Y-109406877D02*
X129092089Y-109216401D01*
X129092089Y-109216401D02*
X129092089Y-108883068D01*
X129092089Y-108883068D02*
X129044470Y-108692592D01*
X129044470Y-108692592D02*
X128949232Y-108597354D01*
X128949232Y-108597354D02*
X128853994Y-108549735D01*
X127996851Y-109549735D02*
X127996851Y-108549735D01*
X127996851Y-108549735D02*
X127425423Y-109549735D01*
X127425423Y-109549735D02*
X127425423Y-108549735D01*
X128853994Y-110159679D02*
X128663518Y-110159679D01*
X128663518Y-110159679D02*
X128568280Y-110207298D01*
X128568280Y-110207298D02*
X128473042Y-110302536D01*
X128473042Y-110302536D02*
X128425423Y-110493012D01*
X128425423Y-110493012D02*
X128425423Y-110826345D01*
X128425423Y-110826345D02*
X128473042Y-111016821D01*
X128473042Y-111016821D02*
X128568280Y-111112060D01*
X128568280Y-111112060D02*
X128663518Y-111159679D01*
X128663518Y-111159679D02*
X128853994Y-111159679D01*
X128853994Y-111159679D02*
X128949232Y-111112060D01*
X128949232Y-111112060D02*
X129044470Y-111016821D01*
X129044470Y-111016821D02*
X129092089Y-110826345D01*
X129092089Y-110826345D02*
X129092089Y-110493012D01*
X129092089Y-110493012D02*
X129044470Y-110302536D01*
X129044470Y-110302536D02*
X128949232Y-110207298D01*
X128949232Y-110207298D02*
X128853994Y-110159679D01*
X127996851Y-111159679D02*
X127996851Y-110159679D01*
X127996851Y-110159679D02*
X127425423Y-111159679D01*
X127425423Y-111159679D02*
X127425423Y-110159679D01*
X134172089Y-103062340D02*
X134029232Y-103109959D01*
X134029232Y-103109959D02*
X133791137Y-103109959D01*
X133791137Y-103109959D02*
X133695899Y-103062340D01*
X133695899Y-103062340D02*
X133648280Y-103014720D01*
X133648280Y-103014720D02*
X133600661Y-102919482D01*
X133600661Y-102919482D02*
X133600661Y-102824244D01*
X133600661Y-102824244D02*
X133648280Y-102729006D01*
X133648280Y-102729006D02*
X133695899Y-102681387D01*
X133695899Y-102681387D02*
X133791137Y-102633768D01*
X133791137Y-102633768D02*
X133981613Y-102586149D01*
X133981613Y-102586149D02*
X134076851Y-102538530D01*
X134076851Y-102538530D02*
X134124470Y-102490911D01*
X134124470Y-102490911D02*
X134172089Y-102395673D01*
X134172089Y-102395673D02*
X134172089Y-102300435D01*
X134172089Y-102300435D02*
X134124470Y-102205197D01*
X134124470Y-102205197D02*
X134076851Y-102157578D01*
X134076851Y-102157578D02*
X133981613Y-102109959D01*
X133981613Y-102109959D02*
X133743518Y-102109959D01*
X133743518Y-102109959D02*
X133600661Y-102157578D01*
X133267327Y-102109959D02*
X133029232Y-103109959D01*
X133029232Y-103109959D02*
X132838756Y-102395673D01*
X132838756Y-102395673D02*
X132648280Y-103109959D01*
X132648280Y-103109959D02*
X132410185Y-102109959D01*
X132076851Y-102205197D02*
X132029232Y-102157578D01*
X132029232Y-102157578D02*
X131933994Y-102109959D01*
X131933994Y-102109959D02*
X131695899Y-102109959D01*
X131695899Y-102109959D02*
X131600661Y-102157578D01*
X131600661Y-102157578D02*
X131553042Y-102205197D01*
X131553042Y-102205197D02*
X131505423Y-102300435D01*
X131505423Y-102300435D02*
X131505423Y-102395673D01*
X131505423Y-102395673D02*
X131553042Y-102538530D01*
X131553042Y-102538530D02*
X132124470Y-103109959D01*
X132124470Y-103109959D02*
X131505423Y-103109959D01*
X131076851Y-103014720D02*
X131029232Y-103062340D01*
X131029232Y-103062340D02*
X131076851Y-103109959D01*
X131076851Y-103109959D02*
X131124470Y-103062340D01*
X131124470Y-103062340D02*
X131076851Y-103014720D01*
X131076851Y-103014720D02*
X131076851Y-103109959D01*
X130076852Y-103109959D02*
X130648280Y-103109959D01*
X130362566Y-103109959D02*
X130362566Y-102109959D01*
X130362566Y-102109959D02*
X130457804Y-102252816D01*
X130457804Y-102252816D02*
X130553042Y-102348054D01*
X130553042Y-102348054D02*
X130648280Y-102395673D01*
X133933994Y-105329847D02*
X133743518Y-105329847D01*
X133743518Y-105329847D02*
X133648280Y-105377466D01*
X133648280Y-105377466D02*
X133553042Y-105472704D01*
X133553042Y-105472704D02*
X133505423Y-105663180D01*
X133505423Y-105663180D02*
X133505423Y-105996513D01*
X133505423Y-105996513D02*
X133553042Y-106186989D01*
X133553042Y-106186989D02*
X133648280Y-106282228D01*
X133648280Y-106282228D02*
X133743518Y-106329847D01*
X133743518Y-106329847D02*
X133933994Y-106329847D01*
X133933994Y-106329847D02*
X134029232Y-106282228D01*
X134029232Y-106282228D02*
X134124470Y-106186989D01*
X134124470Y-106186989D02*
X134172089Y-105996513D01*
X134172089Y-105996513D02*
X134172089Y-105663180D01*
X134172089Y-105663180D02*
X134124470Y-105472704D01*
X134124470Y-105472704D02*
X134029232Y-105377466D01*
X134029232Y-105377466D02*
X133933994Y-105329847D01*
X132743518Y-105806037D02*
X133076851Y-105806037D01*
X133076851Y-106329847D02*
X133076851Y-105329847D01*
X133076851Y-105329847D02*
X132600661Y-105329847D01*
X131886375Y-105806037D02*
X132219708Y-105806037D01*
X132219708Y-106329847D02*
X132219708Y-105329847D01*
X132219708Y-105329847D02*
X131743518Y-105329847D01*
X133933994Y-106939791D02*
X133743518Y-106939791D01*
X133743518Y-106939791D02*
X133648280Y-106987410D01*
X133648280Y-106987410D02*
X133553042Y-107082648D01*
X133553042Y-107082648D02*
X133505423Y-107273124D01*
X133505423Y-107273124D02*
X133505423Y-107606457D01*
X133505423Y-107606457D02*
X133553042Y-107796933D01*
X133553042Y-107796933D02*
X133648280Y-107892172D01*
X133648280Y-107892172D02*
X133743518Y-107939791D01*
X133743518Y-107939791D02*
X133933994Y-107939791D01*
X133933994Y-107939791D02*
X134029232Y-107892172D01*
X134029232Y-107892172D02*
X134124470Y-107796933D01*
X134124470Y-107796933D02*
X134172089Y-107606457D01*
X134172089Y-107606457D02*
X134172089Y-107273124D01*
X134172089Y-107273124D02*
X134124470Y-107082648D01*
X134124470Y-107082648D02*
X134029232Y-106987410D01*
X134029232Y-106987410D02*
X133933994Y-106939791D01*
X133076851Y-107939791D02*
X133076851Y-106939791D01*
X133076851Y-106939791D02*
X132505423Y-107939791D01*
X132505423Y-107939791D02*
X132505423Y-106939791D01*
X133933994Y-108549735D02*
X133743518Y-108549735D01*
X133743518Y-108549735D02*
X133648280Y-108597354D01*
X133648280Y-108597354D02*
X133553042Y-108692592D01*
X133553042Y-108692592D02*
X133505423Y-108883068D01*
X133505423Y-108883068D02*
X133505423Y-109216401D01*
X133505423Y-109216401D02*
X133553042Y-109406877D01*
X133553042Y-109406877D02*
X133648280Y-109502116D01*
X133648280Y-109502116D02*
X133743518Y-109549735D01*
X133743518Y-109549735D02*
X133933994Y-109549735D01*
X133933994Y-109549735D02*
X134029232Y-109502116D01*
X134029232Y-109502116D02*
X134124470Y-109406877D01*
X134124470Y-109406877D02*
X134172089Y-109216401D01*
X134172089Y-109216401D02*
X134172089Y-108883068D01*
X134172089Y-108883068D02*
X134124470Y-108692592D01*
X134124470Y-108692592D02*
X134029232Y-108597354D01*
X134029232Y-108597354D02*
X133933994Y-108549735D01*
X132743518Y-109025925D02*
X133076851Y-109025925D01*
X133076851Y-109549735D02*
X133076851Y-108549735D01*
X133076851Y-108549735D02*
X132600661Y-108549735D01*
X131886375Y-109025925D02*
X132219708Y-109025925D01*
X132219708Y-109549735D02*
X132219708Y-108549735D01*
X132219708Y-108549735D02*
X131743518Y-108549735D01*
X133933994Y-110159679D02*
X133743518Y-110159679D01*
X133743518Y-110159679D02*
X133648280Y-110207298D01*
X133648280Y-110207298D02*
X133553042Y-110302536D01*
X133553042Y-110302536D02*
X133505423Y-110493012D01*
X133505423Y-110493012D02*
X133505423Y-110826345D01*
X133505423Y-110826345D02*
X133553042Y-111016821D01*
X133553042Y-111016821D02*
X133648280Y-111112060D01*
X133648280Y-111112060D02*
X133743518Y-111159679D01*
X133743518Y-111159679D02*
X133933994Y-111159679D01*
X133933994Y-111159679D02*
X134029232Y-111112060D01*
X134029232Y-111112060D02*
X134124470Y-111016821D01*
X134124470Y-111016821D02*
X134172089Y-110826345D01*
X134172089Y-110826345D02*
X134172089Y-110493012D01*
X134172089Y-110493012D02*
X134124470Y-110302536D01*
X134124470Y-110302536D02*
X134029232Y-110207298D01*
X134029232Y-110207298D02*
X133933994Y-110159679D01*
X133076851Y-111159679D02*
X133076851Y-110159679D01*
X133076851Y-110159679D02*
X132505423Y-111159679D01*
X132505423Y-111159679D02*
X132505423Y-110159679D01*
X149888339Y-85237452D02*
X149745482Y-85285071D01*
X149745482Y-85285071D02*
X149507387Y-85285071D01*
X149507387Y-85285071D02*
X149412149Y-85237452D01*
X149412149Y-85237452D02*
X149364530Y-85189832D01*
X149364530Y-85189832D02*
X149316911Y-85094594D01*
X149316911Y-85094594D02*
X149316911Y-84999356D01*
X149316911Y-84999356D02*
X149364530Y-84904118D01*
X149364530Y-84904118D02*
X149412149Y-84856499D01*
X149412149Y-84856499D02*
X149507387Y-84808880D01*
X149507387Y-84808880D02*
X149697863Y-84761261D01*
X149697863Y-84761261D02*
X149793101Y-84713642D01*
X149793101Y-84713642D02*
X149840720Y-84666023D01*
X149840720Y-84666023D02*
X149888339Y-84570785D01*
X149888339Y-84570785D02*
X149888339Y-84475547D01*
X149888339Y-84475547D02*
X149840720Y-84380309D01*
X149840720Y-84380309D02*
X149793101Y-84332690D01*
X149793101Y-84332690D02*
X149697863Y-84285071D01*
X149697863Y-84285071D02*
X149459768Y-84285071D01*
X149459768Y-84285071D02*
X149316911Y-84332690D01*
X148983577Y-84285071D02*
X148745482Y-85285071D01*
X148745482Y-85285071D02*
X148555006Y-84570785D01*
X148555006Y-84570785D02*
X148364530Y-85285071D01*
X148364530Y-85285071D02*
X148126435Y-84285071D01*
X147840720Y-84285071D02*
X147221673Y-84285071D01*
X147221673Y-84285071D02*
X147555006Y-84666023D01*
X147555006Y-84666023D02*
X147412149Y-84666023D01*
X147412149Y-84666023D02*
X147316911Y-84713642D01*
X147316911Y-84713642D02*
X147269292Y-84761261D01*
X147269292Y-84761261D02*
X147221673Y-84856499D01*
X147221673Y-84856499D02*
X147221673Y-85094594D01*
X147221673Y-85094594D02*
X147269292Y-85189832D01*
X147269292Y-85189832D02*
X147316911Y-85237452D01*
X147316911Y-85237452D02*
X147412149Y-85285071D01*
X147412149Y-85285071D02*
X147697863Y-85285071D01*
X147697863Y-85285071D02*
X147793101Y-85237452D01*
X147793101Y-85237452D02*
X147840720Y-85189832D01*
X146793101Y-85189832D02*
X146745482Y-85237452D01*
X146745482Y-85237452D02*
X146793101Y-85285071D01*
X146793101Y-85285071D02*
X146840720Y-85237452D01*
X146840720Y-85237452D02*
X146793101Y-85189832D01*
X146793101Y-85189832D02*
X146793101Y-85285071D01*
X145888340Y-84618404D02*
X145888340Y-85285071D01*
X146126435Y-84237452D02*
X146364530Y-84951737D01*
X146364530Y-84951737D02*
X145745483Y-84951737D01*
X149650244Y-87504959D02*
X149459768Y-87504959D01*
X149459768Y-87504959D02*
X149364530Y-87552578D01*
X149364530Y-87552578D02*
X149269292Y-87647816D01*
X149269292Y-87647816D02*
X149221673Y-87838292D01*
X149221673Y-87838292D02*
X149221673Y-88171625D01*
X149221673Y-88171625D02*
X149269292Y-88362101D01*
X149269292Y-88362101D02*
X149364530Y-88457340D01*
X149364530Y-88457340D02*
X149459768Y-88504959D01*
X149459768Y-88504959D02*
X149650244Y-88504959D01*
X149650244Y-88504959D02*
X149745482Y-88457340D01*
X149745482Y-88457340D02*
X149840720Y-88362101D01*
X149840720Y-88362101D02*
X149888339Y-88171625D01*
X149888339Y-88171625D02*
X149888339Y-87838292D01*
X149888339Y-87838292D02*
X149840720Y-87647816D01*
X149840720Y-87647816D02*
X149745482Y-87552578D01*
X149745482Y-87552578D02*
X149650244Y-87504959D01*
X148459768Y-87981149D02*
X148793101Y-87981149D01*
X148793101Y-88504959D02*
X148793101Y-87504959D01*
X148793101Y-87504959D02*
X148316911Y-87504959D01*
X147602625Y-87981149D02*
X147935958Y-87981149D01*
X147935958Y-88504959D02*
X147935958Y-87504959D01*
X147935958Y-87504959D02*
X147459768Y-87504959D01*
X149650244Y-89114903D02*
X149459768Y-89114903D01*
X149459768Y-89114903D02*
X149364530Y-89162522D01*
X149364530Y-89162522D02*
X149269292Y-89257760D01*
X149269292Y-89257760D02*
X149221673Y-89448236D01*
X149221673Y-89448236D02*
X149221673Y-89781569D01*
X149221673Y-89781569D02*
X149269292Y-89972045D01*
X149269292Y-89972045D02*
X149364530Y-90067284D01*
X149364530Y-90067284D02*
X149459768Y-90114903D01*
X149459768Y-90114903D02*
X149650244Y-90114903D01*
X149650244Y-90114903D02*
X149745482Y-90067284D01*
X149745482Y-90067284D02*
X149840720Y-89972045D01*
X149840720Y-89972045D02*
X149888339Y-89781569D01*
X149888339Y-89781569D02*
X149888339Y-89448236D01*
X149888339Y-89448236D02*
X149840720Y-89257760D01*
X149840720Y-89257760D02*
X149745482Y-89162522D01*
X149745482Y-89162522D02*
X149650244Y-89114903D01*
X148459768Y-89591093D02*
X148793101Y-89591093D01*
X148793101Y-90114903D02*
X148793101Y-89114903D01*
X148793101Y-89114903D02*
X148316911Y-89114903D01*
X147602625Y-89591093D02*
X147935958Y-89591093D01*
X147935958Y-90114903D02*
X147935958Y-89114903D01*
X147935958Y-89114903D02*
X147459768Y-89114903D01*
X149650244Y-90724847D02*
X149459768Y-90724847D01*
X149459768Y-90724847D02*
X149364530Y-90772466D01*
X149364530Y-90772466D02*
X149269292Y-90867704D01*
X149269292Y-90867704D02*
X149221673Y-91058180D01*
X149221673Y-91058180D02*
X149221673Y-91391513D01*
X149221673Y-91391513D02*
X149269292Y-91581989D01*
X149269292Y-91581989D02*
X149364530Y-91677228D01*
X149364530Y-91677228D02*
X149459768Y-91724847D01*
X149459768Y-91724847D02*
X149650244Y-91724847D01*
X149650244Y-91724847D02*
X149745482Y-91677228D01*
X149745482Y-91677228D02*
X149840720Y-91581989D01*
X149840720Y-91581989D02*
X149888339Y-91391513D01*
X149888339Y-91391513D02*
X149888339Y-91058180D01*
X149888339Y-91058180D02*
X149840720Y-90867704D01*
X149840720Y-90867704D02*
X149745482Y-90772466D01*
X149745482Y-90772466D02*
X149650244Y-90724847D01*
X148459768Y-91201037D02*
X148793101Y-91201037D01*
X148793101Y-91724847D02*
X148793101Y-90724847D01*
X148793101Y-90724847D02*
X148316911Y-90724847D01*
X147602625Y-91201037D02*
X147935958Y-91201037D01*
X147935958Y-91724847D02*
X147935958Y-90724847D01*
X147935958Y-90724847D02*
X147459768Y-90724847D01*
X149650244Y-92334791D02*
X149459768Y-92334791D01*
X149459768Y-92334791D02*
X149364530Y-92382410D01*
X149364530Y-92382410D02*
X149269292Y-92477648D01*
X149269292Y-92477648D02*
X149221673Y-92668124D01*
X149221673Y-92668124D02*
X149221673Y-93001457D01*
X149221673Y-93001457D02*
X149269292Y-93191933D01*
X149269292Y-93191933D02*
X149364530Y-93287172D01*
X149364530Y-93287172D02*
X149459768Y-93334791D01*
X149459768Y-93334791D02*
X149650244Y-93334791D01*
X149650244Y-93334791D02*
X149745482Y-93287172D01*
X149745482Y-93287172D02*
X149840720Y-93191933D01*
X149840720Y-93191933D02*
X149888339Y-93001457D01*
X149888339Y-93001457D02*
X149888339Y-92668124D01*
X149888339Y-92668124D02*
X149840720Y-92477648D01*
X149840720Y-92477648D02*
X149745482Y-92382410D01*
X149745482Y-92382410D02*
X149650244Y-92334791D01*
X148459768Y-92810981D02*
X148793101Y-92810981D01*
X148793101Y-93334791D02*
X148793101Y-92334791D01*
X148793101Y-92334791D02*
X148316911Y-92334791D01*
X147602625Y-92810981D02*
X147935958Y-92810981D01*
X147935958Y-93334791D02*
X147935958Y-92334791D01*
X147935958Y-92334791D02*
X147459768Y-92334791D01*
X149650244Y-93944735D02*
X149459768Y-93944735D01*
X149459768Y-93944735D02*
X149364530Y-93992354D01*
X149364530Y-93992354D02*
X149269292Y-94087592D01*
X149269292Y-94087592D02*
X149221673Y-94278068D01*
X149221673Y-94278068D02*
X149221673Y-94611401D01*
X149221673Y-94611401D02*
X149269292Y-94801877D01*
X149269292Y-94801877D02*
X149364530Y-94897116D01*
X149364530Y-94897116D02*
X149459768Y-94944735D01*
X149459768Y-94944735D02*
X149650244Y-94944735D01*
X149650244Y-94944735D02*
X149745482Y-94897116D01*
X149745482Y-94897116D02*
X149840720Y-94801877D01*
X149840720Y-94801877D02*
X149888339Y-94611401D01*
X149888339Y-94611401D02*
X149888339Y-94278068D01*
X149888339Y-94278068D02*
X149840720Y-94087592D01*
X149840720Y-94087592D02*
X149745482Y-93992354D01*
X149745482Y-93992354D02*
X149650244Y-93944735D01*
X148793101Y-94944735D02*
X148793101Y-93944735D01*
X148793101Y-93944735D02*
X148221673Y-94944735D01*
X148221673Y-94944735D02*
X148221673Y-93944735D01*
X149650244Y-95554679D02*
X149459768Y-95554679D01*
X149459768Y-95554679D02*
X149364530Y-95602298D01*
X149364530Y-95602298D02*
X149269292Y-95697536D01*
X149269292Y-95697536D02*
X149221673Y-95888012D01*
X149221673Y-95888012D02*
X149221673Y-96221345D01*
X149221673Y-96221345D02*
X149269292Y-96411821D01*
X149269292Y-96411821D02*
X149364530Y-96507060D01*
X149364530Y-96507060D02*
X149459768Y-96554679D01*
X149459768Y-96554679D02*
X149650244Y-96554679D01*
X149650244Y-96554679D02*
X149745482Y-96507060D01*
X149745482Y-96507060D02*
X149840720Y-96411821D01*
X149840720Y-96411821D02*
X149888339Y-96221345D01*
X149888339Y-96221345D02*
X149888339Y-95888012D01*
X149888339Y-95888012D02*
X149840720Y-95697536D01*
X149840720Y-95697536D02*
X149745482Y-95602298D01*
X149745482Y-95602298D02*
X149650244Y-95554679D01*
X148793101Y-96554679D02*
X148793101Y-95554679D01*
X148793101Y-95554679D02*
X148221673Y-96554679D01*
X148221673Y-96554679D02*
X148221673Y-95554679D01*
X149650244Y-97164623D02*
X149459768Y-97164623D01*
X149459768Y-97164623D02*
X149364530Y-97212242D01*
X149364530Y-97212242D02*
X149269292Y-97307480D01*
X149269292Y-97307480D02*
X149221673Y-97497956D01*
X149221673Y-97497956D02*
X149221673Y-97831289D01*
X149221673Y-97831289D02*
X149269292Y-98021765D01*
X149269292Y-98021765D02*
X149364530Y-98117004D01*
X149364530Y-98117004D02*
X149459768Y-98164623D01*
X149459768Y-98164623D02*
X149650244Y-98164623D01*
X149650244Y-98164623D02*
X149745482Y-98117004D01*
X149745482Y-98117004D02*
X149840720Y-98021765D01*
X149840720Y-98021765D02*
X149888339Y-97831289D01*
X149888339Y-97831289D02*
X149888339Y-97497956D01*
X149888339Y-97497956D02*
X149840720Y-97307480D01*
X149840720Y-97307480D02*
X149745482Y-97212242D01*
X149745482Y-97212242D02*
X149650244Y-97164623D01*
X148793101Y-98164623D02*
X148793101Y-97164623D01*
X148793101Y-97164623D02*
X148221673Y-98164623D01*
X148221673Y-98164623D02*
X148221673Y-97164623D01*
X149650244Y-98774567D02*
X149459768Y-98774567D01*
X149459768Y-98774567D02*
X149364530Y-98822186D01*
X149364530Y-98822186D02*
X149269292Y-98917424D01*
X149269292Y-98917424D02*
X149221673Y-99107900D01*
X149221673Y-99107900D02*
X149221673Y-99441233D01*
X149221673Y-99441233D02*
X149269292Y-99631709D01*
X149269292Y-99631709D02*
X149364530Y-99726948D01*
X149364530Y-99726948D02*
X149459768Y-99774567D01*
X149459768Y-99774567D02*
X149650244Y-99774567D01*
X149650244Y-99774567D02*
X149745482Y-99726948D01*
X149745482Y-99726948D02*
X149840720Y-99631709D01*
X149840720Y-99631709D02*
X149888339Y-99441233D01*
X149888339Y-99441233D02*
X149888339Y-99107900D01*
X149888339Y-99107900D02*
X149840720Y-98917424D01*
X149840720Y-98917424D02*
X149745482Y-98822186D01*
X149745482Y-98822186D02*
X149650244Y-98774567D01*
X148793101Y-99774567D02*
X148793101Y-98774567D01*
X148793101Y-98774567D02*
X148221673Y-99774567D01*
X148221673Y-99774567D02*
X148221673Y-98774567D01*
X154968339Y-85237452D02*
X154825482Y-85285071D01*
X154825482Y-85285071D02*
X154587387Y-85285071D01*
X154587387Y-85285071D02*
X154492149Y-85237452D01*
X154492149Y-85237452D02*
X154444530Y-85189832D01*
X154444530Y-85189832D02*
X154396911Y-85094594D01*
X154396911Y-85094594D02*
X154396911Y-84999356D01*
X154396911Y-84999356D02*
X154444530Y-84904118D01*
X154444530Y-84904118D02*
X154492149Y-84856499D01*
X154492149Y-84856499D02*
X154587387Y-84808880D01*
X154587387Y-84808880D02*
X154777863Y-84761261D01*
X154777863Y-84761261D02*
X154873101Y-84713642D01*
X154873101Y-84713642D02*
X154920720Y-84666023D01*
X154920720Y-84666023D02*
X154968339Y-84570785D01*
X154968339Y-84570785D02*
X154968339Y-84475547D01*
X154968339Y-84475547D02*
X154920720Y-84380309D01*
X154920720Y-84380309D02*
X154873101Y-84332690D01*
X154873101Y-84332690D02*
X154777863Y-84285071D01*
X154777863Y-84285071D02*
X154539768Y-84285071D01*
X154539768Y-84285071D02*
X154396911Y-84332690D01*
X154063577Y-84285071D02*
X153825482Y-85285071D01*
X153825482Y-85285071D02*
X153635006Y-84570785D01*
X153635006Y-84570785D02*
X153444530Y-85285071D01*
X153444530Y-85285071D02*
X153206435Y-84285071D01*
X152920720Y-84285071D02*
X152301673Y-84285071D01*
X152301673Y-84285071D02*
X152635006Y-84666023D01*
X152635006Y-84666023D02*
X152492149Y-84666023D01*
X152492149Y-84666023D02*
X152396911Y-84713642D01*
X152396911Y-84713642D02*
X152349292Y-84761261D01*
X152349292Y-84761261D02*
X152301673Y-84856499D01*
X152301673Y-84856499D02*
X152301673Y-85094594D01*
X152301673Y-85094594D02*
X152349292Y-85189832D01*
X152349292Y-85189832D02*
X152396911Y-85237452D01*
X152396911Y-85237452D02*
X152492149Y-85285071D01*
X152492149Y-85285071D02*
X152777863Y-85285071D01*
X152777863Y-85285071D02*
X152873101Y-85237452D01*
X152873101Y-85237452D02*
X152920720Y-85189832D01*
X151873101Y-85189832D02*
X151825482Y-85237452D01*
X151825482Y-85237452D02*
X151873101Y-85285071D01*
X151873101Y-85285071D02*
X151920720Y-85237452D01*
X151920720Y-85237452D02*
X151873101Y-85189832D01*
X151873101Y-85189832D02*
X151873101Y-85285071D01*
X151492149Y-84285071D02*
X150873102Y-84285071D01*
X150873102Y-84285071D02*
X151206435Y-84666023D01*
X151206435Y-84666023D02*
X151063578Y-84666023D01*
X151063578Y-84666023D02*
X150968340Y-84713642D01*
X150968340Y-84713642D02*
X150920721Y-84761261D01*
X150920721Y-84761261D02*
X150873102Y-84856499D01*
X150873102Y-84856499D02*
X150873102Y-85094594D01*
X150873102Y-85094594D02*
X150920721Y-85189832D01*
X150920721Y-85189832D02*
X150968340Y-85237452D01*
X150968340Y-85237452D02*
X151063578Y-85285071D01*
X151063578Y-85285071D02*
X151349292Y-85285071D01*
X151349292Y-85285071D02*
X151444530Y-85237452D01*
X151444530Y-85237452D02*
X151492149Y-85189832D01*
X154730244Y-87504959D02*
X154539768Y-87504959D01*
X154539768Y-87504959D02*
X154444530Y-87552578D01*
X154444530Y-87552578D02*
X154349292Y-87647816D01*
X154349292Y-87647816D02*
X154301673Y-87838292D01*
X154301673Y-87838292D02*
X154301673Y-88171625D01*
X154301673Y-88171625D02*
X154349292Y-88362101D01*
X154349292Y-88362101D02*
X154444530Y-88457340D01*
X154444530Y-88457340D02*
X154539768Y-88504959D01*
X154539768Y-88504959D02*
X154730244Y-88504959D01*
X154730244Y-88504959D02*
X154825482Y-88457340D01*
X154825482Y-88457340D02*
X154920720Y-88362101D01*
X154920720Y-88362101D02*
X154968339Y-88171625D01*
X154968339Y-88171625D02*
X154968339Y-87838292D01*
X154968339Y-87838292D02*
X154920720Y-87647816D01*
X154920720Y-87647816D02*
X154825482Y-87552578D01*
X154825482Y-87552578D02*
X154730244Y-87504959D01*
X153873101Y-88504959D02*
X153873101Y-87504959D01*
X153873101Y-87504959D02*
X153301673Y-88504959D01*
X153301673Y-88504959D02*
X153301673Y-87504959D01*
X154730244Y-89114903D02*
X154539768Y-89114903D01*
X154539768Y-89114903D02*
X154444530Y-89162522D01*
X154444530Y-89162522D02*
X154349292Y-89257760D01*
X154349292Y-89257760D02*
X154301673Y-89448236D01*
X154301673Y-89448236D02*
X154301673Y-89781569D01*
X154301673Y-89781569D02*
X154349292Y-89972045D01*
X154349292Y-89972045D02*
X154444530Y-90067284D01*
X154444530Y-90067284D02*
X154539768Y-90114903D01*
X154539768Y-90114903D02*
X154730244Y-90114903D01*
X154730244Y-90114903D02*
X154825482Y-90067284D01*
X154825482Y-90067284D02*
X154920720Y-89972045D01*
X154920720Y-89972045D02*
X154968339Y-89781569D01*
X154968339Y-89781569D02*
X154968339Y-89448236D01*
X154968339Y-89448236D02*
X154920720Y-89257760D01*
X154920720Y-89257760D02*
X154825482Y-89162522D01*
X154825482Y-89162522D02*
X154730244Y-89114903D01*
X153873101Y-90114903D02*
X153873101Y-89114903D01*
X153873101Y-89114903D02*
X153301673Y-90114903D01*
X153301673Y-90114903D02*
X153301673Y-89114903D01*
X154730244Y-90724847D02*
X154539768Y-90724847D01*
X154539768Y-90724847D02*
X154444530Y-90772466D01*
X154444530Y-90772466D02*
X154349292Y-90867704D01*
X154349292Y-90867704D02*
X154301673Y-91058180D01*
X154301673Y-91058180D02*
X154301673Y-91391513D01*
X154301673Y-91391513D02*
X154349292Y-91581989D01*
X154349292Y-91581989D02*
X154444530Y-91677228D01*
X154444530Y-91677228D02*
X154539768Y-91724847D01*
X154539768Y-91724847D02*
X154730244Y-91724847D01*
X154730244Y-91724847D02*
X154825482Y-91677228D01*
X154825482Y-91677228D02*
X154920720Y-91581989D01*
X154920720Y-91581989D02*
X154968339Y-91391513D01*
X154968339Y-91391513D02*
X154968339Y-91058180D01*
X154968339Y-91058180D02*
X154920720Y-90867704D01*
X154920720Y-90867704D02*
X154825482Y-90772466D01*
X154825482Y-90772466D02*
X154730244Y-90724847D01*
X153873101Y-91724847D02*
X153873101Y-90724847D01*
X153873101Y-90724847D02*
X153301673Y-91724847D01*
X153301673Y-91724847D02*
X153301673Y-90724847D01*
X154730244Y-92334791D02*
X154539768Y-92334791D01*
X154539768Y-92334791D02*
X154444530Y-92382410D01*
X154444530Y-92382410D02*
X154349292Y-92477648D01*
X154349292Y-92477648D02*
X154301673Y-92668124D01*
X154301673Y-92668124D02*
X154301673Y-93001457D01*
X154301673Y-93001457D02*
X154349292Y-93191933D01*
X154349292Y-93191933D02*
X154444530Y-93287172D01*
X154444530Y-93287172D02*
X154539768Y-93334791D01*
X154539768Y-93334791D02*
X154730244Y-93334791D01*
X154730244Y-93334791D02*
X154825482Y-93287172D01*
X154825482Y-93287172D02*
X154920720Y-93191933D01*
X154920720Y-93191933D02*
X154968339Y-93001457D01*
X154968339Y-93001457D02*
X154968339Y-92668124D01*
X154968339Y-92668124D02*
X154920720Y-92477648D01*
X154920720Y-92477648D02*
X154825482Y-92382410D01*
X154825482Y-92382410D02*
X154730244Y-92334791D01*
X153873101Y-93334791D02*
X153873101Y-92334791D01*
X153873101Y-92334791D02*
X153301673Y-93334791D01*
X153301673Y-93334791D02*
X153301673Y-92334791D01*
X154730244Y-93944735D02*
X154539768Y-93944735D01*
X154539768Y-93944735D02*
X154444530Y-93992354D01*
X154444530Y-93992354D02*
X154349292Y-94087592D01*
X154349292Y-94087592D02*
X154301673Y-94278068D01*
X154301673Y-94278068D02*
X154301673Y-94611401D01*
X154301673Y-94611401D02*
X154349292Y-94801877D01*
X154349292Y-94801877D02*
X154444530Y-94897116D01*
X154444530Y-94897116D02*
X154539768Y-94944735D01*
X154539768Y-94944735D02*
X154730244Y-94944735D01*
X154730244Y-94944735D02*
X154825482Y-94897116D01*
X154825482Y-94897116D02*
X154920720Y-94801877D01*
X154920720Y-94801877D02*
X154968339Y-94611401D01*
X154968339Y-94611401D02*
X154968339Y-94278068D01*
X154968339Y-94278068D02*
X154920720Y-94087592D01*
X154920720Y-94087592D02*
X154825482Y-93992354D01*
X154825482Y-93992354D02*
X154730244Y-93944735D01*
X153873101Y-94944735D02*
X153873101Y-93944735D01*
X153873101Y-93944735D02*
X153301673Y-94944735D01*
X153301673Y-94944735D02*
X153301673Y-93944735D01*
X154730244Y-95554679D02*
X154539768Y-95554679D01*
X154539768Y-95554679D02*
X154444530Y-95602298D01*
X154444530Y-95602298D02*
X154349292Y-95697536D01*
X154349292Y-95697536D02*
X154301673Y-95888012D01*
X154301673Y-95888012D02*
X154301673Y-96221345D01*
X154301673Y-96221345D02*
X154349292Y-96411821D01*
X154349292Y-96411821D02*
X154444530Y-96507060D01*
X154444530Y-96507060D02*
X154539768Y-96554679D01*
X154539768Y-96554679D02*
X154730244Y-96554679D01*
X154730244Y-96554679D02*
X154825482Y-96507060D01*
X154825482Y-96507060D02*
X154920720Y-96411821D01*
X154920720Y-96411821D02*
X154968339Y-96221345D01*
X154968339Y-96221345D02*
X154968339Y-95888012D01*
X154968339Y-95888012D02*
X154920720Y-95697536D01*
X154920720Y-95697536D02*
X154825482Y-95602298D01*
X154825482Y-95602298D02*
X154730244Y-95554679D01*
X153873101Y-96554679D02*
X153873101Y-95554679D01*
X153873101Y-95554679D02*
X153301673Y-96554679D01*
X153301673Y-96554679D02*
X153301673Y-95554679D01*
X154730244Y-97164623D02*
X154539768Y-97164623D01*
X154539768Y-97164623D02*
X154444530Y-97212242D01*
X154444530Y-97212242D02*
X154349292Y-97307480D01*
X154349292Y-97307480D02*
X154301673Y-97497956D01*
X154301673Y-97497956D02*
X154301673Y-97831289D01*
X154301673Y-97831289D02*
X154349292Y-98021765D01*
X154349292Y-98021765D02*
X154444530Y-98117004D01*
X154444530Y-98117004D02*
X154539768Y-98164623D01*
X154539768Y-98164623D02*
X154730244Y-98164623D01*
X154730244Y-98164623D02*
X154825482Y-98117004D01*
X154825482Y-98117004D02*
X154920720Y-98021765D01*
X154920720Y-98021765D02*
X154968339Y-97831289D01*
X154968339Y-97831289D02*
X154968339Y-97497956D01*
X154968339Y-97497956D02*
X154920720Y-97307480D01*
X154920720Y-97307480D02*
X154825482Y-97212242D01*
X154825482Y-97212242D02*
X154730244Y-97164623D01*
X153873101Y-98164623D02*
X153873101Y-97164623D01*
X153873101Y-97164623D02*
X153301673Y-98164623D01*
X153301673Y-98164623D02*
X153301673Y-97164623D01*
X154730244Y-98774567D02*
X154539768Y-98774567D01*
X154539768Y-98774567D02*
X154444530Y-98822186D01*
X154444530Y-98822186D02*
X154349292Y-98917424D01*
X154349292Y-98917424D02*
X154301673Y-99107900D01*
X154301673Y-99107900D02*
X154301673Y-99441233D01*
X154301673Y-99441233D02*
X154349292Y-99631709D01*
X154349292Y-99631709D02*
X154444530Y-99726948D01*
X154444530Y-99726948D02*
X154539768Y-99774567D01*
X154539768Y-99774567D02*
X154730244Y-99774567D01*
X154730244Y-99774567D02*
X154825482Y-99726948D01*
X154825482Y-99726948D02*
X154920720Y-99631709D01*
X154920720Y-99631709D02*
X154968339Y-99441233D01*
X154968339Y-99441233D02*
X154968339Y-99107900D01*
X154968339Y-99107900D02*
X154920720Y-98917424D01*
X154920720Y-98917424D02*
X154825482Y-98822186D01*
X154825482Y-98822186D02*
X154730244Y-98774567D01*
X153873101Y-99774567D02*
X153873101Y-98774567D01*
X153873101Y-98774567D02*
X153301673Y-99774567D01*
X153301673Y-99774567D02*
X153301673Y-98774567D01*
X160048339Y-85237452D02*
X159905482Y-85285071D01*
X159905482Y-85285071D02*
X159667387Y-85285071D01*
X159667387Y-85285071D02*
X159572149Y-85237452D01*
X159572149Y-85237452D02*
X159524530Y-85189832D01*
X159524530Y-85189832D02*
X159476911Y-85094594D01*
X159476911Y-85094594D02*
X159476911Y-84999356D01*
X159476911Y-84999356D02*
X159524530Y-84904118D01*
X159524530Y-84904118D02*
X159572149Y-84856499D01*
X159572149Y-84856499D02*
X159667387Y-84808880D01*
X159667387Y-84808880D02*
X159857863Y-84761261D01*
X159857863Y-84761261D02*
X159953101Y-84713642D01*
X159953101Y-84713642D02*
X160000720Y-84666023D01*
X160000720Y-84666023D02*
X160048339Y-84570785D01*
X160048339Y-84570785D02*
X160048339Y-84475547D01*
X160048339Y-84475547D02*
X160000720Y-84380309D01*
X160000720Y-84380309D02*
X159953101Y-84332690D01*
X159953101Y-84332690D02*
X159857863Y-84285071D01*
X159857863Y-84285071D02*
X159619768Y-84285071D01*
X159619768Y-84285071D02*
X159476911Y-84332690D01*
X159143577Y-84285071D02*
X158905482Y-85285071D01*
X158905482Y-85285071D02*
X158715006Y-84570785D01*
X158715006Y-84570785D02*
X158524530Y-85285071D01*
X158524530Y-85285071D02*
X158286435Y-84285071D01*
X158000720Y-84285071D02*
X157381673Y-84285071D01*
X157381673Y-84285071D02*
X157715006Y-84666023D01*
X157715006Y-84666023D02*
X157572149Y-84666023D01*
X157572149Y-84666023D02*
X157476911Y-84713642D01*
X157476911Y-84713642D02*
X157429292Y-84761261D01*
X157429292Y-84761261D02*
X157381673Y-84856499D01*
X157381673Y-84856499D02*
X157381673Y-85094594D01*
X157381673Y-85094594D02*
X157429292Y-85189832D01*
X157429292Y-85189832D02*
X157476911Y-85237452D01*
X157476911Y-85237452D02*
X157572149Y-85285071D01*
X157572149Y-85285071D02*
X157857863Y-85285071D01*
X157857863Y-85285071D02*
X157953101Y-85237452D01*
X157953101Y-85237452D02*
X158000720Y-85189832D01*
X156953101Y-85189832D02*
X156905482Y-85237452D01*
X156905482Y-85237452D02*
X156953101Y-85285071D01*
X156953101Y-85285071D02*
X157000720Y-85237452D01*
X157000720Y-85237452D02*
X156953101Y-85189832D01*
X156953101Y-85189832D02*
X156953101Y-85285071D01*
X156524530Y-84380309D02*
X156476911Y-84332690D01*
X156476911Y-84332690D02*
X156381673Y-84285071D01*
X156381673Y-84285071D02*
X156143578Y-84285071D01*
X156143578Y-84285071D02*
X156048340Y-84332690D01*
X156048340Y-84332690D02*
X156000721Y-84380309D01*
X156000721Y-84380309D02*
X155953102Y-84475547D01*
X155953102Y-84475547D02*
X155953102Y-84570785D01*
X155953102Y-84570785D02*
X156000721Y-84713642D01*
X156000721Y-84713642D02*
X156572149Y-85285071D01*
X156572149Y-85285071D02*
X155953102Y-85285071D01*
X159810244Y-87504959D02*
X159619768Y-87504959D01*
X159619768Y-87504959D02*
X159524530Y-87552578D01*
X159524530Y-87552578D02*
X159429292Y-87647816D01*
X159429292Y-87647816D02*
X159381673Y-87838292D01*
X159381673Y-87838292D02*
X159381673Y-88171625D01*
X159381673Y-88171625D02*
X159429292Y-88362101D01*
X159429292Y-88362101D02*
X159524530Y-88457340D01*
X159524530Y-88457340D02*
X159619768Y-88504959D01*
X159619768Y-88504959D02*
X159810244Y-88504959D01*
X159810244Y-88504959D02*
X159905482Y-88457340D01*
X159905482Y-88457340D02*
X160000720Y-88362101D01*
X160000720Y-88362101D02*
X160048339Y-88171625D01*
X160048339Y-88171625D02*
X160048339Y-87838292D01*
X160048339Y-87838292D02*
X160000720Y-87647816D01*
X160000720Y-87647816D02*
X159905482Y-87552578D01*
X159905482Y-87552578D02*
X159810244Y-87504959D01*
X158619768Y-87981149D02*
X158953101Y-87981149D01*
X158953101Y-88504959D02*
X158953101Y-87504959D01*
X158953101Y-87504959D02*
X158476911Y-87504959D01*
X157762625Y-87981149D02*
X158095958Y-87981149D01*
X158095958Y-88504959D02*
X158095958Y-87504959D01*
X158095958Y-87504959D02*
X157619768Y-87504959D01*
X159810244Y-89114903D02*
X159619768Y-89114903D01*
X159619768Y-89114903D02*
X159524530Y-89162522D01*
X159524530Y-89162522D02*
X159429292Y-89257760D01*
X159429292Y-89257760D02*
X159381673Y-89448236D01*
X159381673Y-89448236D02*
X159381673Y-89781569D01*
X159381673Y-89781569D02*
X159429292Y-89972045D01*
X159429292Y-89972045D02*
X159524530Y-90067284D01*
X159524530Y-90067284D02*
X159619768Y-90114903D01*
X159619768Y-90114903D02*
X159810244Y-90114903D01*
X159810244Y-90114903D02*
X159905482Y-90067284D01*
X159905482Y-90067284D02*
X160000720Y-89972045D01*
X160000720Y-89972045D02*
X160048339Y-89781569D01*
X160048339Y-89781569D02*
X160048339Y-89448236D01*
X160048339Y-89448236D02*
X160000720Y-89257760D01*
X160000720Y-89257760D02*
X159905482Y-89162522D01*
X159905482Y-89162522D02*
X159810244Y-89114903D01*
X158619768Y-89591093D02*
X158953101Y-89591093D01*
X158953101Y-90114903D02*
X158953101Y-89114903D01*
X158953101Y-89114903D02*
X158476911Y-89114903D01*
X157762625Y-89591093D02*
X158095958Y-89591093D01*
X158095958Y-90114903D02*
X158095958Y-89114903D01*
X158095958Y-89114903D02*
X157619768Y-89114903D01*
X159810244Y-90724847D02*
X159619768Y-90724847D01*
X159619768Y-90724847D02*
X159524530Y-90772466D01*
X159524530Y-90772466D02*
X159429292Y-90867704D01*
X159429292Y-90867704D02*
X159381673Y-91058180D01*
X159381673Y-91058180D02*
X159381673Y-91391513D01*
X159381673Y-91391513D02*
X159429292Y-91581989D01*
X159429292Y-91581989D02*
X159524530Y-91677228D01*
X159524530Y-91677228D02*
X159619768Y-91724847D01*
X159619768Y-91724847D02*
X159810244Y-91724847D01*
X159810244Y-91724847D02*
X159905482Y-91677228D01*
X159905482Y-91677228D02*
X160000720Y-91581989D01*
X160000720Y-91581989D02*
X160048339Y-91391513D01*
X160048339Y-91391513D02*
X160048339Y-91058180D01*
X160048339Y-91058180D02*
X160000720Y-90867704D01*
X160000720Y-90867704D02*
X159905482Y-90772466D01*
X159905482Y-90772466D02*
X159810244Y-90724847D01*
X158953101Y-91724847D02*
X158953101Y-90724847D01*
X158953101Y-90724847D02*
X158381673Y-91724847D01*
X158381673Y-91724847D02*
X158381673Y-90724847D01*
X159810244Y-92334791D02*
X159619768Y-92334791D01*
X159619768Y-92334791D02*
X159524530Y-92382410D01*
X159524530Y-92382410D02*
X159429292Y-92477648D01*
X159429292Y-92477648D02*
X159381673Y-92668124D01*
X159381673Y-92668124D02*
X159381673Y-93001457D01*
X159381673Y-93001457D02*
X159429292Y-93191933D01*
X159429292Y-93191933D02*
X159524530Y-93287172D01*
X159524530Y-93287172D02*
X159619768Y-93334791D01*
X159619768Y-93334791D02*
X159810244Y-93334791D01*
X159810244Y-93334791D02*
X159905482Y-93287172D01*
X159905482Y-93287172D02*
X160000720Y-93191933D01*
X160000720Y-93191933D02*
X160048339Y-93001457D01*
X160048339Y-93001457D02*
X160048339Y-92668124D01*
X160048339Y-92668124D02*
X160000720Y-92477648D01*
X160000720Y-92477648D02*
X159905482Y-92382410D01*
X159905482Y-92382410D02*
X159810244Y-92334791D01*
X158953101Y-93334791D02*
X158953101Y-92334791D01*
X158953101Y-92334791D02*
X158381673Y-93334791D01*
X158381673Y-93334791D02*
X158381673Y-92334791D01*
X159810244Y-93944735D02*
X159619768Y-93944735D01*
X159619768Y-93944735D02*
X159524530Y-93992354D01*
X159524530Y-93992354D02*
X159429292Y-94087592D01*
X159429292Y-94087592D02*
X159381673Y-94278068D01*
X159381673Y-94278068D02*
X159381673Y-94611401D01*
X159381673Y-94611401D02*
X159429292Y-94801877D01*
X159429292Y-94801877D02*
X159524530Y-94897116D01*
X159524530Y-94897116D02*
X159619768Y-94944735D01*
X159619768Y-94944735D02*
X159810244Y-94944735D01*
X159810244Y-94944735D02*
X159905482Y-94897116D01*
X159905482Y-94897116D02*
X160000720Y-94801877D01*
X160000720Y-94801877D02*
X160048339Y-94611401D01*
X160048339Y-94611401D02*
X160048339Y-94278068D01*
X160048339Y-94278068D02*
X160000720Y-94087592D01*
X160000720Y-94087592D02*
X159905482Y-93992354D01*
X159905482Y-93992354D02*
X159810244Y-93944735D01*
X158619768Y-94420925D02*
X158953101Y-94420925D01*
X158953101Y-94944735D02*
X158953101Y-93944735D01*
X158953101Y-93944735D02*
X158476911Y-93944735D01*
X157762625Y-94420925D02*
X158095958Y-94420925D01*
X158095958Y-94944735D02*
X158095958Y-93944735D01*
X158095958Y-93944735D02*
X157619768Y-93944735D01*
X159810244Y-95554679D02*
X159619768Y-95554679D01*
X159619768Y-95554679D02*
X159524530Y-95602298D01*
X159524530Y-95602298D02*
X159429292Y-95697536D01*
X159429292Y-95697536D02*
X159381673Y-95888012D01*
X159381673Y-95888012D02*
X159381673Y-96221345D01*
X159381673Y-96221345D02*
X159429292Y-96411821D01*
X159429292Y-96411821D02*
X159524530Y-96507060D01*
X159524530Y-96507060D02*
X159619768Y-96554679D01*
X159619768Y-96554679D02*
X159810244Y-96554679D01*
X159810244Y-96554679D02*
X159905482Y-96507060D01*
X159905482Y-96507060D02*
X160000720Y-96411821D01*
X160000720Y-96411821D02*
X160048339Y-96221345D01*
X160048339Y-96221345D02*
X160048339Y-95888012D01*
X160048339Y-95888012D02*
X160000720Y-95697536D01*
X160000720Y-95697536D02*
X159905482Y-95602298D01*
X159905482Y-95602298D02*
X159810244Y-95554679D01*
X158619768Y-96030869D02*
X158953101Y-96030869D01*
X158953101Y-96554679D02*
X158953101Y-95554679D01*
X158953101Y-95554679D02*
X158476911Y-95554679D01*
X157762625Y-96030869D02*
X158095958Y-96030869D01*
X158095958Y-96554679D02*
X158095958Y-95554679D01*
X158095958Y-95554679D02*
X157619768Y-95554679D01*
X159810244Y-97164623D02*
X159619768Y-97164623D01*
X159619768Y-97164623D02*
X159524530Y-97212242D01*
X159524530Y-97212242D02*
X159429292Y-97307480D01*
X159429292Y-97307480D02*
X159381673Y-97497956D01*
X159381673Y-97497956D02*
X159381673Y-97831289D01*
X159381673Y-97831289D02*
X159429292Y-98021765D01*
X159429292Y-98021765D02*
X159524530Y-98117004D01*
X159524530Y-98117004D02*
X159619768Y-98164623D01*
X159619768Y-98164623D02*
X159810244Y-98164623D01*
X159810244Y-98164623D02*
X159905482Y-98117004D01*
X159905482Y-98117004D02*
X160000720Y-98021765D01*
X160000720Y-98021765D02*
X160048339Y-97831289D01*
X160048339Y-97831289D02*
X160048339Y-97497956D01*
X160048339Y-97497956D02*
X160000720Y-97307480D01*
X160000720Y-97307480D02*
X159905482Y-97212242D01*
X159905482Y-97212242D02*
X159810244Y-97164623D01*
X158953101Y-98164623D02*
X158953101Y-97164623D01*
X158953101Y-97164623D02*
X158381673Y-98164623D01*
X158381673Y-98164623D02*
X158381673Y-97164623D01*
X159810244Y-98774567D02*
X159619768Y-98774567D01*
X159619768Y-98774567D02*
X159524530Y-98822186D01*
X159524530Y-98822186D02*
X159429292Y-98917424D01*
X159429292Y-98917424D02*
X159381673Y-99107900D01*
X159381673Y-99107900D02*
X159381673Y-99441233D01*
X159381673Y-99441233D02*
X159429292Y-99631709D01*
X159429292Y-99631709D02*
X159524530Y-99726948D01*
X159524530Y-99726948D02*
X159619768Y-99774567D01*
X159619768Y-99774567D02*
X159810244Y-99774567D01*
X159810244Y-99774567D02*
X159905482Y-99726948D01*
X159905482Y-99726948D02*
X160000720Y-99631709D01*
X160000720Y-99631709D02*
X160048339Y-99441233D01*
X160048339Y-99441233D02*
X160048339Y-99107900D01*
X160048339Y-99107900D02*
X160000720Y-98917424D01*
X160000720Y-98917424D02*
X159905482Y-98822186D01*
X159905482Y-98822186D02*
X159810244Y-98774567D01*
X158953101Y-99774567D02*
X158953101Y-98774567D01*
X158953101Y-98774567D02*
X158381673Y-99774567D01*
X158381673Y-99774567D02*
X158381673Y-98774567D01*
X175240720Y-85285071D02*
X175240720Y-84285071D01*
X174050245Y-84237452D02*
X174907387Y-85523166D01*
X173526435Y-84285071D02*
X173335959Y-84285071D01*
X173335959Y-84285071D02*
X173240721Y-84332690D01*
X173240721Y-84332690D02*
X173145483Y-84427928D01*
X173145483Y-84427928D02*
X173097864Y-84618404D01*
X173097864Y-84618404D02*
X173097864Y-84951737D01*
X173097864Y-84951737D02*
X173145483Y-85142213D01*
X173145483Y-85142213D02*
X173240721Y-85237452D01*
X173240721Y-85237452D02*
X173335959Y-85285071D01*
X173335959Y-85285071D02*
X173526435Y-85285071D01*
X173526435Y-85285071D02*
X173621673Y-85237452D01*
X173621673Y-85237452D02*
X173716911Y-85142213D01*
X173716911Y-85142213D02*
X173764530Y-84951737D01*
X173764530Y-84951737D02*
X173764530Y-84618404D01*
X173764530Y-84618404D02*
X173716911Y-84427928D01*
X173716911Y-84427928D02*
X173621673Y-84332690D01*
X173621673Y-84332690D02*
X173526435Y-84285071D01*
X171955006Y-84999356D02*
X171478816Y-84999356D01*
X172050244Y-85285071D02*
X171716911Y-84285071D01*
X171716911Y-84285071D02*
X171383578Y-85285071D01*
X170621673Y-85285071D02*
X170621673Y-84285071D01*
X170621673Y-85237452D02*
X170716911Y-85285071D01*
X170716911Y-85285071D02*
X170907387Y-85285071D01*
X170907387Y-85285071D02*
X171002625Y-85237452D01*
X171002625Y-85237452D02*
X171050244Y-85189832D01*
X171050244Y-85189832D02*
X171097863Y-85094594D01*
X171097863Y-85094594D02*
X171097863Y-84808880D01*
X171097863Y-84808880D02*
X171050244Y-84713642D01*
X171050244Y-84713642D02*
X171002625Y-84666023D01*
X171002625Y-84666023D02*
X170907387Y-84618404D01*
X170907387Y-84618404D02*
X170716911Y-84618404D01*
X170716911Y-84618404D02*
X170621673Y-84666023D01*
X169716911Y-85285071D02*
X169716911Y-84285071D01*
X169716911Y-85237452D02*
X169812149Y-85285071D01*
X169812149Y-85285071D02*
X170002625Y-85285071D01*
X170002625Y-85285071D02*
X170097863Y-85237452D01*
X170097863Y-85237452D02*
X170145482Y-85189832D01*
X170145482Y-85189832D02*
X170193101Y-85094594D01*
X170193101Y-85094594D02*
X170193101Y-84808880D01*
X170193101Y-84808880D02*
X170145482Y-84713642D01*
X170145482Y-84713642D02*
X170097863Y-84666023D01*
X170097863Y-84666023D02*
X170002625Y-84618404D01*
X170002625Y-84618404D02*
X169812149Y-84618404D01*
X169812149Y-84618404D02*
X169716911Y-84666023D01*
X169240720Y-85285071D02*
X169240720Y-84618404D01*
X169240720Y-84808880D02*
X169193101Y-84713642D01*
X169193101Y-84713642D02*
X169145482Y-84666023D01*
X169145482Y-84666023D02*
X169050244Y-84618404D01*
X169050244Y-84618404D02*
X168955006Y-84618404D01*
X168240720Y-85237452D02*
X168335958Y-85285071D01*
X168335958Y-85285071D02*
X168526434Y-85285071D01*
X168526434Y-85285071D02*
X168621672Y-85237452D01*
X168621672Y-85237452D02*
X168669291Y-85142213D01*
X168669291Y-85142213D02*
X168669291Y-84761261D01*
X168669291Y-84761261D02*
X168621672Y-84666023D01*
X168621672Y-84666023D02*
X168526434Y-84618404D01*
X168526434Y-84618404D02*
X168335958Y-84618404D01*
X168335958Y-84618404D02*
X168240720Y-84666023D01*
X168240720Y-84666023D02*
X168193101Y-84761261D01*
X168193101Y-84761261D02*
X168193101Y-84856499D01*
X168193101Y-84856499D02*
X168669291Y-84951737D01*
X167812148Y-85237452D02*
X167716910Y-85285071D01*
X167716910Y-85285071D02*
X167526434Y-85285071D01*
X167526434Y-85285071D02*
X167431196Y-85237452D01*
X167431196Y-85237452D02*
X167383577Y-85142213D01*
X167383577Y-85142213D02*
X167383577Y-85094594D01*
X167383577Y-85094594D02*
X167431196Y-84999356D01*
X167431196Y-84999356D02*
X167526434Y-84951737D01*
X167526434Y-84951737D02*
X167669291Y-84951737D01*
X167669291Y-84951737D02*
X167764529Y-84904118D01*
X167764529Y-84904118D02*
X167812148Y-84808880D01*
X167812148Y-84808880D02*
X167812148Y-84761261D01*
X167812148Y-84761261D02*
X167764529Y-84666023D01*
X167764529Y-84666023D02*
X167669291Y-84618404D01*
X167669291Y-84618404D02*
X167526434Y-84618404D01*
X167526434Y-84618404D02*
X167431196Y-84666023D01*
X167002624Y-85237452D02*
X166907386Y-85285071D01*
X166907386Y-85285071D02*
X166716910Y-85285071D01*
X166716910Y-85285071D02*
X166621672Y-85237452D01*
X166621672Y-85237452D02*
X166574053Y-85142213D01*
X166574053Y-85142213D02*
X166574053Y-85094594D01*
X166574053Y-85094594D02*
X166621672Y-84999356D01*
X166621672Y-84999356D02*
X166716910Y-84951737D01*
X166716910Y-84951737D02*
X166859767Y-84951737D01*
X166859767Y-84951737D02*
X166955005Y-84904118D01*
X166955005Y-84904118D02*
X167002624Y-84808880D01*
X167002624Y-84808880D02*
X167002624Y-84761261D01*
X167002624Y-84761261D02*
X166955005Y-84666023D01*
X166955005Y-84666023D02*
X166859767Y-84618404D01*
X166859767Y-84618404D02*
X166716910Y-84618404D01*
X166716910Y-84618404D02*
X166621672Y-84666023D01*
X175050244Y-87504959D02*
X174955006Y-87504959D01*
X174955006Y-87504959D02*
X174859768Y-87552578D01*
X174859768Y-87552578D02*
X174812149Y-87600197D01*
X174812149Y-87600197D02*
X174764530Y-87695435D01*
X174764530Y-87695435D02*
X174716911Y-87885911D01*
X174716911Y-87885911D02*
X174716911Y-88124006D01*
X174716911Y-88124006D02*
X174764530Y-88314482D01*
X174764530Y-88314482D02*
X174812149Y-88409720D01*
X174812149Y-88409720D02*
X174859768Y-88457340D01*
X174859768Y-88457340D02*
X174955006Y-88504959D01*
X174955006Y-88504959D02*
X175050244Y-88504959D01*
X175050244Y-88504959D02*
X175145482Y-88457340D01*
X175145482Y-88457340D02*
X175193101Y-88409720D01*
X175193101Y-88409720D02*
X175240720Y-88314482D01*
X175240720Y-88314482D02*
X175288339Y-88124006D01*
X175288339Y-88124006D02*
X175288339Y-87885911D01*
X175288339Y-87885911D02*
X175240720Y-87695435D01*
X175240720Y-87695435D02*
X175193101Y-87600197D01*
X175193101Y-87600197D02*
X175145482Y-87552578D01*
X175145482Y-87552578D02*
X175050244Y-87504959D01*
X174383577Y-88504959D02*
X173859768Y-87838292D01*
X174383577Y-87838292D02*
X173859768Y-88504959D01*
X173526434Y-87600197D02*
X173478815Y-87552578D01*
X173478815Y-87552578D02*
X173383577Y-87504959D01*
X173383577Y-87504959D02*
X173145482Y-87504959D01*
X173145482Y-87504959D02*
X173050244Y-87552578D01*
X173050244Y-87552578D02*
X173002625Y-87600197D01*
X173002625Y-87600197D02*
X172955006Y-87695435D01*
X172955006Y-87695435D02*
X172955006Y-87790673D01*
X172955006Y-87790673D02*
X173002625Y-87933530D01*
X173002625Y-87933530D02*
X173574053Y-88504959D01*
X173574053Y-88504959D02*
X172955006Y-88504959D01*
X172335958Y-87504959D02*
X172240720Y-87504959D01*
X172240720Y-87504959D02*
X172145482Y-87552578D01*
X172145482Y-87552578D02*
X172097863Y-87600197D01*
X172097863Y-87600197D02*
X172050244Y-87695435D01*
X172050244Y-87695435D02*
X172002625Y-87885911D01*
X172002625Y-87885911D02*
X172002625Y-88124006D01*
X172002625Y-88124006D02*
X172050244Y-88314482D01*
X172050244Y-88314482D02*
X172097863Y-88409720D01*
X172097863Y-88409720D02*
X172145482Y-88457340D01*
X172145482Y-88457340D02*
X172240720Y-88504959D01*
X172240720Y-88504959D02*
X172335958Y-88504959D01*
X172335958Y-88504959D02*
X172431196Y-88457340D01*
X172431196Y-88457340D02*
X172478815Y-88409720D01*
X172478815Y-88409720D02*
X172526434Y-88314482D01*
X172526434Y-88314482D02*
X172574053Y-88124006D01*
X172574053Y-88124006D02*
X172574053Y-87885911D01*
X172574053Y-87885911D02*
X172526434Y-87695435D01*
X172526434Y-87695435D02*
X172478815Y-87600197D01*
X172478815Y-87600197D02*
X172431196Y-87552578D01*
X172431196Y-87552578D02*
X172335958Y-87504959D01*
X171383577Y-87504959D02*
X171288339Y-87504959D01*
X171288339Y-87504959D02*
X171193101Y-87552578D01*
X171193101Y-87552578D02*
X171145482Y-87600197D01*
X171145482Y-87600197D02*
X171097863Y-87695435D01*
X171097863Y-87695435D02*
X171050244Y-87885911D01*
X171050244Y-87885911D02*
X171050244Y-88124006D01*
X171050244Y-88124006D02*
X171097863Y-88314482D01*
X171097863Y-88314482D02*
X171145482Y-88409720D01*
X171145482Y-88409720D02*
X171193101Y-88457340D01*
X171193101Y-88457340D02*
X171288339Y-88504959D01*
X171288339Y-88504959D02*
X171383577Y-88504959D01*
X171383577Y-88504959D02*
X171478815Y-88457340D01*
X171478815Y-88457340D02*
X171526434Y-88409720D01*
X171526434Y-88409720D02*
X171574053Y-88314482D01*
X171574053Y-88314482D02*
X171621672Y-88124006D01*
X171621672Y-88124006D02*
X171621672Y-87885911D01*
X171621672Y-87885911D02*
X171574053Y-87695435D01*
X171574053Y-87695435D02*
X171526434Y-87600197D01*
X171526434Y-87600197D02*
X171478815Y-87552578D01*
X171478815Y-87552578D02*
X171383577Y-87504959D01*
X175050244Y-89114903D02*
X174955006Y-89114903D01*
X174955006Y-89114903D02*
X174859768Y-89162522D01*
X174859768Y-89162522D02*
X174812149Y-89210141D01*
X174812149Y-89210141D02*
X174764530Y-89305379D01*
X174764530Y-89305379D02*
X174716911Y-89495855D01*
X174716911Y-89495855D02*
X174716911Y-89733950D01*
X174716911Y-89733950D02*
X174764530Y-89924426D01*
X174764530Y-89924426D02*
X174812149Y-90019664D01*
X174812149Y-90019664D02*
X174859768Y-90067284D01*
X174859768Y-90067284D02*
X174955006Y-90114903D01*
X174955006Y-90114903D02*
X175050244Y-90114903D01*
X175050244Y-90114903D02*
X175145482Y-90067284D01*
X175145482Y-90067284D02*
X175193101Y-90019664D01*
X175193101Y-90019664D02*
X175240720Y-89924426D01*
X175240720Y-89924426D02*
X175288339Y-89733950D01*
X175288339Y-89733950D02*
X175288339Y-89495855D01*
X175288339Y-89495855D02*
X175240720Y-89305379D01*
X175240720Y-89305379D02*
X175193101Y-89210141D01*
X175193101Y-89210141D02*
X175145482Y-89162522D01*
X175145482Y-89162522D02*
X175050244Y-89114903D01*
X174383577Y-90114903D02*
X173859768Y-89448236D01*
X174383577Y-89448236D02*
X173859768Y-90114903D01*
X173526434Y-89210141D02*
X173478815Y-89162522D01*
X173478815Y-89162522D02*
X173383577Y-89114903D01*
X173383577Y-89114903D02*
X173145482Y-89114903D01*
X173145482Y-89114903D02*
X173050244Y-89162522D01*
X173050244Y-89162522D02*
X173002625Y-89210141D01*
X173002625Y-89210141D02*
X172955006Y-89305379D01*
X172955006Y-89305379D02*
X172955006Y-89400617D01*
X172955006Y-89400617D02*
X173002625Y-89543474D01*
X173002625Y-89543474D02*
X173574053Y-90114903D01*
X173574053Y-90114903D02*
X172955006Y-90114903D01*
X172574053Y-89210141D02*
X172526434Y-89162522D01*
X172526434Y-89162522D02*
X172431196Y-89114903D01*
X172431196Y-89114903D02*
X172193101Y-89114903D01*
X172193101Y-89114903D02*
X172097863Y-89162522D01*
X172097863Y-89162522D02*
X172050244Y-89210141D01*
X172050244Y-89210141D02*
X172002625Y-89305379D01*
X172002625Y-89305379D02*
X172002625Y-89400617D01*
X172002625Y-89400617D02*
X172050244Y-89543474D01*
X172050244Y-89543474D02*
X172621672Y-90114903D01*
X172621672Y-90114903D02*
X172002625Y-90114903D01*
X171383577Y-89114903D02*
X171288339Y-89114903D01*
X171288339Y-89114903D02*
X171193101Y-89162522D01*
X171193101Y-89162522D02*
X171145482Y-89210141D01*
X171145482Y-89210141D02*
X171097863Y-89305379D01*
X171097863Y-89305379D02*
X171050244Y-89495855D01*
X171050244Y-89495855D02*
X171050244Y-89733950D01*
X171050244Y-89733950D02*
X171097863Y-89924426D01*
X171097863Y-89924426D02*
X171145482Y-90019664D01*
X171145482Y-90019664D02*
X171193101Y-90067284D01*
X171193101Y-90067284D02*
X171288339Y-90114903D01*
X171288339Y-90114903D02*
X171383577Y-90114903D01*
X171383577Y-90114903D02*
X171478815Y-90067284D01*
X171478815Y-90067284D02*
X171526434Y-90019664D01*
X171526434Y-90019664D02*
X171574053Y-89924426D01*
X171574053Y-89924426D02*
X171621672Y-89733950D01*
X171621672Y-89733950D02*
X171621672Y-89495855D01*
X171621672Y-89495855D02*
X171574053Y-89305379D01*
X171574053Y-89305379D02*
X171526434Y-89210141D01*
X171526434Y-89210141D02*
X171478815Y-89162522D01*
X171478815Y-89162522D02*
X171383577Y-89114903D01*
X175050244Y-90724847D02*
X174955006Y-90724847D01*
X174955006Y-90724847D02*
X174859768Y-90772466D01*
X174859768Y-90772466D02*
X174812149Y-90820085D01*
X174812149Y-90820085D02*
X174764530Y-90915323D01*
X174764530Y-90915323D02*
X174716911Y-91105799D01*
X174716911Y-91105799D02*
X174716911Y-91343894D01*
X174716911Y-91343894D02*
X174764530Y-91534370D01*
X174764530Y-91534370D02*
X174812149Y-91629608D01*
X174812149Y-91629608D02*
X174859768Y-91677228D01*
X174859768Y-91677228D02*
X174955006Y-91724847D01*
X174955006Y-91724847D02*
X175050244Y-91724847D01*
X175050244Y-91724847D02*
X175145482Y-91677228D01*
X175145482Y-91677228D02*
X175193101Y-91629608D01*
X175193101Y-91629608D02*
X175240720Y-91534370D01*
X175240720Y-91534370D02*
X175288339Y-91343894D01*
X175288339Y-91343894D02*
X175288339Y-91105799D01*
X175288339Y-91105799D02*
X175240720Y-90915323D01*
X175240720Y-90915323D02*
X175193101Y-90820085D01*
X175193101Y-90820085D02*
X175145482Y-90772466D01*
X175145482Y-90772466D02*
X175050244Y-90724847D01*
X174383577Y-91724847D02*
X173859768Y-91058180D01*
X174383577Y-91058180D02*
X173859768Y-91724847D01*
X173526434Y-90820085D02*
X173478815Y-90772466D01*
X173478815Y-90772466D02*
X173383577Y-90724847D01*
X173383577Y-90724847D02*
X173145482Y-90724847D01*
X173145482Y-90724847D02*
X173050244Y-90772466D01*
X173050244Y-90772466D02*
X173002625Y-90820085D01*
X173002625Y-90820085D02*
X172955006Y-90915323D01*
X172955006Y-90915323D02*
X172955006Y-91010561D01*
X172955006Y-91010561D02*
X173002625Y-91153418D01*
X173002625Y-91153418D02*
X173574053Y-91724847D01*
X173574053Y-91724847D02*
X172955006Y-91724847D01*
X172097863Y-91058180D02*
X172097863Y-91724847D01*
X172335958Y-90677228D02*
X172574053Y-91391513D01*
X172574053Y-91391513D02*
X171955006Y-91391513D01*
X171383577Y-90724847D02*
X171288339Y-90724847D01*
X171288339Y-90724847D02*
X171193101Y-90772466D01*
X171193101Y-90772466D02*
X171145482Y-90820085D01*
X171145482Y-90820085D02*
X171097863Y-90915323D01*
X171097863Y-90915323D02*
X171050244Y-91105799D01*
X171050244Y-91105799D02*
X171050244Y-91343894D01*
X171050244Y-91343894D02*
X171097863Y-91534370D01*
X171097863Y-91534370D02*
X171145482Y-91629608D01*
X171145482Y-91629608D02*
X171193101Y-91677228D01*
X171193101Y-91677228D02*
X171288339Y-91724847D01*
X171288339Y-91724847D02*
X171383577Y-91724847D01*
X171383577Y-91724847D02*
X171478815Y-91677228D01*
X171478815Y-91677228D02*
X171526434Y-91629608D01*
X171526434Y-91629608D02*
X171574053Y-91534370D01*
X171574053Y-91534370D02*
X171621672Y-91343894D01*
X171621672Y-91343894D02*
X171621672Y-91105799D01*
X171621672Y-91105799D02*
X171574053Y-90915323D01*
X171574053Y-90915323D02*
X171526434Y-90820085D01*
X171526434Y-90820085D02*
X171478815Y-90772466D01*
X171478815Y-90772466D02*
X171383577Y-90724847D01*
X175050244Y-92334791D02*
X174955006Y-92334791D01*
X174955006Y-92334791D02*
X174859768Y-92382410D01*
X174859768Y-92382410D02*
X174812149Y-92430029D01*
X174812149Y-92430029D02*
X174764530Y-92525267D01*
X174764530Y-92525267D02*
X174716911Y-92715743D01*
X174716911Y-92715743D02*
X174716911Y-92953838D01*
X174716911Y-92953838D02*
X174764530Y-93144314D01*
X174764530Y-93144314D02*
X174812149Y-93239552D01*
X174812149Y-93239552D02*
X174859768Y-93287172D01*
X174859768Y-93287172D02*
X174955006Y-93334791D01*
X174955006Y-93334791D02*
X175050244Y-93334791D01*
X175050244Y-93334791D02*
X175145482Y-93287172D01*
X175145482Y-93287172D02*
X175193101Y-93239552D01*
X175193101Y-93239552D02*
X175240720Y-93144314D01*
X175240720Y-93144314D02*
X175288339Y-92953838D01*
X175288339Y-92953838D02*
X175288339Y-92715743D01*
X175288339Y-92715743D02*
X175240720Y-92525267D01*
X175240720Y-92525267D02*
X175193101Y-92430029D01*
X175193101Y-92430029D02*
X175145482Y-92382410D01*
X175145482Y-92382410D02*
X175050244Y-92334791D01*
X174383577Y-93334791D02*
X173859768Y-92668124D01*
X174383577Y-92668124D02*
X173859768Y-93334791D01*
X173526434Y-92430029D02*
X173478815Y-92382410D01*
X173478815Y-92382410D02*
X173383577Y-92334791D01*
X173383577Y-92334791D02*
X173145482Y-92334791D01*
X173145482Y-92334791D02*
X173050244Y-92382410D01*
X173050244Y-92382410D02*
X173002625Y-92430029D01*
X173002625Y-92430029D02*
X172955006Y-92525267D01*
X172955006Y-92525267D02*
X172955006Y-92620505D01*
X172955006Y-92620505D02*
X173002625Y-92763362D01*
X173002625Y-92763362D02*
X173574053Y-93334791D01*
X173574053Y-93334791D02*
X172955006Y-93334791D01*
X172097863Y-92334791D02*
X172288339Y-92334791D01*
X172288339Y-92334791D02*
X172383577Y-92382410D01*
X172383577Y-92382410D02*
X172431196Y-92430029D01*
X172431196Y-92430029D02*
X172526434Y-92572886D01*
X172526434Y-92572886D02*
X172574053Y-92763362D01*
X172574053Y-92763362D02*
X172574053Y-93144314D01*
X172574053Y-93144314D02*
X172526434Y-93239552D01*
X172526434Y-93239552D02*
X172478815Y-93287172D01*
X172478815Y-93287172D02*
X172383577Y-93334791D01*
X172383577Y-93334791D02*
X172193101Y-93334791D01*
X172193101Y-93334791D02*
X172097863Y-93287172D01*
X172097863Y-93287172D02*
X172050244Y-93239552D01*
X172050244Y-93239552D02*
X172002625Y-93144314D01*
X172002625Y-93144314D02*
X172002625Y-92906219D01*
X172002625Y-92906219D02*
X172050244Y-92810981D01*
X172050244Y-92810981D02*
X172097863Y-92763362D01*
X172097863Y-92763362D02*
X172193101Y-92715743D01*
X172193101Y-92715743D02*
X172383577Y-92715743D01*
X172383577Y-92715743D02*
X172478815Y-92763362D01*
X172478815Y-92763362D02*
X172526434Y-92810981D01*
X172526434Y-92810981D02*
X172574053Y-92906219D01*
X171383577Y-92334791D02*
X171288339Y-92334791D01*
X171288339Y-92334791D02*
X171193101Y-92382410D01*
X171193101Y-92382410D02*
X171145482Y-92430029D01*
X171145482Y-92430029D02*
X171097863Y-92525267D01*
X171097863Y-92525267D02*
X171050244Y-92715743D01*
X171050244Y-92715743D02*
X171050244Y-92953838D01*
X171050244Y-92953838D02*
X171097863Y-93144314D01*
X171097863Y-93144314D02*
X171145482Y-93239552D01*
X171145482Y-93239552D02*
X171193101Y-93287172D01*
X171193101Y-93287172D02*
X171288339Y-93334791D01*
X171288339Y-93334791D02*
X171383577Y-93334791D01*
X171383577Y-93334791D02*
X171478815Y-93287172D01*
X171478815Y-93287172D02*
X171526434Y-93239552D01*
X171526434Y-93239552D02*
X171574053Y-93144314D01*
X171574053Y-93144314D02*
X171621672Y-92953838D01*
X171621672Y-92953838D02*
X171621672Y-92715743D01*
X171621672Y-92715743D02*
X171574053Y-92525267D01*
X171574053Y-92525267D02*
X171526434Y-92430029D01*
X171526434Y-92430029D02*
X171478815Y-92382410D01*
X171478815Y-92382410D02*
X171383577Y-92334791D01*
X175050244Y-93944735D02*
X174955006Y-93944735D01*
X174955006Y-93944735D02*
X174859768Y-93992354D01*
X174859768Y-93992354D02*
X174812149Y-94039973D01*
X174812149Y-94039973D02*
X174764530Y-94135211D01*
X174764530Y-94135211D02*
X174716911Y-94325687D01*
X174716911Y-94325687D02*
X174716911Y-94563782D01*
X174716911Y-94563782D02*
X174764530Y-94754258D01*
X174764530Y-94754258D02*
X174812149Y-94849496D01*
X174812149Y-94849496D02*
X174859768Y-94897116D01*
X174859768Y-94897116D02*
X174955006Y-94944735D01*
X174955006Y-94944735D02*
X175050244Y-94944735D01*
X175050244Y-94944735D02*
X175145482Y-94897116D01*
X175145482Y-94897116D02*
X175193101Y-94849496D01*
X175193101Y-94849496D02*
X175240720Y-94754258D01*
X175240720Y-94754258D02*
X175288339Y-94563782D01*
X175288339Y-94563782D02*
X175288339Y-94325687D01*
X175288339Y-94325687D02*
X175240720Y-94135211D01*
X175240720Y-94135211D02*
X175193101Y-94039973D01*
X175193101Y-94039973D02*
X175145482Y-93992354D01*
X175145482Y-93992354D02*
X175050244Y-93944735D01*
X174383577Y-94944735D02*
X173859768Y-94278068D01*
X174383577Y-94278068D02*
X173859768Y-94944735D01*
X173526434Y-94039973D02*
X173478815Y-93992354D01*
X173478815Y-93992354D02*
X173383577Y-93944735D01*
X173383577Y-93944735D02*
X173145482Y-93944735D01*
X173145482Y-93944735D02*
X173050244Y-93992354D01*
X173050244Y-93992354D02*
X173002625Y-94039973D01*
X173002625Y-94039973D02*
X172955006Y-94135211D01*
X172955006Y-94135211D02*
X172955006Y-94230449D01*
X172955006Y-94230449D02*
X173002625Y-94373306D01*
X173002625Y-94373306D02*
X173574053Y-94944735D01*
X173574053Y-94944735D02*
X172955006Y-94944735D01*
X172383577Y-94373306D02*
X172478815Y-94325687D01*
X172478815Y-94325687D02*
X172526434Y-94278068D01*
X172526434Y-94278068D02*
X172574053Y-94182830D01*
X172574053Y-94182830D02*
X172574053Y-94135211D01*
X172574053Y-94135211D02*
X172526434Y-94039973D01*
X172526434Y-94039973D02*
X172478815Y-93992354D01*
X172478815Y-93992354D02*
X172383577Y-93944735D01*
X172383577Y-93944735D02*
X172193101Y-93944735D01*
X172193101Y-93944735D02*
X172097863Y-93992354D01*
X172097863Y-93992354D02*
X172050244Y-94039973D01*
X172050244Y-94039973D02*
X172002625Y-94135211D01*
X172002625Y-94135211D02*
X172002625Y-94182830D01*
X172002625Y-94182830D02*
X172050244Y-94278068D01*
X172050244Y-94278068D02*
X172097863Y-94325687D01*
X172097863Y-94325687D02*
X172193101Y-94373306D01*
X172193101Y-94373306D02*
X172383577Y-94373306D01*
X172383577Y-94373306D02*
X172478815Y-94420925D01*
X172478815Y-94420925D02*
X172526434Y-94468544D01*
X172526434Y-94468544D02*
X172574053Y-94563782D01*
X172574053Y-94563782D02*
X172574053Y-94754258D01*
X172574053Y-94754258D02*
X172526434Y-94849496D01*
X172526434Y-94849496D02*
X172478815Y-94897116D01*
X172478815Y-94897116D02*
X172383577Y-94944735D01*
X172383577Y-94944735D02*
X172193101Y-94944735D01*
X172193101Y-94944735D02*
X172097863Y-94897116D01*
X172097863Y-94897116D02*
X172050244Y-94849496D01*
X172050244Y-94849496D02*
X172002625Y-94754258D01*
X172002625Y-94754258D02*
X172002625Y-94563782D01*
X172002625Y-94563782D02*
X172050244Y-94468544D01*
X172050244Y-94468544D02*
X172097863Y-94420925D01*
X172097863Y-94420925D02*
X172193101Y-94373306D01*
X171383577Y-93944735D02*
X171288339Y-93944735D01*
X171288339Y-93944735D02*
X171193101Y-93992354D01*
X171193101Y-93992354D02*
X171145482Y-94039973D01*
X171145482Y-94039973D02*
X171097863Y-94135211D01*
X171097863Y-94135211D02*
X171050244Y-94325687D01*
X171050244Y-94325687D02*
X171050244Y-94563782D01*
X171050244Y-94563782D02*
X171097863Y-94754258D01*
X171097863Y-94754258D02*
X171145482Y-94849496D01*
X171145482Y-94849496D02*
X171193101Y-94897116D01*
X171193101Y-94897116D02*
X171288339Y-94944735D01*
X171288339Y-94944735D02*
X171383577Y-94944735D01*
X171383577Y-94944735D02*
X171478815Y-94897116D01*
X171478815Y-94897116D02*
X171526434Y-94849496D01*
X171526434Y-94849496D02*
X171574053Y-94754258D01*
X171574053Y-94754258D02*
X171621672Y-94563782D01*
X171621672Y-94563782D02*
X171621672Y-94325687D01*
X171621672Y-94325687D02*
X171574053Y-94135211D01*
X171574053Y-94135211D02*
X171526434Y-94039973D01*
X171526434Y-94039973D02*
X171478815Y-93992354D01*
X171478815Y-93992354D02*
X171383577Y-93944735D01*
X175050244Y-95554679D02*
X174955006Y-95554679D01*
X174955006Y-95554679D02*
X174859768Y-95602298D01*
X174859768Y-95602298D02*
X174812149Y-95649917D01*
X174812149Y-95649917D02*
X174764530Y-95745155D01*
X174764530Y-95745155D02*
X174716911Y-95935631D01*
X174716911Y-95935631D02*
X174716911Y-96173726D01*
X174716911Y-96173726D02*
X174764530Y-96364202D01*
X174764530Y-96364202D02*
X174812149Y-96459440D01*
X174812149Y-96459440D02*
X174859768Y-96507060D01*
X174859768Y-96507060D02*
X174955006Y-96554679D01*
X174955006Y-96554679D02*
X175050244Y-96554679D01*
X175050244Y-96554679D02*
X175145482Y-96507060D01*
X175145482Y-96507060D02*
X175193101Y-96459440D01*
X175193101Y-96459440D02*
X175240720Y-96364202D01*
X175240720Y-96364202D02*
X175288339Y-96173726D01*
X175288339Y-96173726D02*
X175288339Y-95935631D01*
X175288339Y-95935631D02*
X175240720Y-95745155D01*
X175240720Y-95745155D02*
X175193101Y-95649917D01*
X175193101Y-95649917D02*
X175145482Y-95602298D01*
X175145482Y-95602298D02*
X175050244Y-95554679D01*
X174383577Y-96554679D02*
X173859768Y-95888012D01*
X174383577Y-95888012D02*
X173859768Y-96554679D01*
X173526434Y-95649917D02*
X173478815Y-95602298D01*
X173478815Y-95602298D02*
X173383577Y-95554679D01*
X173383577Y-95554679D02*
X173145482Y-95554679D01*
X173145482Y-95554679D02*
X173050244Y-95602298D01*
X173050244Y-95602298D02*
X173002625Y-95649917D01*
X173002625Y-95649917D02*
X172955006Y-95745155D01*
X172955006Y-95745155D02*
X172955006Y-95840393D01*
X172955006Y-95840393D02*
X173002625Y-95983250D01*
X173002625Y-95983250D02*
X173574053Y-96554679D01*
X173574053Y-96554679D02*
X172955006Y-96554679D01*
X172574053Y-96268964D02*
X172097863Y-96268964D01*
X172669291Y-96554679D02*
X172335958Y-95554679D01*
X172335958Y-95554679D02*
X172002625Y-96554679D01*
X171478815Y-95554679D02*
X171383577Y-95554679D01*
X171383577Y-95554679D02*
X171288339Y-95602298D01*
X171288339Y-95602298D02*
X171240720Y-95649917D01*
X171240720Y-95649917D02*
X171193101Y-95745155D01*
X171193101Y-95745155D02*
X171145482Y-95935631D01*
X171145482Y-95935631D02*
X171145482Y-96173726D01*
X171145482Y-96173726D02*
X171193101Y-96364202D01*
X171193101Y-96364202D02*
X171240720Y-96459440D01*
X171240720Y-96459440D02*
X171288339Y-96507060D01*
X171288339Y-96507060D02*
X171383577Y-96554679D01*
X171383577Y-96554679D02*
X171478815Y-96554679D01*
X171478815Y-96554679D02*
X171574053Y-96507060D01*
X171574053Y-96507060D02*
X171621672Y-96459440D01*
X171621672Y-96459440D02*
X171669291Y-96364202D01*
X171669291Y-96364202D02*
X171716910Y-96173726D01*
X171716910Y-96173726D02*
X171716910Y-95935631D01*
X171716910Y-95935631D02*
X171669291Y-95745155D01*
X171669291Y-95745155D02*
X171621672Y-95649917D01*
X171621672Y-95649917D02*
X171574053Y-95602298D01*
X171574053Y-95602298D02*
X171478815Y-95554679D01*
X175050244Y-97164623D02*
X174955006Y-97164623D01*
X174955006Y-97164623D02*
X174859768Y-97212242D01*
X174859768Y-97212242D02*
X174812149Y-97259861D01*
X174812149Y-97259861D02*
X174764530Y-97355099D01*
X174764530Y-97355099D02*
X174716911Y-97545575D01*
X174716911Y-97545575D02*
X174716911Y-97783670D01*
X174716911Y-97783670D02*
X174764530Y-97974146D01*
X174764530Y-97974146D02*
X174812149Y-98069384D01*
X174812149Y-98069384D02*
X174859768Y-98117004D01*
X174859768Y-98117004D02*
X174955006Y-98164623D01*
X174955006Y-98164623D02*
X175050244Y-98164623D01*
X175050244Y-98164623D02*
X175145482Y-98117004D01*
X175145482Y-98117004D02*
X175193101Y-98069384D01*
X175193101Y-98069384D02*
X175240720Y-97974146D01*
X175240720Y-97974146D02*
X175288339Y-97783670D01*
X175288339Y-97783670D02*
X175288339Y-97545575D01*
X175288339Y-97545575D02*
X175240720Y-97355099D01*
X175240720Y-97355099D02*
X175193101Y-97259861D01*
X175193101Y-97259861D02*
X175145482Y-97212242D01*
X175145482Y-97212242D02*
X175050244Y-97164623D01*
X174383577Y-98164623D02*
X173859768Y-97497956D01*
X174383577Y-97497956D02*
X173859768Y-98164623D01*
X173526434Y-97259861D02*
X173478815Y-97212242D01*
X173478815Y-97212242D02*
X173383577Y-97164623D01*
X173383577Y-97164623D02*
X173145482Y-97164623D01*
X173145482Y-97164623D02*
X173050244Y-97212242D01*
X173050244Y-97212242D02*
X173002625Y-97259861D01*
X173002625Y-97259861D02*
X172955006Y-97355099D01*
X172955006Y-97355099D02*
X172955006Y-97450337D01*
X172955006Y-97450337D02*
X173002625Y-97593194D01*
X173002625Y-97593194D02*
X173574053Y-98164623D01*
X173574053Y-98164623D02*
X172955006Y-98164623D01*
X171955006Y-98069384D02*
X172002625Y-98117004D01*
X172002625Y-98117004D02*
X172145482Y-98164623D01*
X172145482Y-98164623D02*
X172240720Y-98164623D01*
X172240720Y-98164623D02*
X172383577Y-98117004D01*
X172383577Y-98117004D02*
X172478815Y-98021765D01*
X172478815Y-98021765D02*
X172526434Y-97926527D01*
X172526434Y-97926527D02*
X172574053Y-97736051D01*
X172574053Y-97736051D02*
X172574053Y-97593194D01*
X172574053Y-97593194D02*
X172526434Y-97402718D01*
X172526434Y-97402718D02*
X172478815Y-97307480D01*
X172478815Y-97307480D02*
X172383577Y-97212242D01*
X172383577Y-97212242D02*
X172240720Y-97164623D01*
X172240720Y-97164623D02*
X172145482Y-97164623D01*
X172145482Y-97164623D02*
X172002625Y-97212242D01*
X172002625Y-97212242D02*
X171955006Y-97259861D01*
X171335958Y-97164623D02*
X171240720Y-97164623D01*
X171240720Y-97164623D02*
X171145482Y-97212242D01*
X171145482Y-97212242D02*
X171097863Y-97259861D01*
X171097863Y-97259861D02*
X171050244Y-97355099D01*
X171050244Y-97355099D02*
X171002625Y-97545575D01*
X171002625Y-97545575D02*
X171002625Y-97783670D01*
X171002625Y-97783670D02*
X171050244Y-97974146D01*
X171050244Y-97974146D02*
X171097863Y-98069384D01*
X171097863Y-98069384D02*
X171145482Y-98117004D01*
X171145482Y-98117004D02*
X171240720Y-98164623D01*
X171240720Y-98164623D02*
X171335958Y-98164623D01*
X171335958Y-98164623D02*
X171431196Y-98117004D01*
X171431196Y-98117004D02*
X171478815Y-98069384D01*
X171478815Y-98069384D02*
X171526434Y-97974146D01*
X171526434Y-97974146D02*
X171574053Y-97783670D01*
X171574053Y-97783670D02*
X171574053Y-97545575D01*
X171574053Y-97545575D02*
X171526434Y-97355099D01*
X171526434Y-97355099D02*
X171478815Y-97259861D01*
X171478815Y-97259861D02*
X171431196Y-97212242D01*
X171431196Y-97212242D02*
X171335958Y-97164623D01*
X175050244Y-98774567D02*
X174955006Y-98774567D01*
X174955006Y-98774567D02*
X174859768Y-98822186D01*
X174859768Y-98822186D02*
X174812149Y-98869805D01*
X174812149Y-98869805D02*
X174764530Y-98965043D01*
X174764530Y-98965043D02*
X174716911Y-99155519D01*
X174716911Y-99155519D02*
X174716911Y-99393614D01*
X174716911Y-99393614D02*
X174764530Y-99584090D01*
X174764530Y-99584090D02*
X174812149Y-99679328D01*
X174812149Y-99679328D02*
X174859768Y-99726948D01*
X174859768Y-99726948D02*
X174955006Y-99774567D01*
X174955006Y-99774567D02*
X175050244Y-99774567D01*
X175050244Y-99774567D02*
X175145482Y-99726948D01*
X175145482Y-99726948D02*
X175193101Y-99679328D01*
X175193101Y-99679328D02*
X175240720Y-99584090D01*
X175240720Y-99584090D02*
X175288339Y-99393614D01*
X175288339Y-99393614D02*
X175288339Y-99155519D01*
X175288339Y-99155519D02*
X175240720Y-98965043D01*
X175240720Y-98965043D02*
X175193101Y-98869805D01*
X175193101Y-98869805D02*
X175145482Y-98822186D01*
X175145482Y-98822186D02*
X175050244Y-98774567D01*
X174383577Y-99774567D02*
X173859768Y-99107900D01*
X174383577Y-99107900D02*
X173859768Y-99774567D01*
X173526434Y-98869805D02*
X173478815Y-98822186D01*
X173478815Y-98822186D02*
X173383577Y-98774567D01*
X173383577Y-98774567D02*
X173145482Y-98774567D01*
X173145482Y-98774567D02*
X173050244Y-98822186D01*
X173050244Y-98822186D02*
X173002625Y-98869805D01*
X173002625Y-98869805D02*
X172955006Y-98965043D01*
X172955006Y-98965043D02*
X172955006Y-99060281D01*
X172955006Y-99060281D02*
X173002625Y-99203138D01*
X173002625Y-99203138D02*
X173574053Y-99774567D01*
X173574053Y-99774567D02*
X172955006Y-99774567D01*
X172526434Y-99250757D02*
X172193101Y-99250757D01*
X172050244Y-99774567D02*
X172526434Y-99774567D01*
X172526434Y-99774567D02*
X172526434Y-98774567D01*
X172526434Y-98774567D02*
X172050244Y-98774567D01*
X171431196Y-98774567D02*
X171335958Y-98774567D01*
X171335958Y-98774567D02*
X171240720Y-98822186D01*
X171240720Y-98822186D02*
X171193101Y-98869805D01*
X171193101Y-98869805D02*
X171145482Y-98965043D01*
X171145482Y-98965043D02*
X171097863Y-99155519D01*
X171097863Y-99155519D02*
X171097863Y-99393614D01*
X171097863Y-99393614D02*
X171145482Y-99584090D01*
X171145482Y-99584090D02*
X171193101Y-99679328D01*
X171193101Y-99679328D02*
X171240720Y-99726948D01*
X171240720Y-99726948D02*
X171335958Y-99774567D01*
X171335958Y-99774567D02*
X171431196Y-99774567D01*
X171431196Y-99774567D02*
X171526434Y-99726948D01*
X171526434Y-99726948D02*
X171574053Y-99679328D01*
X171574053Y-99679328D02*
X171621672Y-99584090D01*
X171621672Y-99584090D02*
X171669291Y-99393614D01*
X171669291Y-99393614D02*
X171669291Y-99155519D01*
X171669291Y-99155519D02*
X171621672Y-98965043D01*
X171621672Y-98965043D02*
X171574053Y-98869805D01*
X171574053Y-98869805D02*
X171526434Y-98822186D01*
X171526434Y-98822186D02*
X171431196Y-98774567D01*
X165128339Y-85237452D02*
X164985482Y-85285071D01*
X164985482Y-85285071D02*
X164747387Y-85285071D01*
X164747387Y-85285071D02*
X164652149Y-85237452D01*
X164652149Y-85237452D02*
X164604530Y-85189832D01*
X164604530Y-85189832D02*
X164556911Y-85094594D01*
X164556911Y-85094594D02*
X164556911Y-84999356D01*
X164556911Y-84999356D02*
X164604530Y-84904118D01*
X164604530Y-84904118D02*
X164652149Y-84856499D01*
X164652149Y-84856499D02*
X164747387Y-84808880D01*
X164747387Y-84808880D02*
X164937863Y-84761261D01*
X164937863Y-84761261D02*
X165033101Y-84713642D01*
X165033101Y-84713642D02*
X165080720Y-84666023D01*
X165080720Y-84666023D02*
X165128339Y-84570785D01*
X165128339Y-84570785D02*
X165128339Y-84475547D01*
X165128339Y-84475547D02*
X165080720Y-84380309D01*
X165080720Y-84380309D02*
X165033101Y-84332690D01*
X165033101Y-84332690D02*
X164937863Y-84285071D01*
X164937863Y-84285071D02*
X164699768Y-84285071D01*
X164699768Y-84285071D02*
X164556911Y-84332690D01*
X164223577Y-84285071D02*
X163985482Y-85285071D01*
X163985482Y-85285071D02*
X163795006Y-84570785D01*
X163795006Y-84570785D02*
X163604530Y-85285071D01*
X163604530Y-85285071D02*
X163366435Y-84285071D01*
X163080720Y-84285071D02*
X162461673Y-84285071D01*
X162461673Y-84285071D02*
X162795006Y-84666023D01*
X162795006Y-84666023D02*
X162652149Y-84666023D01*
X162652149Y-84666023D02*
X162556911Y-84713642D01*
X162556911Y-84713642D02*
X162509292Y-84761261D01*
X162509292Y-84761261D02*
X162461673Y-84856499D01*
X162461673Y-84856499D02*
X162461673Y-85094594D01*
X162461673Y-85094594D02*
X162509292Y-85189832D01*
X162509292Y-85189832D02*
X162556911Y-85237452D01*
X162556911Y-85237452D02*
X162652149Y-85285071D01*
X162652149Y-85285071D02*
X162937863Y-85285071D01*
X162937863Y-85285071D02*
X163033101Y-85237452D01*
X163033101Y-85237452D02*
X163080720Y-85189832D01*
X162033101Y-85189832D02*
X161985482Y-85237452D01*
X161985482Y-85237452D02*
X162033101Y-85285071D01*
X162033101Y-85285071D02*
X162080720Y-85237452D01*
X162080720Y-85237452D02*
X162033101Y-85189832D01*
X162033101Y-85189832D02*
X162033101Y-85285071D01*
X161033102Y-85285071D02*
X161604530Y-85285071D01*
X161318816Y-85285071D02*
X161318816Y-84285071D01*
X161318816Y-84285071D02*
X161414054Y-84427928D01*
X161414054Y-84427928D02*
X161509292Y-84523166D01*
X161509292Y-84523166D02*
X161604530Y-84570785D01*
X164890244Y-87504959D02*
X164699768Y-87504959D01*
X164699768Y-87504959D02*
X164604530Y-87552578D01*
X164604530Y-87552578D02*
X164509292Y-87647816D01*
X164509292Y-87647816D02*
X164461673Y-87838292D01*
X164461673Y-87838292D02*
X164461673Y-88171625D01*
X164461673Y-88171625D02*
X164509292Y-88362101D01*
X164509292Y-88362101D02*
X164604530Y-88457340D01*
X164604530Y-88457340D02*
X164699768Y-88504959D01*
X164699768Y-88504959D02*
X164890244Y-88504959D01*
X164890244Y-88504959D02*
X164985482Y-88457340D01*
X164985482Y-88457340D02*
X165080720Y-88362101D01*
X165080720Y-88362101D02*
X165128339Y-88171625D01*
X165128339Y-88171625D02*
X165128339Y-87838292D01*
X165128339Y-87838292D02*
X165080720Y-87647816D01*
X165080720Y-87647816D02*
X164985482Y-87552578D01*
X164985482Y-87552578D02*
X164890244Y-87504959D01*
X163699768Y-87981149D02*
X164033101Y-87981149D01*
X164033101Y-88504959D02*
X164033101Y-87504959D01*
X164033101Y-87504959D02*
X163556911Y-87504959D01*
X162842625Y-87981149D02*
X163175958Y-87981149D01*
X163175958Y-88504959D02*
X163175958Y-87504959D01*
X163175958Y-87504959D02*
X162699768Y-87504959D01*
X164890244Y-89114903D02*
X164699768Y-89114903D01*
X164699768Y-89114903D02*
X164604530Y-89162522D01*
X164604530Y-89162522D02*
X164509292Y-89257760D01*
X164509292Y-89257760D02*
X164461673Y-89448236D01*
X164461673Y-89448236D02*
X164461673Y-89781569D01*
X164461673Y-89781569D02*
X164509292Y-89972045D01*
X164509292Y-89972045D02*
X164604530Y-90067284D01*
X164604530Y-90067284D02*
X164699768Y-90114903D01*
X164699768Y-90114903D02*
X164890244Y-90114903D01*
X164890244Y-90114903D02*
X164985482Y-90067284D01*
X164985482Y-90067284D02*
X165080720Y-89972045D01*
X165080720Y-89972045D02*
X165128339Y-89781569D01*
X165128339Y-89781569D02*
X165128339Y-89448236D01*
X165128339Y-89448236D02*
X165080720Y-89257760D01*
X165080720Y-89257760D02*
X164985482Y-89162522D01*
X164985482Y-89162522D02*
X164890244Y-89114903D01*
X164033101Y-90114903D02*
X164033101Y-89114903D01*
X164033101Y-89114903D02*
X163461673Y-90114903D01*
X163461673Y-90114903D02*
X163461673Y-89114903D01*
X164890244Y-90724847D02*
X164699768Y-90724847D01*
X164699768Y-90724847D02*
X164604530Y-90772466D01*
X164604530Y-90772466D02*
X164509292Y-90867704D01*
X164509292Y-90867704D02*
X164461673Y-91058180D01*
X164461673Y-91058180D02*
X164461673Y-91391513D01*
X164461673Y-91391513D02*
X164509292Y-91581989D01*
X164509292Y-91581989D02*
X164604530Y-91677228D01*
X164604530Y-91677228D02*
X164699768Y-91724847D01*
X164699768Y-91724847D02*
X164890244Y-91724847D01*
X164890244Y-91724847D02*
X164985482Y-91677228D01*
X164985482Y-91677228D02*
X165080720Y-91581989D01*
X165080720Y-91581989D02*
X165128339Y-91391513D01*
X165128339Y-91391513D02*
X165128339Y-91058180D01*
X165128339Y-91058180D02*
X165080720Y-90867704D01*
X165080720Y-90867704D02*
X164985482Y-90772466D01*
X164985482Y-90772466D02*
X164890244Y-90724847D01*
X163699768Y-91201037D02*
X164033101Y-91201037D01*
X164033101Y-91724847D02*
X164033101Y-90724847D01*
X164033101Y-90724847D02*
X163556911Y-90724847D01*
X162842625Y-91201037D02*
X163175958Y-91201037D01*
X163175958Y-91724847D02*
X163175958Y-90724847D01*
X163175958Y-90724847D02*
X162699768Y-90724847D01*
X164890244Y-92334791D02*
X164699768Y-92334791D01*
X164699768Y-92334791D02*
X164604530Y-92382410D01*
X164604530Y-92382410D02*
X164509292Y-92477648D01*
X164509292Y-92477648D02*
X164461673Y-92668124D01*
X164461673Y-92668124D02*
X164461673Y-93001457D01*
X164461673Y-93001457D02*
X164509292Y-93191933D01*
X164509292Y-93191933D02*
X164604530Y-93287172D01*
X164604530Y-93287172D02*
X164699768Y-93334791D01*
X164699768Y-93334791D02*
X164890244Y-93334791D01*
X164890244Y-93334791D02*
X164985482Y-93287172D01*
X164985482Y-93287172D02*
X165080720Y-93191933D01*
X165080720Y-93191933D02*
X165128339Y-93001457D01*
X165128339Y-93001457D02*
X165128339Y-92668124D01*
X165128339Y-92668124D02*
X165080720Y-92477648D01*
X165080720Y-92477648D02*
X164985482Y-92382410D01*
X164985482Y-92382410D02*
X164890244Y-92334791D01*
X164033101Y-93334791D02*
X164033101Y-92334791D01*
X164033101Y-92334791D02*
X163461673Y-93334791D01*
X163461673Y-93334791D02*
X163461673Y-92334791D01*
X164890244Y-93944735D02*
X164699768Y-93944735D01*
X164699768Y-93944735D02*
X164604530Y-93992354D01*
X164604530Y-93992354D02*
X164509292Y-94087592D01*
X164509292Y-94087592D02*
X164461673Y-94278068D01*
X164461673Y-94278068D02*
X164461673Y-94611401D01*
X164461673Y-94611401D02*
X164509292Y-94801877D01*
X164509292Y-94801877D02*
X164604530Y-94897116D01*
X164604530Y-94897116D02*
X164699768Y-94944735D01*
X164699768Y-94944735D02*
X164890244Y-94944735D01*
X164890244Y-94944735D02*
X164985482Y-94897116D01*
X164985482Y-94897116D02*
X165080720Y-94801877D01*
X165080720Y-94801877D02*
X165128339Y-94611401D01*
X165128339Y-94611401D02*
X165128339Y-94278068D01*
X165128339Y-94278068D02*
X165080720Y-94087592D01*
X165080720Y-94087592D02*
X164985482Y-93992354D01*
X164985482Y-93992354D02*
X164890244Y-93944735D01*
X163699768Y-94420925D02*
X164033101Y-94420925D01*
X164033101Y-94944735D02*
X164033101Y-93944735D01*
X164033101Y-93944735D02*
X163556911Y-93944735D01*
X162842625Y-94420925D02*
X163175958Y-94420925D01*
X163175958Y-94944735D02*
X163175958Y-93944735D01*
X163175958Y-93944735D02*
X162699768Y-93944735D01*
X164890244Y-95554679D02*
X164699768Y-95554679D01*
X164699768Y-95554679D02*
X164604530Y-95602298D01*
X164604530Y-95602298D02*
X164509292Y-95697536D01*
X164509292Y-95697536D02*
X164461673Y-95888012D01*
X164461673Y-95888012D02*
X164461673Y-96221345D01*
X164461673Y-96221345D02*
X164509292Y-96411821D01*
X164509292Y-96411821D02*
X164604530Y-96507060D01*
X164604530Y-96507060D02*
X164699768Y-96554679D01*
X164699768Y-96554679D02*
X164890244Y-96554679D01*
X164890244Y-96554679D02*
X164985482Y-96507060D01*
X164985482Y-96507060D02*
X165080720Y-96411821D01*
X165080720Y-96411821D02*
X165128339Y-96221345D01*
X165128339Y-96221345D02*
X165128339Y-95888012D01*
X165128339Y-95888012D02*
X165080720Y-95697536D01*
X165080720Y-95697536D02*
X164985482Y-95602298D01*
X164985482Y-95602298D02*
X164890244Y-95554679D01*
X164033101Y-96554679D02*
X164033101Y-95554679D01*
X164033101Y-95554679D02*
X163461673Y-96554679D01*
X163461673Y-96554679D02*
X163461673Y-95554679D01*
X164890244Y-97164623D02*
X164699768Y-97164623D01*
X164699768Y-97164623D02*
X164604530Y-97212242D01*
X164604530Y-97212242D02*
X164509292Y-97307480D01*
X164509292Y-97307480D02*
X164461673Y-97497956D01*
X164461673Y-97497956D02*
X164461673Y-97831289D01*
X164461673Y-97831289D02*
X164509292Y-98021765D01*
X164509292Y-98021765D02*
X164604530Y-98117004D01*
X164604530Y-98117004D02*
X164699768Y-98164623D01*
X164699768Y-98164623D02*
X164890244Y-98164623D01*
X164890244Y-98164623D02*
X164985482Y-98117004D01*
X164985482Y-98117004D02*
X165080720Y-98021765D01*
X165080720Y-98021765D02*
X165128339Y-97831289D01*
X165128339Y-97831289D02*
X165128339Y-97497956D01*
X165128339Y-97497956D02*
X165080720Y-97307480D01*
X165080720Y-97307480D02*
X164985482Y-97212242D01*
X164985482Y-97212242D02*
X164890244Y-97164623D01*
X163699768Y-97640813D02*
X164033101Y-97640813D01*
X164033101Y-98164623D02*
X164033101Y-97164623D01*
X164033101Y-97164623D02*
X163556911Y-97164623D01*
X162842625Y-97640813D02*
X163175958Y-97640813D01*
X163175958Y-98164623D02*
X163175958Y-97164623D01*
X163175958Y-97164623D02*
X162699768Y-97164623D01*
X164890244Y-98774567D02*
X164699768Y-98774567D01*
X164699768Y-98774567D02*
X164604530Y-98822186D01*
X164604530Y-98822186D02*
X164509292Y-98917424D01*
X164509292Y-98917424D02*
X164461673Y-99107900D01*
X164461673Y-99107900D02*
X164461673Y-99441233D01*
X164461673Y-99441233D02*
X164509292Y-99631709D01*
X164509292Y-99631709D02*
X164604530Y-99726948D01*
X164604530Y-99726948D02*
X164699768Y-99774567D01*
X164699768Y-99774567D02*
X164890244Y-99774567D01*
X164890244Y-99774567D02*
X164985482Y-99726948D01*
X164985482Y-99726948D02*
X165080720Y-99631709D01*
X165080720Y-99631709D02*
X165128339Y-99441233D01*
X165128339Y-99441233D02*
X165128339Y-99107900D01*
X165128339Y-99107900D02*
X165080720Y-98917424D01*
X165080720Y-98917424D02*
X164985482Y-98822186D01*
X164985482Y-98822186D02*
X164890244Y-98774567D01*
X164033101Y-99774567D02*
X164033101Y-98774567D01*
X164033101Y-98774567D02*
X163461673Y-99774567D01*
X163461673Y-99774567D02*
X163461673Y-98774567D01*
X139124470Y-103109959D02*
X139124470Y-102109959D01*
X138076852Y-103109959D02*
X138410185Y-102633768D01*
X138648280Y-103109959D02*
X138648280Y-102109959D01*
X138648280Y-102109959D02*
X138267328Y-102109959D01*
X138267328Y-102109959D02*
X138172090Y-102157578D01*
X138172090Y-102157578D02*
X138124471Y-102205197D01*
X138124471Y-102205197D02*
X138076852Y-102300435D01*
X138076852Y-102300435D02*
X138076852Y-102443292D01*
X138076852Y-102443292D02*
X138124471Y-102538530D01*
X138124471Y-102538530D02*
X138172090Y-102586149D01*
X138172090Y-102586149D02*
X138267328Y-102633768D01*
X138267328Y-102633768D02*
X138648280Y-102633768D01*
X136981614Y-103205197D02*
X137076852Y-103157578D01*
X137076852Y-103157578D02*
X137172090Y-103062340D01*
X137172090Y-103062340D02*
X137314947Y-102919482D01*
X137314947Y-102919482D02*
X137410185Y-102871863D01*
X137410185Y-102871863D02*
X137505423Y-102871863D01*
X137457804Y-103109959D02*
X137553042Y-103062340D01*
X137553042Y-103062340D02*
X137648280Y-102967101D01*
X137648280Y-102967101D02*
X137695899Y-102776625D01*
X137695899Y-102776625D02*
X137695899Y-102443292D01*
X137695899Y-102443292D02*
X137648280Y-102252816D01*
X137648280Y-102252816D02*
X137553042Y-102157578D01*
X137553042Y-102157578D02*
X137457804Y-102109959D01*
X137457804Y-102109959D02*
X137267328Y-102109959D01*
X137267328Y-102109959D02*
X137172090Y-102157578D01*
X137172090Y-102157578D02*
X137076852Y-102252816D01*
X137076852Y-102252816D02*
X137029233Y-102443292D01*
X137029233Y-102443292D02*
X137029233Y-102776625D01*
X137029233Y-102776625D02*
X137076852Y-102967101D01*
X137076852Y-102967101D02*
X137172090Y-103062340D01*
X137172090Y-103062340D02*
X137267328Y-103109959D01*
X137267328Y-103109959D02*
X137457804Y-103109959D01*
X139124470Y-106329847D02*
X139124470Y-105329847D01*
X138076852Y-106329847D02*
X138410185Y-105853656D01*
X138648280Y-106329847D02*
X138648280Y-105329847D01*
X138648280Y-105329847D02*
X138267328Y-105329847D01*
X138267328Y-105329847D02*
X138172090Y-105377466D01*
X138172090Y-105377466D02*
X138124471Y-105425085D01*
X138124471Y-105425085D02*
X138076852Y-105520323D01*
X138076852Y-105520323D02*
X138076852Y-105663180D01*
X138076852Y-105663180D02*
X138124471Y-105758418D01*
X138124471Y-105758418D02*
X138172090Y-105806037D01*
X138172090Y-105806037D02*
X138267328Y-105853656D01*
X138267328Y-105853656D02*
X138648280Y-105853656D01*
X136981614Y-106425085D02*
X137076852Y-106377466D01*
X137076852Y-106377466D02*
X137172090Y-106282228D01*
X137172090Y-106282228D02*
X137314947Y-106139370D01*
X137314947Y-106139370D02*
X137410185Y-106091751D01*
X137410185Y-106091751D02*
X137505423Y-106091751D01*
X137457804Y-106329847D02*
X137553042Y-106282228D01*
X137553042Y-106282228D02*
X137648280Y-106186989D01*
X137648280Y-106186989D02*
X137695899Y-105996513D01*
X137695899Y-105996513D02*
X137695899Y-105663180D01*
X137695899Y-105663180D02*
X137648280Y-105472704D01*
X137648280Y-105472704D02*
X137553042Y-105377466D01*
X137553042Y-105377466D02*
X137457804Y-105329847D01*
X137457804Y-105329847D02*
X137267328Y-105329847D01*
X137267328Y-105329847D02*
X137172090Y-105377466D01*
X137172090Y-105377466D02*
X137076852Y-105472704D01*
X137076852Y-105472704D02*
X137029233Y-105663180D01*
X137029233Y-105663180D02*
X137029233Y-105996513D01*
X137029233Y-105996513D02*
X137076852Y-106186989D01*
X137076852Y-106186989D02*
X137172090Y-106282228D01*
X137172090Y-106282228D02*
X137267328Y-106329847D01*
X137267328Y-106329847D02*
X137457804Y-106329847D01*
X136648280Y-105425085D02*
X136600661Y-105377466D01*
X136600661Y-105377466D02*
X136505423Y-105329847D01*
X136505423Y-105329847D02*
X136267328Y-105329847D01*
X136267328Y-105329847D02*
X136172090Y-105377466D01*
X136172090Y-105377466D02*
X136124471Y-105425085D01*
X136124471Y-105425085D02*
X136076852Y-105520323D01*
X136076852Y-105520323D02*
X136076852Y-105615561D01*
X136076852Y-105615561D02*
X136124471Y-105758418D01*
X136124471Y-105758418D02*
X136695899Y-106329847D01*
X136695899Y-106329847D02*
X136076852Y-106329847D01*
X139124470Y-107939791D02*
X139124470Y-106939791D01*
X138076852Y-107939791D02*
X138410185Y-107463600D01*
X138648280Y-107939791D02*
X138648280Y-106939791D01*
X138648280Y-106939791D02*
X138267328Y-106939791D01*
X138267328Y-106939791D02*
X138172090Y-106987410D01*
X138172090Y-106987410D02*
X138124471Y-107035029D01*
X138124471Y-107035029D02*
X138076852Y-107130267D01*
X138076852Y-107130267D02*
X138076852Y-107273124D01*
X138076852Y-107273124D02*
X138124471Y-107368362D01*
X138124471Y-107368362D02*
X138172090Y-107415981D01*
X138172090Y-107415981D02*
X138267328Y-107463600D01*
X138267328Y-107463600D02*
X138648280Y-107463600D01*
X136981614Y-108035029D02*
X137076852Y-107987410D01*
X137076852Y-107987410D02*
X137172090Y-107892172D01*
X137172090Y-107892172D02*
X137314947Y-107749314D01*
X137314947Y-107749314D02*
X137410185Y-107701695D01*
X137410185Y-107701695D02*
X137505423Y-107701695D01*
X137457804Y-107939791D02*
X137553042Y-107892172D01*
X137553042Y-107892172D02*
X137648280Y-107796933D01*
X137648280Y-107796933D02*
X137695899Y-107606457D01*
X137695899Y-107606457D02*
X137695899Y-107273124D01*
X137695899Y-107273124D02*
X137648280Y-107082648D01*
X137648280Y-107082648D02*
X137553042Y-106987410D01*
X137553042Y-106987410D02*
X137457804Y-106939791D01*
X137457804Y-106939791D02*
X137267328Y-106939791D01*
X137267328Y-106939791D02*
X137172090Y-106987410D01*
X137172090Y-106987410D02*
X137076852Y-107082648D01*
X137076852Y-107082648D02*
X137029233Y-107273124D01*
X137029233Y-107273124D02*
X137029233Y-107606457D01*
X137029233Y-107606457D02*
X137076852Y-107796933D01*
X137076852Y-107796933D02*
X137172090Y-107892172D01*
X137172090Y-107892172D02*
X137267328Y-107939791D01*
X137267328Y-107939791D02*
X137457804Y-107939791D01*
X136695899Y-106939791D02*
X136076852Y-106939791D01*
X136076852Y-106939791D02*
X136410185Y-107320743D01*
X136410185Y-107320743D02*
X136267328Y-107320743D01*
X136267328Y-107320743D02*
X136172090Y-107368362D01*
X136172090Y-107368362D02*
X136124471Y-107415981D01*
X136124471Y-107415981D02*
X136076852Y-107511219D01*
X136076852Y-107511219D02*
X136076852Y-107749314D01*
X136076852Y-107749314D02*
X136124471Y-107844552D01*
X136124471Y-107844552D02*
X136172090Y-107892172D01*
X136172090Y-107892172D02*
X136267328Y-107939791D01*
X136267328Y-107939791D02*
X136553042Y-107939791D01*
X136553042Y-107939791D02*
X136648280Y-107892172D01*
X136648280Y-107892172D02*
X136695899Y-107844552D01*
X139124470Y-109549735D02*
X139124470Y-108549735D01*
X138076852Y-109549735D02*
X138410185Y-109073544D01*
X138648280Y-109549735D02*
X138648280Y-108549735D01*
X138648280Y-108549735D02*
X138267328Y-108549735D01*
X138267328Y-108549735D02*
X138172090Y-108597354D01*
X138172090Y-108597354D02*
X138124471Y-108644973D01*
X138124471Y-108644973D02*
X138076852Y-108740211D01*
X138076852Y-108740211D02*
X138076852Y-108883068D01*
X138076852Y-108883068D02*
X138124471Y-108978306D01*
X138124471Y-108978306D02*
X138172090Y-109025925D01*
X138172090Y-109025925D02*
X138267328Y-109073544D01*
X138267328Y-109073544D02*
X138648280Y-109073544D01*
X136981614Y-109644973D02*
X137076852Y-109597354D01*
X137076852Y-109597354D02*
X137172090Y-109502116D01*
X137172090Y-109502116D02*
X137314947Y-109359258D01*
X137314947Y-109359258D02*
X137410185Y-109311639D01*
X137410185Y-109311639D02*
X137505423Y-109311639D01*
X137457804Y-109549735D02*
X137553042Y-109502116D01*
X137553042Y-109502116D02*
X137648280Y-109406877D01*
X137648280Y-109406877D02*
X137695899Y-109216401D01*
X137695899Y-109216401D02*
X137695899Y-108883068D01*
X137695899Y-108883068D02*
X137648280Y-108692592D01*
X137648280Y-108692592D02*
X137553042Y-108597354D01*
X137553042Y-108597354D02*
X137457804Y-108549735D01*
X137457804Y-108549735D02*
X137267328Y-108549735D01*
X137267328Y-108549735D02*
X137172090Y-108597354D01*
X137172090Y-108597354D02*
X137076852Y-108692592D01*
X137076852Y-108692592D02*
X137029233Y-108883068D01*
X137029233Y-108883068D02*
X137029233Y-109216401D01*
X137029233Y-109216401D02*
X137076852Y-109406877D01*
X137076852Y-109406877D02*
X137172090Y-109502116D01*
X137172090Y-109502116D02*
X137267328Y-109549735D01*
X137267328Y-109549735D02*
X137457804Y-109549735D01*
X136172090Y-108883068D02*
X136172090Y-109549735D01*
X136410185Y-108502116D02*
X136648280Y-109216401D01*
X136648280Y-109216401D02*
X136029233Y-109216401D01*
X139124470Y-111159679D02*
X139124470Y-110159679D01*
X138076852Y-111159679D02*
X138410185Y-110683488D01*
X138648280Y-111159679D02*
X138648280Y-110159679D01*
X138648280Y-110159679D02*
X138267328Y-110159679D01*
X138267328Y-110159679D02*
X138172090Y-110207298D01*
X138172090Y-110207298D02*
X138124471Y-110254917D01*
X138124471Y-110254917D02*
X138076852Y-110350155D01*
X138076852Y-110350155D02*
X138076852Y-110493012D01*
X138076852Y-110493012D02*
X138124471Y-110588250D01*
X138124471Y-110588250D02*
X138172090Y-110635869D01*
X138172090Y-110635869D02*
X138267328Y-110683488D01*
X138267328Y-110683488D02*
X138648280Y-110683488D01*
X136981614Y-111254917D02*
X137076852Y-111207298D01*
X137076852Y-111207298D02*
X137172090Y-111112060D01*
X137172090Y-111112060D02*
X137314947Y-110969202D01*
X137314947Y-110969202D02*
X137410185Y-110921583D01*
X137410185Y-110921583D02*
X137505423Y-110921583D01*
X137457804Y-111159679D02*
X137553042Y-111112060D01*
X137553042Y-111112060D02*
X137648280Y-111016821D01*
X137648280Y-111016821D02*
X137695899Y-110826345D01*
X137695899Y-110826345D02*
X137695899Y-110493012D01*
X137695899Y-110493012D02*
X137648280Y-110302536D01*
X137648280Y-110302536D02*
X137553042Y-110207298D01*
X137553042Y-110207298D02*
X137457804Y-110159679D01*
X137457804Y-110159679D02*
X137267328Y-110159679D01*
X137267328Y-110159679D02*
X137172090Y-110207298D01*
X137172090Y-110207298D02*
X137076852Y-110302536D01*
X137076852Y-110302536D02*
X137029233Y-110493012D01*
X137029233Y-110493012D02*
X137029233Y-110826345D01*
X137029233Y-110826345D02*
X137076852Y-111016821D01*
X137076852Y-111016821D02*
X137172090Y-111112060D01*
X137172090Y-111112060D02*
X137267328Y-111159679D01*
X137267328Y-111159679D02*
X137457804Y-111159679D01*
X136124471Y-110159679D02*
X136600661Y-110159679D01*
X136600661Y-110159679D02*
X136648280Y-110635869D01*
X136648280Y-110635869D02*
X136600661Y-110588250D01*
X136600661Y-110588250D02*
X136505423Y-110540631D01*
X136505423Y-110540631D02*
X136267328Y-110540631D01*
X136267328Y-110540631D02*
X136172090Y-110588250D01*
X136172090Y-110588250D02*
X136124471Y-110635869D01*
X136124471Y-110635869D02*
X136076852Y-110731107D01*
X136076852Y-110731107D02*
X136076852Y-110969202D01*
X136076852Y-110969202D02*
X136124471Y-111064440D01*
X136124471Y-111064440D02*
X136172090Y-111112060D01*
X136172090Y-111112060D02*
X136267328Y-111159679D01*
X136267328Y-111159679D02*
X136505423Y-111159679D01*
X136505423Y-111159679D02*
X136600661Y-111112060D01*
X136600661Y-111112060D02*
X136648280Y-111064440D01*
X124170839Y-84602452D02*
X124027982Y-84650071D01*
X124027982Y-84650071D02*
X123789887Y-84650071D01*
X123789887Y-84650071D02*
X123694649Y-84602452D01*
X123694649Y-84602452D02*
X123647030Y-84554832D01*
X123647030Y-84554832D02*
X123599411Y-84459594D01*
X123599411Y-84459594D02*
X123599411Y-84364356D01*
X123599411Y-84364356D02*
X123647030Y-84269118D01*
X123647030Y-84269118D02*
X123694649Y-84221499D01*
X123694649Y-84221499D02*
X123789887Y-84173880D01*
X123789887Y-84173880D02*
X123980363Y-84126261D01*
X123980363Y-84126261D02*
X124075601Y-84078642D01*
X124075601Y-84078642D02*
X124123220Y-84031023D01*
X124123220Y-84031023D02*
X124170839Y-83935785D01*
X124170839Y-83935785D02*
X124170839Y-83840547D01*
X124170839Y-83840547D02*
X124123220Y-83745309D01*
X124123220Y-83745309D02*
X124075601Y-83697690D01*
X124075601Y-83697690D02*
X123980363Y-83650071D01*
X123980363Y-83650071D02*
X123742268Y-83650071D01*
X123742268Y-83650071D02*
X123599411Y-83697690D01*
X123266077Y-83650071D02*
X123027982Y-84650071D01*
X123027982Y-84650071D02*
X122837506Y-83935785D01*
X122837506Y-83935785D02*
X122647030Y-84650071D01*
X122647030Y-84650071D02*
X122408935Y-83650071D01*
X122123220Y-83650071D02*
X121504173Y-83650071D01*
X121504173Y-83650071D02*
X121837506Y-84031023D01*
X121837506Y-84031023D02*
X121694649Y-84031023D01*
X121694649Y-84031023D02*
X121599411Y-84078642D01*
X121599411Y-84078642D02*
X121551792Y-84126261D01*
X121551792Y-84126261D02*
X121504173Y-84221499D01*
X121504173Y-84221499D02*
X121504173Y-84459594D01*
X121504173Y-84459594D02*
X121551792Y-84554832D01*
X121551792Y-84554832D02*
X121599411Y-84602452D01*
X121599411Y-84602452D02*
X121694649Y-84650071D01*
X121694649Y-84650071D02*
X121980363Y-84650071D01*
X121980363Y-84650071D02*
X122075601Y-84602452D01*
X122075601Y-84602452D02*
X122123220Y-84554832D01*
X121075601Y-84554832D02*
X121027982Y-84602452D01*
X121027982Y-84602452D02*
X121075601Y-84650071D01*
X121075601Y-84650071D02*
X121123220Y-84602452D01*
X121123220Y-84602452D02*
X121075601Y-84554832D01*
X121075601Y-84554832D02*
X121075601Y-84650071D01*
X120647030Y-83745309D02*
X120599411Y-83697690D01*
X120599411Y-83697690D02*
X120504173Y-83650071D01*
X120504173Y-83650071D02*
X120266078Y-83650071D01*
X120266078Y-83650071D02*
X120170840Y-83697690D01*
X120170840Y-83697690D02*
X120123221Y-83745309D01*
X120123221Y-83745309D02*
X120075602Y-83840547D01*
X120075602Y-83840547D02*
X120075602Y-83935785D01*
X120075602Y-83935785D02*
X120123221Y-84078642D01*
X120123221Y-84078642D02*
X120694649Y-84650071D01*
X120694649Y-84650071D02*
X120075602Y-84650071D01*
X123932744Y-86869959D02*
X123742268Y-86869959D01*
X123742268Y-86869959D02*
X123647030Y-86917578D01*
X123647030Y-86917578D02*
X123551792Y-87012816D01*
X123551792Y-87012816D02*
X123504173Y-87203292D01*
X123504173Y-87203292D02*
X123504173Y-87536625D01*
X123504173Y-87536625D02*
X123551792Y-87727101D01*
X123551792Y-87727101D02*
X123647030Y-87822340D01*
X123647030Y-87822340D02*
X123742268Y-87869959D01*
X123742268Y-87869959D02*
X123932744Y-87869959D01*
X123932744Y-87869959D02*
X124027982Y-87822340D01*
X124027982Y-87822340D02*
X124123220Y-87727101D01*
X124123220Y-87727101D02*
X124170839Y-87536625D01*
X124170839Y-87536625D02*
X124170839Y-87203292D01*
X124170839Y-87203292D02*
X124123220Y-87012816D01*
X124123220Y-87012816D02*
X124027982Y-86917578D01*
X124027982Y-86917578D02*
X123932744Y-86869959D01*
X122742268Y-87346149D02*
X123075601Y-87346149D01*
X123075601Y-87869959D02*
X123075601Y-86869959D01*
X123075601Y-86869959D02*
X122599411Y-86869959D01*
X121885125Y-87346149D02*
X122218458Y-87346149D01*
X122218458Y-87869959D02*
X122218458Y-86869959D01*
X122218458Y-86869959D02*
X121742268Y-86869959D01*
X123932744Y-88479903D02*
X123742268Y-88479903D01*
X123742268Y-88479903D02*
X123647030Y-88527522D01*
X123647030Y-88527522D02*
X123551792Y-88622760D01*
X123551792Y-88622760D02*
X123504173Y-88813236D01*
X123504173Y-88813236D02*
X123504173Y-89146569D01*
X123504173Y-89146569D02*
X123551792Y-89337045D01*
X123551792Y-89337045D02*
X123647030Y-89432284D01*
X123647030Y-89432284D02*
X123742268Y-89479903D01*
X123742268Y-89479903D02*
X123932744Y-89479903D01*
X123932744Y-89479903D02*
X124027982Y-89432284D01*
X124027982Y-89432284D02*
X124123220Y-89337045D01*
X124123220Y-89337045D02*
X124170839Y-89146569D01*
X124170839Y-89146569D02*
X124170839Y-88813236D01*
X124170839Y-88813236D02*
X124123220Y-88622760D01*
X124123220Y-88622760D02*
X124027982Y-88527522D01*
X124027982Y-88527522D02*
X123932744Y-88479903D01*
X122742268Y-88956093D02*
X123075601Y-88956093D01*
X123075601Y-89479903D02*
X123075601Y-88479903D01*
X123075601Y-88479903D02*
X122599411Y-88479903D01*
X121885125Y-88956093D02*
X122218458Y-88956093D01*
X122218458Y-89479903D02*
X122218458Y-88479903D01*
X122218458Y-88479903D02*
X121742268Y-88479903D01*
X123932744Y-90089847D02*
X123742268Y-90089847D01*
X123742268Y-90089847D02*
X123647030Y-90137466D01*
X123647030Y-90137466D02*
X123551792Y-90232704D01*
X123551792Y-90232704D02*
X123504173Y-90423180D01*
X123504173Y-90423180D02*
X123504173Y-90756513D01*
X123504173Y-90756513D02*
X123551792Y-90946989D01*
X123551792Y-90946989D02*
X123647030Y-91042228D01*
X123647030Y-91042228D02*
X123742268Y-91089847D01*
X123742268Y-91089847D02*
X123932744Y-91089847D01*
X123932744Y-91089847D02*
X124027982Y-91042228D01*
X124027982Y-91042228D02*
X124123220Y-90946989D01*
X124123220Y-90946989D02*
X124170839Y-90756513D01*
X124170839Y-90756513D02*
X124170839Y-90423180D01*
X124170839Y-90423180D02*
X124123220Y-90232704D01*
X124123220Y-90232704D02*
X124027982Y-90137466D01*
X124027982Y-90137466D02*
X123932744Y-90089847D01*
X123075601Y-91089847D02*
X123075601Y-90089847D01*
X123075601Y-90089847D02*
X122504173Y-91089847D01*
X122504173Y-91089847D02*
X122504173Y-90089847D01*
X123932744Y-91699791D02*
X123742268Y-91699791D01*
X123742268Y-91699791D02*
X123647030Y-91747410D01*
X123647030Y-91747410D02*
X123551792Y-91842648D01*
X123551792Y-91842648D02*
X123504173Y-92033124D01*
X123504173Y-92033124D02*
X123504173Y-92366457D01*
X123504173Y-92366457D02*
X123551792Y-92556933D01*
X123551792Y-92556933D02*
X123647030Y-92652172D01*
X123647030Y-92652172D02*
X123742268Y-92699791D01*
X123742268Y-92699791D02*
X123932744Y-92699791D01*
X123932744Y-92699791D02*
X124027982Y-92652172D01*
X124027982Y-92652172D02*
X124123220Y-92556933D01*
X124123220Y-92556933D02*
X124170839Y-92366457D01*
X124170839Y-92366457D02*
X124170839Y-92033124D01*
X124170839Y-92033124D02*
X124123220Y-91842648D01*
X124123220Y-91842648D02*
X124027982Y-91747410D01*
X124027982Y-91747410D02*
X123932744Y-91699791D01*
X123075601Y-92699791D02*
X123075601Y-91699791D01*
X123075601Y-91699791D02*
X122504173Y-92699791D01*
X122504173Y-92699791D02*
X122504173Y-91699791D01*
X123932744Y-93309735D02*
X123742268Y-93309735D01*
X123742268Y-93309735D02*
X123647030Y-93357354D01*
X123647030Y-93357354D02*
X123551792Y-93452592D01*
X123551792Y-93452592D02*
X123504173Y-93643068D01*
X123504173Y-93643068D02*
X123504173Y-93976401D01*
X123504173Y-93976401D02*
X123551792Y-94166877D01*
X123551792Y-94166877D02*
X123647030Y-94262116D01*
X123647030Y-94262116D02*
X123742268Y-94309735D01*
X123742268Y-94309735D02*
X123932744Y-94309735D01*
X123932744Y-94309735D02*
X124027982Y-94262116D01*
X124027982Y-94262116D02*
X124123220Y-94166877D01*
X124123220Y-94166877D02*
X124170839Y-93976401D01*
X124170839Y-93976401D02*
X124170839Y-93643068D01*
X124170839Y-93643068D02*
X124123220Y-93452592D01*
X124123220Y-93452592D02*
X124027982Y-93357354D01*
X124027982Y-93357354D02*
X123932744Y-93309735D01*
X122742268Y-93785925D02*
X123075601Y-93785925D01*
X123075601Y-94309735D02*
X123075601Y-93309735D01*
X123075601Y-93309735D02*
X122599411Y-93309735D01*
X121885125Y-93785925D02*
X122218458Y-93785925D01*
X122218458Y-94309735D02*
X122218458Y-93309735D01*
X122218458Y-93309735D02*
X121742268Y-93309735D01*
X123932744Y-94919679D02*
X123742268Y-94919679D01*
X123742268Y-94919679D02*
X123647030Y-94967298D01*
X123647030Y-94967298D02*
X123551792Y-95062536D01*
X123551792Y-95062536D02*
X123504173Y-95253012D01*
X123504173Y-95253012D02*
X123504173Y-95586345D01*
X123504173Y-95586345D02*
X123551792Y-95776821D01*
X123551792Y-95776821D02*
X123647030Y-95872060D01*
X123647030Y-95872060D02*
X123742268Y-95919679D01*
X123742268Y-95919679D02*
X123932744Y-95919679D01*
X123932744Y-95919679D02*
X124027982Y-95872060D01*
X124027982Y-95872060D02*
X124123220Y-95776821D01*
X124123220Y-95776821D02*
X124170839Y-95586345D01*
X124170839Y-95586345D02*
X124170839Y-95253012D01*
X124170839Y-95253012D02*
X124123220Y-95062536D01*
X124123220Y-95062536D02*
X124027982Y-94967298D01*
X124027982Y-94967298D02*
X123932744Y-94919679D01*
X122742268Y-95395869D02*
X123075601Y-95395869D01*
X123075601Y-95919679D02*
X123075601Y-94919679D01*
X123075601Y-94919679D02*
X122599411Y-94919679D01*
X121885125Y-95395869D02*
X122218458Y-95395869D01*
X122218458Y-95919679D02*
X122218458Y-94919679D01*
X122218458Y-94919679D02*
X121742268Y-94919679D01*
X123932744Y-96529623D02*
X123742268Y-96529623D01*
X123742268Y-96529623D02*
X123647030Y-96577242D01*
X123647030Y-96577242D02*
X123551792Y-96672480D01*
X123551792Y-96672480D02*
X123504173Y-96862956D01*
X123504173Y-96862956D02*
X123504173Y-97196289D01*
X123504173Y-97196289D02*
X123551792Y-97386765D01*
X123551792Y-97386765D02*
X123647030Y-97482004D01*
X123647030Y-97482004D02*
X123742268Y-97529623D01*
X123742268Y-97529623D02*
X123932744Y-97529623D01*
X123932744Y-97529623D02*
X124027982Y-97482004D01*
X124027982Y-97482004D02*
X124123220Y-97386765D01*
X124123220Y-97386765D02*
X124170839Y-97196289D01*
X124170839Y-97196289D02*
X124170839Y-96862956D01*
X124170839Y-96862956D02*
X124123220Y-96672480D01*
X124123220Y-96672480D02*
X124027982Y-96577242D01*
X124027982Y-96577242D02*
X123932744Y-96529623D01*
X123075601Y-97529623D02*
X123075601Y-96529623D01*
X123075601Y-96529623D02*
X122504173Y-97529623D01*
X122504173Y-97529623D02*
X122504173Y-96529623D01*
X123932744Y-98139567D02*
X123742268Y-98139567D01*
X123742268Y-98139567D02*
X123647030Y-98187186D01*
X123647030Y-98187186D02*
X123551792Y-98282424D01*
X123551792Y-98282424D02*
X123504173Y-98472900D01*
X123504173Y-98472900D02*
X123504173Y-98806233D01*
X123504173Y-98806233D02*
X123551792Y-98996709D01*
X123551792Y-98996709D02*
X123647030Y-99091948D01*
X123647030Y-99091948D02*
X123742268Y-99139567D01*
X123742268Y-99139567D02*
X123932744Y-99139567D01*
X123932744Y-99139567D02*
X124027982Y-99091948D01*
X124027982Y-99091948D02*
X124123220Y-98996709D01*
X124123220Y-98996709D02*
X124170839Y-98806233D01*
X124170839Y-98806233D02*
X124170839Y-98472900D01*
X124170839Y-98472900D02*
X124123220Y-98282424D01*
X124123220Y-98282424D02*
X124027982Y-98187186D01*
X124027982Y-98187186D02*
X123932744Y-98139567D01*
X123075601Y-99139567D02*
X123075601Y-98139567D01*
X123075601Y-98139567D02*
X122504173Y-99139567D01*
X122504173Y-99139567D02*
X122504173Y-98139567D01*
X129250839Y-84602452D02*
X129107982Y-84650071D01*
X129107982Y-84650071D02*
X128869887Y-84650071D01*
X128869887Y-84650071D02*
X128774649Y-84602452D01*
X128774649Y-84602452D02*
X128727030Y-84554832D01*
X128727030Y-84554832D02*
X128679411Y-84459594D01*
X128679411Y-84459594D02*
X128679411Y-84364356D01*
X128679411Y-84364356D02*
X128727030Y-84269118D01*
X128727030Y-84269118D02*
X128774649Y-84221499D01*
X128774649Y-84221499D02*
X128869887Y-84173880D01*
X128869887Y-84173880D02*
X129060363Y-84126261D01*
X129060363Y-84126261D02*
X129155601Y-84078642D01*
X129155601Y-84078642D02*
X129203220Y-84031023D01*
X129203220Y-84031023D02*
X129250839Y-83935785D01*
X129250839Y-83935785D02*
X129250839Y-83840547D01*
X129250839Y-83840547D02*
X129203220Y-83745309D01*
X129203220Y-83745309D02*
X129155601Y-83697690D01*
X129155601Y-83697690D02*
X129060363Y-83650071D01*
X129060363Y-83650071D02*
X128822268Y-83650071D01*
X128822268Y-83650071D02*
X128679411Y-83697690D01*
X128346077Y-83650071D02*
X128107982Y-84650071D01*
X128107982Y-84650071D02*
X127917506Y-83935785D01*
X127917506Y-83935785D02*
X127727030Y-84650071D01*
X127727030Y-84650071D02*
X127488935Y-83650071D01*
X127203220Y-83650071D02*
X126584173Y-83650071D01*
X126584173Y-83650071D02*
X126917506Y-84031023D01*
X126917506Y-84031023D02*
X126774649Y-84031023D01*
X126774649Y-84031023D02*
X126679411Y-84078642D01*
X126679411Y-84078642D02*
X126631792Y-84126261D01*
X126631792Y-84126261D02*
X126584173Y-84221499D01*
X126584173Y-84221499D02*
X126584173Y-84459594D01*
X126584173Y-84459594D02*
X126631792Y-84554832D01*
X126631792Y-84554832D02*
X126679411Y-84602452D01*
X126679411Y-84602452D02*
X126774649Y-84650071D01*
X126774649Y-84650071D02*
X127060363Y-84650071D01*
X127060363Y-84650071D02*
X127155601Y-84602452D01*
X127155601Y-84602452D02*
X127203220Y-84554832D01*
X126155601Y-84554832D02*
X126107982Y-84602452D01*
X126107982Y-84602452D02*
X126155601Y-84650071D01*
X126155601Y-84650071D02*
X126203220Y-84602452D01*
X126203220Y-84602452D02*
X126155601Y-84554832D01*
X126155601Y-84554832D02*
X126155601Y-84650071D01*
X125155602Y-84650071D02*
X125727030Y-84650071D01*
X125441316Y-84650071D02*
X125441316Y-83650071D01*
X125441316Y-83650071D02*
X125536554Y-83792928D01*
X125536554Y-83792928D02*
X125631792Y-83888166D01*
X125631792Y-83888166D02*
X125727030Y-83935785D01*
X129012744Y-86869959D02*
X128822268Y-86869959D01*
X128822268Y-86869959D02*
X128727030Y-86917578D01*
X128727030Y-86917578D02*
X128631792Y-87012816D01*
X128631792Y-87012816D02*
X128584173Y-87203292D01*
X128584173Y-87203292D02*
X128584173Y-87536625D01*
X128584173Y-87536625D02*
X128631792Y-87727101D01*
X128631792Y-87727101D02*
X128727030Y-87822340D01*
X128727030Y-87822340D02*
X128822268Y-87869959D01*
X128822268Y-87869959D02*
X129012744Y-87869959D01*
X129012744Y-87869959D02*
X129107982Y-87822340D01*
X129107982Y-87822340D02*
X129203220Y-87727101D01*
X129203220Y-87727101D02*
X129250839Y-87536625D01*
X129250839Y-87536625D02*
X129250839Y-87203292D01*
X129250839Y-87203292D02*
X129203220Y-87012816D01*
X129203220Y-87012816D02*
X129107982Y-86917578D01*
X129107982Y-86917578D02*
X129012744Y-86869959D01*
X127822268Y-87346149D02*
X128155601Y-87346149D01*
X128155601Y-87869959D02*
X128155601Y-86869959D01*
X128155601Y-86869959D02*
X127679411Y-86869959D01*
X126965125Y-87346149D02*
X127298458Y-87346149D01*
X127298458Y-87869959D02*
X127298458Y-86869959D01*
X127298458Y-86869959D02*
X126822268Y-86869959D01*
X129012744Y-88479903D02*
X128822268Y-88479903D01*
X128822268Y-88479903D02*
X128727030Y-88527522D01*
X128727030Y-88527522D02*
X128631792Y-88622760D01*
X128631792Y-88622760D02*
X128584173Y-88813236D01*
X128584173Y-88813236D02*
X128584173Y-89146569D01*
X128584173Y-89146569D02*
X128631792Y-89337045D01*
X128631792Y-89337045D02*
X128727030Y-89432284D01*
X128727030Y-89432284D02*
X128822268Y-89479903D01*
X128822268Y-89479903D02*
X129012744Y-89479903D01*
X129012744Y-89479903D02*
X129107982Y-89432284D01*
X129107982Y-89432284D02*
X129203220Y-89337045D01*
X129203220Y-89337045D02*
X129250839Y-89146569D01*
X129250839Y-89146569D02*
X129250839Y-88813236D01*
X129250839Y-88813236D02*
X129203220Y-88622760D01*
X129203220Y-88622760D02*
X129107982Y-88527522D01*
X129107982Y-88527522D02*
X129012744Y-88479903D01*
X128155601Y-89479903D02*
X128155601Y-88479903D01*
X128155601Y-88479903D02*
X127584173Y-89479903D01*
X127584173Y-89479903D02*
X127584173Y-88479903D01*
X129012744Y-90089847D02*
X128822268Y-90089847D01*
X128822268Y-90089847D02*
X128727030Y-90137466D01*
X128727030Y-90137466D02*
X128631792Y-90232704D01*
X128631792Y-90232704D02*
X128584173Y-90423180D01*
X128584173Y-90423180D02*
X128584173Y-90756513D01*
X128584173Y-90756513D02*
X128631792Y-90946989D01*
X128631792Y-90946989D02*
X128727030Y-91042228D01*
X128727030Y-91042228D02*
X128822268Y-91089847D01*
X128822268Y-91089847D02*
X129012744Y-91089847D01*
X129012744Y-91089847D02*
X129107982Y-91042228D01*
X129107982Y-91042228D02*
X129203220Y-90946989D01*
X129203220Y-90946989D02*
X129250839Y-90756513D01*
X129250839Y-90756513D02*
X129250839Y-90423180D01*
X129250839Y-90423180D02*
X129203220Y-90232704D01*
X129203220Y-90232704D02*
X129107982Y-90137466D01*
X129107982Y-90137466D02*
X129012744Y-90089847D01*
X127822268Y-90566037D02*
X128155601Y-90566037D01*
X128155601Y-91089847D02*
X128155601Y-90089847D01*
X128155601Y-90089847D02*
X127679411Y-90089847D01*
X126965125Y-90566037D02*
X127298458Y-90566037D01*
X127298458Y-91089847D02*
X127298458Y-90089847D01*
X127298458Y-90089847D02*
X126822268Y-90089847D01*
X129012744Y-91699791D02*
X128822268Y-91699791D01*
X128822268Y-91699791D02*
X128727030Y-91747410D01*
X128727030Y-91747410D02*
X128631792Y-91842648D01*
X128631792Y-91842648D02*
X128584173Y-92033124D01*
X128584173Y-92033124D02*
X128584173Y-92366457D01*
X128584173Y-92366457D02*
X128631792Y-92556933D01*
X128631792Y-92556933D02*
X128727030Y-92652172D01*
X128727030Y-92652172D02*
X128822268Y-92699791D01*
X128822268Y-92699791D02*
X129012744Y-92699791D01*
X129012744Y-92699791D02*
X129107982Y-92652172D01*
X129107982Y-92652172D02*
X129203220Y-92556933D01*
X129203220Y-92556933D02*
X129250839Y-92366457D01*
X129250839Y-92366457D02*
X129250839Y-92033124D01*
X129250839Y-92033124D02*
X129203220Y-91842648D01*
X129203220Y-91842648D02*
X129107982Y-91747410D01*
X129107982Y-91747410D02*
X129012744Y-91699791D01*
X128155601Y-92699791D02*
X128155601Y-91699791D01*
X128155601Y-91699791D02*
X127584173Y-92699791D01*
X127584173Y-92699791D02*
X127584173Y-91699791D01*
X129012744Y-93309735D02*
X128822268Y-93309735D01*
X128822268Y-93309735D02*
X128727030Y-93357354D01*
X128727030Y-93357354D02*
X128631792Y-93452592D01*
X128631792Y-93452592D02*
X128584173Y-93643068D01*
X128584173Y-93643068D02*
X128584173Y-93976401D01*
X128584173Y-93976401D02*
X128631792Y-94166877D01*
X128631792Y-94166877D02*
X128727030Y-94262116D01*
X128727030Y-94262116D02*
X128822268Y-94309735D01*
X128822268Y-94309735D02*
X129012744Y-94309735D01*
X129012744Y-94309735D02*
X129107982Y-94262116D01*
X129107982Y-94262116D02*
X129203220Y-94166877D01*
X129203220Y-94166877D02*
X129250839Y-93976401D01*
X129250839Y-93976401D02*
X129250839Y-93643068D01*
X129250839Y-93643068D02*
X129203220Y-93452592D01*
X129203220Y-93452592D02*
X129107982Y-93357354D01*
X129107982Y-93357354D02*
X129012744Y-93309735D01*
X127822268Y-93785925D02*
X128155601Y-93785925D01*
X128155601Y-94309735D02*
X128155601Y-93309735D01*
X128155601Y-93309735D02*
X127679411Y-93309735D01*
X126965125Y-93785925D02*
X127298458Y-93785925D01*
X127298458Y-94309735D02*
X127298458Y-93309735D01*
X127298458Y-93309735D02*
X126822268Y-93309735D01*
X129012744Y-94919679D02*
X128822268Y-94919679D01*
X128822268Y-94919679D02*
X128727030Y-94967298D01*
X128727030Y-94967298D02*
X128631792Y-95062536D01*
X128631792Y-95062536D02*
X128584173Y-95253012D01*
X128584173Y-95253012D02*
X128584173Y-95586345D01*
X128584173Y-95586345D02*
X128631792Y-95776821D01*
X128631792Y-95776821D02*
X128727030Y-95872060D01*
X128727030Y-95872060D02*
X128822268Y-95919679D01*
X128822268Y-95919679D02*
X129012744Y-95919679D01*
X129012744Y-95919679D02*
X129107982Y-95872060D01*
X129107982Y-95872060D02*
X129203220Y-95776821D01*
X129203220Y-95776821D02*
X129250839Y-95586345D01*
X129250839Y-95586345D02*
X129250839Y-95253012D01*
X129250839Y-95253012D02*
X129203220Y-95062536D01*
X129203220Y-95062536D02*
X129107982Y-94967298D01*
X129107982Y-94967298D02*
X129012744Y-94919679D01*
X128155601Y-95919679D02*
X128155601Y-94919679D01*
X128155601Y-94919679D02*
X127584173Y-95919679D01*
X127584173Y-95919679D02*
X127584173Y-94919679D01*
X129012744Y-96529623D02*
X128822268Y-96529623D01*
X128822268Y-96529623D02*
X128727030Y-96577242D01*
X128727030Y-96577242D02*
X128631792Y-96672480D01*
X128631792Y-96672480D02*
X128584173Y-96862956D01*
X128584173Y-96862956D02*
X128584173Y-97196289D01*
X128584173Y-97196289D02*
X128631792Y-97386765D01*
X128631792Y-97386765D02*
X128727030Y-97482004D01*
X128727030Y-97482004D02*
X128822268Y-97529623D01*
X128822268Y-97529623D02*
X129012744Y-97529623D01*
X129012744Y-97529623D02*
X129107982Y-97482004D01*
X129107982Y-97482004D02*
X129203220Y-97386765D01*
X129203220Y-97386765D02*
X129250839Y-97196289D01*
X129250839Y-97196289D02*
X129250839Y-96862956D01*
X129250839Y-96862956D02*
X129203220Y-96672480D01*
X129203220Y-96672480D02*
X129107982Y-96577242D01*
X129107982Y-96577242D02*
X129012744Y-96529623D01*
X127822268Y-97005813D02*
X128155601Y-97005813D01*
X128155601Y-97529623D02*
X128155601Y-96529623D01*
X128155601Y-96529623D02*
X127679411Y-96529623D01*
X126965125Y-97005813D02*
X127298458Y-97005813D01*
X127298458Y-97529623D02*
X127298458Y-96529623D01*
X127298458Y-96529623D02*
X126822268Y-96529623D01*
X129012744Y-98139567D02*
X128822268Y-98139567D01*
X128822268Y-98139567D02*
X128727030Y-98187186D01*
X128727030Y-98187186D02*
X128631792Y-98282424D01*
X128631792Y-98282424D02*
X128584173Y-98472900D01*
X128584173Y-98472900D02*
X128584173Y-98806233D01*
X128584173Y-98806233D02*
X128631792Y-98996709D01*
X128631792Y-98996709D02*
X128727030Y-99091948D01*
X128727030Y-99091948D02*
X128822268Y-99139567D01*
X128822268Y-99139567D02*
X129012744Y-99139567D01*
X129012744Y-99139567D02*
X129107982Y-99091948D01*
X129107982Y-99091948D02*
X129203220Y-98996709D01*
X129203220Y-98996709D02*
X129250839Y-98806233D01*
X129250839Y-98806233D02*
X129250839Y-98472900D01*
X129250839Y-98472900D02*
X129203220Y-98282424D01*
X129203220Y-98282424D02*
X129107982Y-98187186D01*
X129107982Y-98187186D02*
X129012744Y-98139567D01*
X128155601Y-99139567D02*
X128155601Y-98139567D01*
X128155601Y-98139567D02*
X127584173Y-99139567D01*
X127584173Y-99139567D02*
X127584173Y-98139567D01*
X119090839Y-84602452D02*
X118947982Y-84650071D01*
X118947982Y-84650071D02*
X118709887Y-84650071D01*
X118709887Y-84650071D02*
X118614649Y-84602452D01*
X118614649Y-84602452D02*
X118567030Y-84554832D01*
X118567030Y-84554832D02*
X118519411Y-84459594D01*
X118519411Y-84459594D02*
X118519411Y-84364356D01*
X118519411Y-84364356D02*
X118567030Y-84269118D01*
X118567030Y-84269118D02*
X118614649Y-84221499D01*
X118614649Y-84221499D02*
X118709887Y-84173880D01*
X118709887Y-84173880D02*
X118900363Y-84126261D01*
X118900363Y-84126261D02*
X118995601Y-84078642D01*
X118995601Y-84078642D02*
X119043220Y-84031023D01*
X119043220Y-84031023D02*
X119090839Y-83935785D01*
X119090839Y-83935785D02*
X119090839Y-83840547D01*
X119090839Y-83840547D02*
X119043220Y-83745309D01*
X119043220Y-83745309D02*
X118995601Y-83697690D01*
X118995601Y-83697690D02*
X118900363Y-83650071D01*
X118900363Y-83650071D02*
X118662268Y-83650071D01*
X118662268Y-83650071D02*
X118519411Y-83697690D01*
X118186077Y-83650071D02*
X117947982Y-84650071D01*
X117947982Y-84650071D02*
X117757506Y-83935785D01*
X117757506Y-83935785D02*
X117567030Y-84650071D01*
X117567030Y-84650071D02*
X117328935Y-83650071D01*
X117043220Y-83650071D02*
X116424173Y-83650071D01*
X116424173Y-83650071D02*
X116757506Y-84031023D01*
X116757506Y-84031023D02*
X116614649Y-84031023D01*
X116614649Y-84031023D02*
X116519411Y-84078642D01*
X116519411Y-84078642D02*
X116471792Y-84126261D01*
X116471792Y-84126261D02*
X116424173Y-84221499D01*
X116424173Y-84221499D02*
X116424173Y-84459594D01*
X116424173Y-84459594D02*
X116471792Y-84554832D01*
X116471792Y-84554832D02*
X116519411Y-84602452D01*
X116519411Y-84602452D02*
X116614649Y-84650071D01*
X116614649Y-84650071D02*
X116900363Y-84650071D01*
X116900363Y-84650071D02*
X116995601Y-84602452D01*
X116995601Y-84602452D02*
X117043220Y-84554832D01*
X115995601Y-84554832D02*
X115947982Y-84602452D01*
X115947982Y-84602452D02*
X115995601Y-84650071D01*
X115995601Y-84650071D02*
X116043220Y-84602452D01*
X116043220Y-84602452D02*
X115995601Y-84554832D01*
X115995601Y-84554832D02*
X115995601Y-84650071D01*
X115614649Y-83650071D02*
X114995602Y-83650071D01*
X114995602Y-83650071D02*
X115328935Y-84031023D01*
X115328935Y-84031023D02*
X115186078Y-84031023D01*
X115186078Y-84031023D02*
X115090840Y-84078642D01*
X115090840Y-84078642D02*
X115043221Y-84126261D01*
X115043221Y-84126261D02*
X114995602Y-84221499D01*
X114995602Y-84221499D02*
X114995602Y-84459594D01*
X114995602Y-84459594D02*
X115043221Y-84554832D01*
X115043221Y-84554832D02*
X115090840Y-84602452D01*
X115090840Y-84602452D02*
X115186078Y-84650071D01*
X115186078Y-84650071D02*
X115471792Y-84650071D01*
X115471792Y-84650071D02*
X115567030Y-84602452D01*
X115567030Y-84602452D02*
X115614649Y-84554832D01*
X118852744Y-86869959D02*
X118662268Y-86869959D01*
X118662268Y-86869959D02*
X118567030Y-86917578D01*
X118567030Y-86917578D02*
X118471792Y-87012816D01*
X118471792Y-87012816D02*
X118424173Y-87203292D01*
X118424173Y-87203292D02*
X118424173Y-87536625D01*
X118424173Y-87536625D02*
X118471792Y-87727101D01*
X118471792Y-87727101D02*
X118567030Y-87822340D01*
X118567030Y-87822340D02*
X118662268Y-87869959D01*
X118662268Y-87869959D02*
X118852744Y-87869959D01*
X118852744Y-87869959D02*
X118947982Y-87822340D01*
X118947982Y-87822340D02*
X119043220Y-87727101D01*
X119043220Y-87727101D02*
X119090839Y-87536625D01*
X119090839Y-87536625D02*
X119090839Y-87203292D01*
X119090839Y-87203292D02*
X119043220Y-87012816D01*
X119043220Y-87012816D02*
X118947982Y-86917578D01*
X118947982Y-86917578D02*
X118852744Y-86869959D01*
X117662268Y-87346149D02*
X117995601Y-87346149D01*
X117995601Y-87869959D02*
X117995601Y-86869959D01*
X117995601Y-86869959D02*
X117519411Y-86869959D01*
X116805125Y-87346149D02*
X117138458Y-87346149D01*
X117138458Y-87869959D02*
X117138458Y-86869959D01*
X117138458Y-86869959D02*
X116662268Y-86869959D01*
X118852744Y-88479903D02*
X118662268Y-88479903D01*
X118662268Y-88479903D02*
X118567030Y-88527522D01*
X118567030Y-88527522D02*
X118471792Y-88622760D01*
X118471792Y-88622760D02*
X118424173Y-88813236D01*
X118424173Y-88813236D02*
X118424173Y-89146569D01*
X118424173Y-89146569D02*
X118471792Y-89337045D01*
X118471792Y-89337045D02*
X118567030Y-89432284D01*
X118567030Y-89432284D02*
X118662268Y-89479903D01*
X118662268Y-89479903D02*
X118852744Y-89479903D01*
X118852744Y-89479903D02*
X118947982Y-89432284D01*
X118947982Y-89432284D02*
X119043220Y-89337045D01*
X119043220Y-89337045D02*
X119090839Y-89146569D01*
X119090839Y-89146569D02*
X119090839Y-88813236D01*
X119090839Y-88813236D02*
X119043220Y-88622760D01*
X119043220Y-88622760D02*
X118947982Y-88527522D01*
X118947982Y-88527522D02*
X118852744Y-88479903D01*
X117662268Y-88956093D02*
X117995601Y-88956093D01*
X117995601Y-89479903D02*
X117995601Y-88479903D01*
X117995601Y-88479903D02*
X117519411Y-88479903D01*
X116805125Y-88956093D02*
X117138458Y-88956093D01*
X117138458Y-89479903D02*
X117138458Y-88479903D01*
X117138458Y-88479903D02*
X116662268Y-88479903D01*
X118852744Y-90089847D02*
X118662268Y-90089847D01*
X118662268Y-90089847D02*
X118567030Y-90137466D01*
X118567030Y-90137466D02*
X118471792Y-90232704D01*
X118471792Y-90232704D02*
X118424173Y-90423180D01*
X118424173Y-90423180D02*
X118424173Y-90756513D01*
X118424173Y-90756513D02*
X118471792Y-90946989D01*
X118471792Y-90946989D02*
X118567030Y-91042228D01*
X118567030Y-91042228D02*
X118662268Y-91089847D01*
X118662268Y-91089847D02*
X118852744Y-91089847D01*
X118852744Y-91089847D02*
X118947982Y-91042228D01*
X118947982Y-91042228D02*
X119043220Y-90946989D01*
X119043220Y-90946989D02*
X119090839Y-90756513D01*
X119090839Y-90756513D02*
X119090839Y-90423180D01*
X119090839Y-90423180D02*
X119043220Y-90232704D01*
X119043220Y-90232704D02*
X118947982Y-90137466D01*
X118947982Y-90137466D02*
X118852744Y-90089847D01*
X117662268Y-90566037D02*
X117995601Y-90566037D01*
X117995601Y-91089847D02*
X117995601Y-90089847D01*
X117995601Y-90089847D02*
X117519411Y-90089847D01*
X116805125Y-90566037D02*
X117138458Y-90566037D01*
X117138458Y-91089847D02*
X117138458Y-90089847D01*
X117138458Y-90089847D02*
X116662268Y-90089847D01*
X118852744Y-91699791D02*
X118662268Y-91699791D01*
X118662268Y-91699791D02*
X118567030Y-91747410D01*
X118567030Y-91747410D02*
X118471792Y-91842648D01*
X118471792Y-91842648D02*
X118424173Y-92033124D01*
X118424173Y-92033124D02*
X118424173Y-92366457D01*
X118424173Y-92366457D02*
X118471792Y-92556933D01*
X118471792Y-92556933D02*
X118567030Y-92652172D01*
X118567030Y-92652172D02*
X118662268Y-92699791D01*
X118662268Y-92699791D02*
X118852744Y-92699791D01*
X118852744Y-92699791D02*
X118947982Y-92652172D01*
X118947982Y-92652172D02*
X119043220Y-92556933D01*
X119043220Y-92556933D02*
X119090839Y-92366457D01*
X119090839Y-92366457D02*
X119090839Y-92033124D01*
X119090839Y-92033124D02*
X119043220Y-91842648D01*
X119043220Y-91842648D02*
X118947982Y-91747410D01*
X118947982Y-91747410D02*
X118852744Y-91699791D01*
X117662268Y-92175981D02*
X117995601Y-92175981D01*
X117995601Y-92699791D02*
X117995601Y-91699791D01*
X117995601Y-91699791D02*
X117519411Y-91699791D01*
X116805125Y-92175981D02*
X117138458Y-92175981D01*
X117138458Y-92699791D02*
X117138458Y-91699791D01*
X117138458Y-91699791D02*
X116662268Y-91699791D01*
X118852744Y-93309735D02*
X118662268Y-93309735D01*
X118662268Y-93309735D02*
X118567030Y-93357354D01*
X118567030Y-93357354D02*
X118471792Y-93452592D01*
X118471792Y-93452592D02*
X118424173Y-93643068D01*
X118424173Y-93643068D02*
X118424173Y-93976401D01*
X118424173Y-93976401D02*
X118471792Y-94166877D01*
X118471792Y-94166877D02*
X118567030Y-94262116D01*
X118567030Y-94262116D02*
X118662268Y-94309735D01*
X118662268Y-94309735D02*
X118852744Y-94309735D01*
X118852744Y-94309735D02*
X118947982Y-94262116D01*
X118947982Y-94262116D02*
X119043220Y-94166877D01*
X119043220Y-94166877D02*
X119090839Y-93976401D01*
X119090839Y-93976401D02*
X119090839Y-93643068D01*
X119090839Y-93643068D02*
X119043220Y-93452592D01*
X119043220Y-93452592D02*
X118947982Y-93357354D01*
X118947982Y-93357354D02*
X118852744Y-93309735D01*
X117662268Y-93785925D02*
X117995601Y-93785925D01*
X117995601Y-94309735D02*
X117995601Y-93309735D01*
X117995601Y-93309735D02*
X117519411Y-93309735D01*
X116805125Y-93785925D02*
X117138458Y-93785925D01*
X117138458Y-94309735D02*
X117138458Y-93309735D01*
X117138458Y-93309735D02*
X116662268Y-93309735D01*
X118852744Y-94919679D02*
X118662268Y-94919679D01*
X118662268Y-94919679D02*
X118567030Y-94967298D01*
X118567030Y-94967298D02*
X118471792Y-95062536D01*
X118471792Y-95062536D02*
X118424173Y-95253012D01*
X118424173Y-95253012D02*
X118424173Y-95586345D01*
X118424173Y-95586345D02*
X118471792Y-95776821D01*
X118471792Y-95776821D02*
X118567030Y-95872060D01*
X118567030Y-95872060D02*
X118662268Y-95919679D01*
X118662268Y-95919679D02*
X118852744Y-95919679D01*
X118852744Y-95919679D02*
X118947982Y-95872060D01*
X118947982Y-95872060D02*
X119043220Y-95776821D01*
X119043220Y-95776821D02*
X119090839Y-95586345D01*
X119090839Y-95586345D02*
X119090839Y-95253012D01*
X119090839Y-95253012D02*
X119043220Y-95062536D01*
X119043220Y-95062536D02*
X118947982Y-94967298D01*
X118947982Y-94967298D02*
X118852744Y-94919679D01*
X117662268Y-95395869D02*
X117995601Y-95395869D01*
X117995601Y-95919679D02*
X117995601Y-94919679D01*
X117995601Y-94919679D02*
X117519411Y-94919679D01*
X116805125Y-95395869D02*
X117138458Y-95395869D01*
X117138458Y-95919679D02*
X117138458Y-94919679D01*
X117138458Y-94919679D02*
X116662268Y-94919679D01*
X118852744Y-96529623D02*
X118662268Y-96529623D01*
X118662268Y-96529623D02*
X118567030Y-96577242D01*
X118567030Y-96577242D02*
X118471792Y-96672480D01*
X118471792Y-96672480D02*
X118424173Y-96862956D01*
X118424173Y-96862956D02*
X118424173Y-97196289D01*
X118424173Y-97196289D02*
X118471792Y-97386765D01*
X118471792Y-97386765D02*
X118567030Y-97482004D01*
X118567030Y-97482004D02*
X118662268Y-97529623D01*
X118662268Y-97529623D02*
X118852744Y-97529623D01*
X118852744Y-97529623D02*
X118947982Y-97482004D01*
X118947982Y-97482004D02*
X119043220Y-97386765D01*
X119043220Y-97386765D02*
X119090839Y-97196289D01*
X119090839Y-97196289D02*
X119090839Y-96862956D01*
X119090839Y-96862956D02*
X119043220Y-96672480D01*
X119043220Y-96672480D02*
X118947982Y-96577242D01*
X118947982Y-96577242D02*
X118852744Y-96529623D01*
X117662268Y-97005813D02*
X117995601Y-97005813D01*
X117995601Y-97529623D02*
X117995601Y-96529623D01*
X117995601Y-96529623D02*
X117519411Y-96529623D01*
X116805125Y-97005813D02*
X117138458Y-97005813D01*
X117138458Y-97529623D02*
X117138458Y-96529623D01*
X117138458Y-96529623D02*
X116662268Y-96529623D01*
X118852744Y-98139567D02*
X118662268Y-98139567D01*
X118662268Y-98139567D02*
X118567030Y-98187186D01*
X118567030Y-98187186D02*
X118471792Y-98282424D01*
X118471792Y-98282424D02*
X118424173Y-98472900D01*
X118424173Y-98472900D02*
X118424173Y-98806233D01*
X118424173Y-98806233D02*
X118471792Y-98996709D01*
X118471792Y-98996709D02*
X118567030Y-99091948D01*
X118567030Y-99091948D02*
X118662268Y-99139567D01*
X118662268Y-99139567D02*
X118852744Y-99139567D01*
X118852744Y-99139567D02*
X118947982Y-99091948D01*
X118947982Y-99091948D02*
X119043220Y-98996709D01*
X119043220Y-98996709D02*
X119090839Y-98806233D01*
X119090839Y-98806233D02*
X119090839Y-98472900D01*
X119090839Y-98472900D02*
X119043220Y-98282424D01*
X119043220Y-98282424D02*
X118947982Y-98187186D01*
X118947982Y-98187186D02*
X118852744Y-98139567D01*
X117662268Y-98615757D02*
X117995601Y-98615757D01*
X117995601Y-99139567D02*
X117995601Y-98139567D01*
X117995601Y-98139567D02*
X117519411Y-98139567D01*
X116805125Y-98615757D02*
X117138458Y-98615757D01*
X117138458Y-99139567D02*
X117138458Y-98139567D01*
X117138458Y-98139567D02*
X116662268Y-98139567D01*
X114010839Y-84602452D02*
X113867982Y-84650071D01*
X113867982Y-84650071D02*
X113629887Y-84650071D01*
X113629887Y-84650071D02*
X113534649Y-84602452D01*
X113534649Y-84602452D02*
X113487030Y-84554832D01*
X113487030Y-84554832D02*
X113439411Y-84459594D01*
X113439411Y-84459594D02*
X113439411Y-84364356D01*
X113439411Y-84364356D02*
X113487030Y-84269118D01*
X113487030Y-84269118D02*
X113534649Y-84221499D01*
X113534649Y-84221499D02*
X113629887Y-84173880D01*
X113629887Y-84173880D02*
X113820363Y-84126261D01*
X113820363Y-84126261D02*
X113915601Y-84078642D01*
X113915601Y-84078642D02*
X113963220Y-84031023D01*
X113963220Y-84031023D02*
X114010839Y-83935785D01*
X114010839Y-83935785D02*
X114010839Y-83840547D01*
X114010839Y-83840547D02*
X113963220Y-83745309D01*
X113963220Y-83745309D02*
X113915601Y-83697690D01*
X113915601Y-83697690D02*
X113820363Y-83650071D01*
X113820363Y-83650071D02*
X113582268Y-83650071D01*
X113582268Y-83650071D02*
X113439411Y-83697690D01*
X113106077Y-83650071D02*
X112867982Y-84650071D01*
X112867982Y-84650071D02*
X112677506Y-83935785D01*
X112677506Y-83935785D02*
X112487030Y-84650071D01*
X112487030Y-84650071D02*
X112248935Y-83650071D01*
X111963220Y-83650071D02*
X111344173Y-83650071D01*
X111344173Y-83650071D02*
X111677506Y-84031023D01*
X111677506Y-84031023D02*
X111534649Y-84031023D01*
X111534649Y-84031023D02*
X111439411Y-84078642D01*
X111439411Y-84078642D02*
X111391792Y-84126261D01*
X111391792Y-84126261D02*
X111344173Y-84221499D01*
X111344173Y-84221499D02*
X111344173Y-84459594D01*
X111344173Y-84459594D02*
X111391792Y-84554832D01*
X111391792Y-84554832D02*
X111439411Y-84602452D01*
X111439411Y-84602452D02*
X111534649Y-84650071D01*
X111534649Y-84650071D02*
X111820363Y-84650071D01*
X111820363Y-84650071D02*
X111915601Y-84602452D01*
X111915601Y-84602452D02*
X111963220Y-84554832D01*
X110915601Y-84554832D02*
X110867982Y-84602452D01*
X110867982Y-84602452D02*
X110915601Y-84650071D01*
X110915601Y-84650071D02*
X110963220Y-84602452D01*
X110963220Y-84602452D02*
X110915601Y-84554832D01*
X110915601Y-84554832D02*
X110915601Y-84650071D01*
X110010840Y-83983404D02*
X110010840Y-84650071D01*
X110248935Y-83602452D02*
X110487030Y-84316737D01*
X110487030Y-84316737D02*
X109867983Y-84316737D01*
X113772744Y-86869959D02*
X113582268Y-86869959D01*
X113582268Y-86869959D02*
X113487030Y-86917578D01*
X113487030Y-86917578D02*
X113391792Y-87012816D01*
X113391792Y-87012816D02*
X113344173Y-87203292D01*
X113344173Y-87203292D02*
X113344173Y-87536625D01*
X113344173Y-87536625D02*
X113391792Y-87727101D01*
X113391792Y-87727101D02*
X113487030Y-87822340D01*
X113487030Y-87822340D02*
X113582268Y-87869959D01*
X113582268Y-87869959D02*
X113772744Y-87869959D01*
X113772744Y-87869959D02*
X113867982Y-87822340D01*
X113867982Y-87822340D02*
X113963220Y-87727101D01*
X113963220Y-87727101D02*
X114010839Y-87536625D01*
X114010839Y-87536625D02*
X114010839Y-87203292D01*
X114010839Y-87203292D02*
X113963220Y-87012816D01*
X113963220Y-87012816D02*
X113867982Y-86917578D01*
X113867982Y-86917578D02*
X113772744Y-86869959D01*
X112582268Y-87346149D02*
X112915601Y-87346149D01*
X112915601Y-87869959D02*
X112915601Y-86869959D01*
X112915601Y-86869959D02*
X112439411Y-86869959D01*
X111725125Y-87346149D02*
X112058458Y-87346149D01*
X112058458Y-87869959D02*
X112058458Y-86869959D01*
X112058458Y-86869959D02*
X111582268Y-86869959D01*
X113772744Y-88479903D02*
X113582268Y-88479903D01*
X113582268Y-88479903D02*
X113487030Y-88527522D01*
X113487030Y-88527522D02*
X113391792Y-88622760D01*
X113391792Y-88622760D02*
X113344173Y-88813236D01*
X113344173Y-88813236D02*
X113344173Y-89146569D01*
X113344173Y-89146569D02*
X113391792Y-89337045D01*
X113391792Y-89337045D02*
X113487030Y-89432284D01*
X113487030Y-89432284D02*
X113582268Y-89479903D01*
X113582268Y-89479903D02*
X113772744Y-89479903D01*
X113772744Y-89479903D02*
X113867982Y-89432284D01*
X113867982Y-89432284D02*
X113963220Y-89337045D01*
X113963220Y-89337045D02*
X114010839Y-89146569D01*
X114010839Y-89146569D02*
X114010839Y-88813236D01*
X114010839Y-88813236D02*
X113963220Y-88622760D01*
X113963220Y-88622760D02*
X113867982Y-88527522D01*
X113867982Y-88527522D02*
X113772744Y-88479903D01*
X112582268Y-88956093D02*
X112915601Y-88956093D01*
X112915601Y-89479903D02*
X112915601Y-88479903D01*
X112915601Y-88479903D02*
X112439411Y-88479903D01*
X111725125Y-88956093D02*
X112058458Y-88956093D01*
X112058458Y-89479903D02*
X112058458Y-88479903D01*
X112058458Y-88479903D02*
X111582268Y-88479903D01*
X113772744Y-90089847D02*
X113582268Y-90089847D01*
X113582268Y-90089847D02*
X113487030Y-90137466D01*
X113487030Y-90137466D02*
X113391792Y-90232704D01*
X113391792Y-90232704D02*
X113344173Y-90423180D01*
X113344173Y-90423180D02*
X113344173Y-90756513D01*
X113344173Y-90756513D02*
X113391792Y-90946989D01*
X113391792Y-90946989D02*
X113487030Y-91042228D01*
X113487030Y-91042228D02*
X113582268Y-91089847D01*
X113582268Y-91089847D02*
X113772744Y-91089847D01*
X113772744Y-91089847D02*
X113867982Y-91042228D01*
X113867982Y-91042228D02*
X113963220Y-90946989D01*
X113963220Y-90946989D02*
X114010839Y-90756513D01*
X114010839Y-90756513D02*
X114010839Y-90423180D01*
X114010839Y-90423180D02*
X113963220Y-90232704D01*
X113963220Y-90232704D02*
X113867982Y-90137466D01*
X113867982Y-90137466D02*
X113772744Y-90089847D01*
X112582268Y-90566037D02*
X112915601Y-90566037D01*
X112915601Y-91089847D02*
X112915601Y-90089847D01*
X112915601Y-90089847D02*
X112439411Y-90089847D01*
X111725125Y-90566037D02*
X112058458Y-90566037D01*
X112058458Y-91089847D02*
X112058458Y-90089847D01*
X112058458Y-90089847D02*
X111582268Y-90089847D01*
X113772744Y-91699791D02*
X113582268Y-91699791D01*
X113582268Y-91699791D02*
X113487030Y-91747410D01*
X113487030Y-91747410D02*
X113391792Y-91842648D01*
X113391792Y-91842648D02*
X113344173Y-92033124D01*
X113344173Y-92033124D02*
X113344173Y-92366457D01*
X113344173Y-92366457D02*
X113391792Y-92556933D01*
X113391792Y-92556933D02*
X113487030Y-92652172D01*
X113487030Y-92652172D02*
X113582268Y-92699791D01*
X113582268Y-92699791D02*
X113772744Y-92699791D01*
X113772744Y-92699791D02*
X113867982Y-92652172D01*
X113867982Y-92652172D02*
X113963220Y-92556933D01*
X113963220Y-92556933D02*
X114010839Y-92366457D01*
X114010839Y-92366457D02*
X114010839Y-92033124D01*
X114010839Y-92033124D02*
X113963220Y-91842648D01*
X113963220Y-91842648D02*
X113867982Y-91747410D01*
X113867982Y-91747410D02*
X113772744Y-91699791D01*
X112582268Y-92175981D02*
X112915601Y-92175981D01*
X112915601Y-92699791D02*
X112915601Y-91699791D01*
X112915601Y-91699791D02*
X112439411Y-91699791D01*
X111725125Y-92175981D02*
X112058458Y-92175981D01*
X112058458Y-92699791D02*
X112058458Y-91699791D01*
X112058458Y-91699791D02*
X111582268Y-91699791D01*
X113772744Y-93309735D02*
X113582268Y-93309735D01*
X113582268Y-93309735D02*
X113487030Y-93357354D01*
X113487030Y-93357354D02*
X113391792Y-93452592D01*
X113391792Y-93452592D02*
X113344173Y-93643068D01*
X113344173Y-93643068D02*
X113344173Y-93976401D01*
X113344173Y-93976401D02*
X113391792Y-94166877D01*
X113391792Y-94166877D02*
X113487030Y-94262116D01*
X113487030Y-94262116D02*
X113582268Y-94309735D01*
X113582268Y-94309735D02*
X113772744Y-94309735D01*
X113772744Y-94309735D02*
X113867982Y-94262116D01*
X113867982Y-94262116D02*
X113963220Y-94166877D01*
X113963220Y-94166877D02*
X114010839Y-93976401D01*
X114010839Y-93976401D02*
X114010839Y-93643068D01*
X114010839Y-93643068D02*
X113963220Y-93452592D01*
X113963220Y-93452592D02*
X113867982Y-93357354D01*
X113867982Y-93357354D02*
X113772744Y-93309735D01*
X112915601Y-94309735D02*
X112915601Y-93309735D01*
X112915601Y-93309735D02*
X112344173Y-94309735D01*
X112344173Y-94309735D02*
X112344173Y-93309735D01*
X113772744Y-94919679D02*
X113582268Y-94919679D01*
X113582268Y-94919679D02*
X113487030Y-94967298D01*
X113487030Y-94967298D02*
X113391792Y-95062536D01*
X113391792Y-95062536D02*
X113344173Y-95253012D01*
X113344173Y-95253012D02*
X113344173Y-95586345D01*
X113344173Y-95586345D02*
X113391792Y-95776821D01*
X113391792Y-95776821D02*
X113487030Y-95872060D01*
X113487030Y-95872060D02*
X113582268Y-95919679D01*
X113582268Y-95919679D02*
X113772744Y-95919679D01*
X113772744Y-95919679D02*
X113867982Y-95872060D01*
X113867982Y-95872060D02*
X113963220Y-95776821D01*
X113963220Y-95776821D02*
X114010839Y-95586345D01*
X114010839Y-95586345D02*
X114010839Y-95253012D01*
X114010839Y-95253012D02*
X113963220Y-95062536D01*
X113963220Y-95062536D02*
X113867982Y-94967298D01*
X113867982Y-94967298D02*
X113772744Y-94919679D01*
X112915601Y-95919679D02*
X112915601Y-94919679D01*
X112915601Y-94919679D02*
X112344173Y-95919679D01*
X112344173Y-95919679D02*
X112344173Y-94919679D01*
X113772744Y-96529623D02*
X113582268Y-96529623D01*
X113582268Y-96529623D02*
X113487030Y-96577242D01*
X113487030Y-96577242D02*
X113391792Y-96672480D01*
X113391792Y-96672480D02*
X113344173Y-96862956D01*
X113344173Y-96862956D02*
X113344173Y-97196289D01*
X113344173Y-97196289D02*
X113391792Y-97386765D01*
X113391792Y-97386765D02*
X113487030Y-97482004D01*
X113487030Y-97482004D02*
X113582268Y-97529623D01*
X113582268Y-97529623D02*
X113772744Y-97529623D01*
X113772744Y-97529623D02*
X113867982Y-97482004D01*
X113867982Y-97482004D02*
X113963220Y-97386765D01*
X113963220Y-97386765D02*
X114010839Y-97196289D01*
X114010839Y-97196289D02*
X114010839Y-96862956D01*
X114010839Y-96862956D02*
X113963220Y-96672480D01*
X113963220Y-96672480D02*
X113867982Y-96577242D01*
X113867982Y-96577242D02*
X113772744Y-96529623D01*
X112915601Y-97529623D02*
X112915601Y-96529623D01*
X112915601Y-96529623D02*
X112344173Y-97529623D01*
X112344173Y-97529623D02*
X112344173Y-96529623D01*
X113772744Y-98139567D02*
X113582268Y-98139567D01*
X113582268Y-98139567D02*
X113487030Y-98187186D01*
X113487030Y-98187186D02*
X113391792Y-98282424D01*
X113391792Y-98282424D02*
X113344173Y-98472900D01*
X113344173Y-98472900D02*
X113344173Y-98806233D01*
X113344173Y-98806233D02*
X113391792Y-98996709D01*
X113391792Y-98996709D02*
X113487030Y-99091948D01*
X113487030Y-99091948D02*
X113582268Y-99139567D01*
X113582268Y-99139567D02*
X113772744Y-99139567D01*
X113772744Y-99139567D02*
X113867982Y-99091948D01*
X113867982Y-99091948D02*
X113963220Y-98996709D01*
X113963220Y-98996709D02*
X114010839Y-98806233D01*
X114010839Y-98806233D02*
X114010839Y-98472900D01*
X114010839Y-98472900D02*
X113963220Y-98282424D01*
X113963220Y-98282424D02*
X113867982Y-98187186D01*
X113867982Y-98187186D02*
X113772744Y-98139567D01*
X112915601Y-99139567D02*
X112915601Y-98139567D01*
X112915601Y-98139567D02*
X112344173Y-99139567D01*
X112344173Y-99139567D02*
X112344173Y-98139567D01*
X139363220Y-84650071D02*
X139363220Y-83650071D01*
X138172745Y-83602452D02*
X139029887Y-84888166D01*
X137648935Y-83650071D02*
X137458459Y-83650071D01*
X137458459Y-83650071D02*
X137363221Y-83697690D01*
X137363221Y-83697690D02*
X137267983Y-83792928D01*
X137267983Y-83792928D02*
X137220364Y-83983404D01*
X137220364Y-83983404D02*
X137220364Y-84316737D01*
X137220364Y-84316737D02*
X137267983Y-84507213D01*
X137267983Y-84507213D02*
X137363221Y-84602452D01*
X137363221Y-84602452D02*
X137458459Y-84650071D01*
X137458459Y-84650071D02*
X137648935Y-84650071D01*
X137648935Y-84650071D02*
X137744173Y-84602452D01*
X137744173Y-84602452D02*
X137839411Y-84507213D01*
X137839411Y-84507213D02*
X137887030Y-84316737D01*
X137887030Y-84316737D02*
X137887030Y-83983404D01*
X137887030Y-83983404D02*
X137839411Y-83792928D01*
X137839411Y-83792928D02*
X137744173Y-83697690D01*
X137744173Y-83697690D02*
X137648935Y-83650071D01*
X136077506Y-84364356D02*
X135601316Y-84364356D01*
X136172744Y-84650071D02*
X135839411Y-83650071D01*
X135839411Y-83650071D02*
X135506078Y-84650071D01*
X134744173Y-84650071D02*
X134744173Y-83650071D01*
X134744173Y-84602452D02*
X134839411Y-84650071D01*
X134839411Y-84650071D02*
X135029887Y-84650071D01*
X135029887Y-84650071D02*
X135125125Y-84602452D01*
X135125125Y-84602452D02*
X135172744Y-84554832D01*
X135172744Y-84554832D02*
X135220363Y-84459594D01*
X135220363Y-84459594D02*
X135220363Y-84173880D01*
X135220363Y-84173880D02*
X135172744Y-84078642D01*
X135172744Y-84078642D02*
X135125125Y-84031023D01*
X135125125Y-84031023D02*
X135029887Y-83983404D01*
X135029887Y-83983404D02*
X134839411Y-83983404D01*
X134839411Y-83983404D02*
X134744173Y-84031023D01*
X133839411Y-84650071D02*
X133839411Y-83650071D01*
X133839411Y-84602452D02*
X133934649Y-84650071D01*
X133934649Y-84650071D02*
X134125125Y-84650071D01*
X134125125Y-84650071D02*
X134220363Y-84602452D01*
X134220363Y-84602452D02*
X134267982Y-84554832D01*
X134267982Y-84554832D02*
X134315601Y-84459594D01*
X134315601Y-84459594D02*
X134315601Y-84173880D01*
X134315601Y-84173880D02*
X134267982Y-84078642D01*
X134267982Y-84078642D02*
X134220363Y-84031023D01*
X134220363Y-84031023D02*
X134125125Y-83983404D01*
X134125125Y-83983404D02*
X133934649Y-83983404D01*
X133934649Y-83983404D02*
X133839411Y-84031023D01*
X133363220Y-84650071D02*
X133363220Y-83983404D01*
X133363220Y-84173880D02*
X133315601Y-84078642D01*
X133315601Y-84078642D02*
X133267982Y-84031023D01*
X133267982Y-84031023D02*
X133172744Y-83983404D01*
X133172744Y-83983404D02*
X133077506Y-83983404D01*
X132363220Y-84602452D02*
X132458458Y-84650071D01*
X132458458Y-84650071D02*
X132648934Y-84650071D01*
X132648934Y-84650071D02*
X132744172Y-84602452D01*
X132744172Y-84602452D02*
X132791791Y-84507213D01*
X132791791Y-84507213D02*
X132791791Y-84126261D01*
X132791791Y-84126261D02*
X132744172Y-84031023D01*
X132744172Y-84031023D02*
X132648934Y-83983404D01*
X132648934Y-83983404D02*
X132458458Y-83983404D01*
X132458458Y-83983404D02*
X132363220Y-84031023D01*
X132363220Y-84031023D02*
X132315601Y-84126261D01*
X132315601Y-84126261D02*
X132315601Y-84221499D01*
X132315601Y-84221499D02*
X132791791Y-84316737D01*
X131934648Y-84602452D02*
X131839410Y-84650071D01*
X131839410Y-84650071D02*
X131648934Y-84650071D01*
X131648934Y-84650071D02*
X131553696Y-84602452D01*
X131553696Y-84602452D02*
X131506077Y-84507213D01*
X131506077Y-84507213D02*
X131506077Y-84459594D01*
X131506077Y-84459594D02*
X131553696Y-84364356D01*
X131553696Y-84364356D02*
X131648934Y-84316737D01*
X131648934Y-84316737D02*
X131791791Y-84316737D01*
X131791791Y-84316737D02*
X131887029Y-84269118D01*
X131887029Y-84269118D02*
X131934648Y-84173880D01*
X131934648Y-84173880D02*
X131934648Y-84126261D01*
X131934648Y-84126261D02*
X131887029Y-84031023D01*
X131887029Y-84031023D02*
X131791791Y-83983404D01*
X131791791Y-83983404D02*
X131648934Y-83983404D01*
X131648934Y-83983404D02*
X131553696Y-84031023D01*
X131125124Y-84602452D02*
X131029886Y-84650071D01*
X131029886Y-84650071D02*
X130839410Y-84650071D01*
X130839410Y-84650071D02*
X130744172Y-84602452D01*
X130744172Y-84602452D02*
X130696553Y-84507213D01*
X130696553Y-84507213D02*
X130696553Y-84459594D01*
X130696553Y-84459594D02*
X130744172Y-84364356D01*
X130744172Y-84364356D02*
X130839410Y-84316737D01*
X130839410Y-84316737D02*
X130982267Y-84316737D01*
X130982267Y-84316737D02*
X131077505Y-84269118D01*
X131077505Y-84269118D02*
X131125124Y-84173880D01*
X131125124Y-84173880D02*
X131125124Y-84126261D01*
X131125124Y-84126261D02*
X131077505Y-84031023D01*
X131077505Y-84031023D02*
X130982267Y-83983404D01*
X130982267Y-83983404D02*
X130839410Y-83983404D01*
X130839410Y-83983404D02*
X130744172Y-84031023D01*
X139172744Y-86869959D02*
X139077506Y-86869959D01*
X139077506Y-86869959D02*
X138982268Y-86917578D01*
X138982268Y-86917578D02*
X138934649Y-86965197D01*
X138934649Y-86965197D02*
X138887030Y-87060435D01*
X138887030Y-87060435D02*
X138839411Y-87250911D01*
X138839411Y-87250911D02*
X138839411Y-87489006D01*
X138839411Y-87489006D02*
X138887030Y-87679482D01*
X138887030Y-87679482D02*
X138934649Y-87774720D01*
X138934649Y-87774720D02*
X138982268Y-87822340D01*
X138982268Y-87822340D02*
X139077506Y-87869959D01*
X139077506Y-87869959D02*
X139172744Y-87869959D01*
X139172744Y-87869959D02*
X139267982Y-87822340D01*
X139267982Y-87822340D02*
X139315601Y-87774720D01*
X139315601Y-87774720D02*
X139363220Y-87679482D01*
X139363220Y-87679482D02*
X139410839Y-87489006D01*
X139410839Y-87489006D02*
X139410839Y-87250911D01*
X139410839Y-87250911D02*
X139363220Y-87060435D01*
X139363220Y-87060435D02*
X139315601Y-86965197D01*
X139315601Y-86965197D02*
X139267982Y-86917578D01*
X139267982Y-86917578D02*
X139172744Y-86869959D01*
X138506077Y-87869959D02*
X137982268Y-87203292D01*
X138506077Y-87203292D02*
X137982268Y-87869959D01*
X137696553Y-86869959D02*
X137077506Y-86869959D01*
X137077506Y-86869959D02*
X137410839Y-87250911D01*
X137410839Y-87250911D02*
X137267982Y-87250911D01*
X137267982Y-87250911D02*
X137172744Y-87298530D01*
X137172744Y-87298530D02*
X137125125Y-87346149D01*
X137125125Y-87346149D02*
X137077506Y-87441387D01*
X137077506Y-87441387D02*
X137077506Y-87679482D01*
X137077506Y-87679482D02*
X137125125Y-87774720D01*
X137125125Y-87774720D02*
X137172744Y-87822340D01*
X137172744Y-87822340D02*
X137267982Y-87869959D01*
X137267982Y-87869959D02*
X137553696Y-87869959D01*
X137553696Y-87869959D02*
X137648934Y-87822340D01*
X137648934Y-87822340D02*
X137696553Y-87774720D01*
X136458458Y-86869959D02*
X136363220Y-86869959D01*
X136363220Y-86869959D02*
X136267982Y-86917578D01*
X136267982Y-86917578D02*
X136220363Y-86965197D01*
X136220363Y-86965197D02*
X136172744Y-87060435D01*
X136172744Y-87060435D02*
X136125125Y-87250911D01*
X136125125Y-87250911D02*
X136125125Y-87489006D01*
X136125125Y-87489006D02*
X136172744Y-87679482D01*
X136172744Y-87679482D02*
X136220363Y-87774720D01*
X136220363Y-87774720D02*
X136267982Y-87822340D01*
X136267982Y-87822340D02*
X136363220Y-87869959D01*
X136363220Y-87869959D02*
X136458458Y-87869959D01*
X136458458Y-87869959D02*
X136553696Y-87822340D01*
X136553696Y-87822340D02*
X136601315Y-87774720D01*
X136601315Y-87774720D02*
X136648934Y-87679482D01*
X136648934Y-87679482D02*
X136696553Y-87489006D01*
X136696553Y-87489006D02*
X136696553Y-87250911D01*
X136696553Y-87250911D02*
X136648934Y-87060435D01*
X136648934Y-87060435D02*
X136601315Y-86965197D01*
X136601315Y-86965197D02*
X136553696Y-86917578D01*
X136553696Y-86917578D02*
X136458458Y-86869959D01*
X135506077Y-86869959D02*
X135410839Y-86869959D01*
X135410839Y-86869959D02*
X135315601Y-86917578D01*
X135315601Y-86917578D02*
X135267982Y-86965197D01*
X135267982Y-86965197D02*
X135220363Y-87060435D01*
X135220363Y-87060435D02*
X135172744Y-87250911D01*
X135172744Y-87250911D02*
X135172744Y-87489006D01*
X135172744Y-87489006D02*
X135220363Y-87679482D01*
X135220363Y-87679482D02*
X135267982Y-87774720D01*
X135267982Y-87774720D02*
X135315601Y-87822340D01*
X135315601Y-87822340D02*
X135410839Y-87869959D01*
X135410839Y-87869959D02*
X135506077Y-87869959D01*
X135506077Y-87869959D02*
X135601315Y-87822340D01*
X135601315Y-87822340D02*
X135648934Y-87774720D01*
X135648934Y-87774720D02*
X135696553Y-87679482D01*
X135696553Y-87679482D02*
X135744172Y-87489006D01*
X135744172Y-87489006D02*
X135744172Y-87250911D01*
X135744172Y-87250911D02*
X135696553Y-87060435D01*
X135696553Y-87060435D02*
X135648934Y-86965197D01*
X135648934Y-86965197D02*
X135601315Y-86917578D01*
X135601315Y-86917578D02*
X135506077Y-86869959D01*
X139172744Y-88479903D02*
X139077506Y-88479903D01*
X139077506Y-88479903D02*
X138982268Y-88527522D01*
X138982268Y-88527522D02*
X138934649Y-88575141D01*
X138934649Y-88575141D02*
X138887030Y-88670379D01*
X138887030Y-88670379D02*
X138839411Y-88860855D01*
X138839411Y-88860855D02*
X138839411Y-89098950D01*
X138839411Y-89098950D02*
X138887030Y-89289426D01*
X138887030Y-89289426D02*
X138934649Y-89384664D01*
X138934649Y-89384664D02*
X138982268Y-89432284D01*
X138982268Y-89432284D02*
X139077506Y-89479903D01*
X139077506Y-89479903D02*
X139172744Y-89479903D01*
X139172744Y-89479903D02*
X139267982Y-89432284D01*
X139267982Y-89432284D02*
X139315601Y-89384664D01*
X139315601Y-89384664D02*
X139363220Y-89289426D01*
X139363220Y-89289426D02*
X139410839Y-89098950D01*
X139410839Y-89098950D02*
X139410839Y-88860855D01*
X139410839Y-88860855D02*
X139363220Y-88670379D01*
X139363220Y-88670379D02*
X139315601Y-88575141D01*
X139315601Y-88575141D02*
X139267982Y-88527522D01*
X139267982Y-88527522D02*
X139172744Y-88479903D01*
X138506077Y-89479903D02*
X137982268Y-88813236D01*
X138506077Y-88813236D02*
X137982268Y-89479903D01*
X137696553Y-88479903D02*
X137077506Y-88479903D01*
X137077506Y-88479903D02*
X137410839Y-88860855D01*
X137410839Y-88860855D02*
X137267982Y-88860855D01*
X137267982Y-88860855D02*
X137172744Y-88908474D01*
X137172744Y-88908474D02*
X137125125Y-88956093D01*
X137125125Y-88956093D02*
X137077506Y-89051331D01*
X137077506Y-89051331D02*
X137077506Y-89289426D01*
X137077506Y-89289426D02*
X137125125Y-89384664D01*
X137125125Y-89384664D02*
X137172744Y-89432284D01*
X137172744Y-89432284D02*
X137267982Y-89479903D01*
X137267982Y-89479903D02*
X137553696Y-89479903D01*
X137553696Y-89479903D02*
X137648934Y-89432284D01*
X137648934Y-89432284D02*
X137696553Y-89384664D01*
X136696553Y-88575141D02*
X136648934Y-88527522D01*
X136648934Y-88527522D02*
X136553696Y-88479903D01*
X136553696Y-88479903D02*
X136315601Y-88479903D01*
X136315601Y-88479903D02*
X136220363Y-88527522D01*
X136220363Y-88527522D02*
X136172744Y-88575141D01*
X136172744Y-88575141D02*
X136125125Y-88670379D01*
X136125125Y-88670379D02*
X136125125Y-88765617D01*
X136125125Y-88765617D02*
X136172744Y-88908474D01*
X136172744Y-88908474D02*
X136744172Y-89479903D01*
X136744172Y-89479903D02*
X136125125Y-89479903D01*
X135506077Y-88479903D02*
X135410839Y-88479903D01*
X135410839Y-88479903D02*
X135315601Y-88527522D01*
X135315601Y-88527522D02*
X135267982Y-88575141D01*
X135267982Y-88575141D02*
X135220363Y-88670379D01*
X135220363Y-88670379D02*
X135172744Y-88860855D01*
X135172744Y-88860855D02*
X135172744Y-89098950D01*
X135172744Y-89098950D02*
X135220363Y-89289426D01*
X135220363Y-89289426D02*
X135267982Y-89384664D01*
X135267982Y-89384664D02*
X135315601Y-89432284D01*
X135315601Y-89432284D02*
X135410839Y-89479903D01*
X135410839Y-89479903D02*
X135506077Y-89479903D01*
X135506077Y-89479903D02*
X135601315Y-89432284D01*
X135601315Y-89432284D02*
X135648934Y-89384664D01*
X135648934Y-89384664D02*
X135696553Y-89289426D01*
X135696553Y-89289426D02*
X135744172Y-89098950D01*
X135744172Y-89098950D02*
X135744172Y-88860855D01*
X135744172Y-88860855D02*
X135696553Y-88670379D01*
X135696553Y-88670379D02*
X135648934Y-88575141D01*
X135648934Y-88575141D02*
X135601315Y-88527522D01*
X135601315Y-88527522D02*
X135506077Y-88479903D01*
X139172744Y-90089847D02*
X139077506Y-90089847D01*
X139077506Y-90089847D02*
X138982268Y-90137466D01*
X138982268Y-90137466D02*
X138934649Y-90185085D01*
X138934649Y-90185085D02*
X138887030Y-90280323D01*
X138887030Y-90280323D02*
X138839411Y-90470799D01*
X138839411Y-90470799D02*
X138839411Y-90708894D01*
X138839411Y-90708894D02*
X138887030Y-90899370D01*
X138887030Y-90899370D02*
X138934649Y-90994608D01*
X138934649Y-90994608D02*
X138982268Y-91042228D01*
X138982268Y-91042228D02*
X139077506Y-91089847D01*
X139077506Y-91089847D02*
X139172744Y-91089847D01*
X139172744Y-91089847D02*
X139267982Y-91042228D01*
X139267982Y-91042228D02*
X139315601Y-90994608D01*
X139315601Y-90994608D02*
X139363220Y-90899370D01*
X139363220Y-90899370D02*
X139410839Y-90708894D01*
X139410839Y-90708894D02*
X139410839Y-90470799D01*
X139410839Y-90470799D02*
X139363220Y-90280323D01*
X139363220Y-90280323D02*
X139315601Y-90185085D01*
X139315601Y-90185085D02*
X139267982Y-90137466D01*
X139267982Y-90137466D02*
X139172744Y-90089847D01*
X138506077Y-91089847D02*
X137982268Y-90423180D01*
X138506077Y-90423180D02*
X137982268Y-91089847D01*
X137696553Y-90089847D02*
X137077506Y-90089847D01*
X137077506Y-90089847D02*
X137410839Y-90470799D01*
X137410839Y-90470799D02*
X137267982Y-90470799D01*
X137267982Y-90470799D02*
X137172744Y-90518418D01*
X137172744Y-90518418D02*
X137125125Y-90566037D01*
X137125125Y-90566037D02*
X137077506Y-90661275D01*
X137077506Y-90661275D02*
X137077506Y-90899370D01*
X137077506Y-90899370D02*
X137125125Y-90994608D01*
X137125125Y-90994608D02*
X137172744Y-91042228D01*
X137172744Y-91042228D02*
X137267982Y-91089847D01*
X137267982Y-91089847D02*
X137553696Y-91089847D01*
X137553696Y-91089847D02*
X137648934Y-91042228D01*
X137648934Y-91042228D02*
X137696553Y-90994608D01*
X136220363Y-90423180D02*
X136220363Y-91089847D01*
X136458458Y-90042228D02*
X136696553Y-90756513D01*
X136696553Y-90756513D02*
X136077506Y-90756513D01*
X135506077Y-90089847D02*
X135410839Y-90089847D01*
X135410839Y-90089847D02*
X135315601Y-90137466D01*
X135315601Y-90137466D02*
X135267982Y-90185085D01*
X135267982Y-90185085D02*
X135220363Y-90280323D01*
X135220363Y-90280323D02*
X135172744Y-90470799D01*
X135172744Y-90470799D02*
X135172744Y-90708894D01*
X135172744Y-90708894D02*
X135220363Y-90899370D01*
X135220363Y-90899370D02*
X135267982Y-90994608D01*
X135267982Y-90994608D02*
X135315601Y-91042228D01*
X135315601Y-91042228D02*
X135410839Y-91089847D01*
X135410839Y-91089847D02*
X135506077Y-91089847D01*
X135506077Y-91089847D02*
X135601315Y-91042228D01*
X135601315Y-91042228D02*
X135648934Y-90994608D01*
X135648934Y-90994608D02*
X135696553Y-90899370D01*
X135696553Y-90899370D02*
X135744172Y-90708894D01*
X135744172Y-90708894D02*
X135744172Y-90470799D01*
X135744172Y-90470799D02*
X135696553Y-90280323D01*
X135696553Y-90280323D02*
X135648934Y-90185085D01*
X135648934Y-90185085D02*
X135601315Y-90137466D01*
X135601315Y-90137466D02*
X135506077Y-90089847D01*
X139172744Y-91699791D02*
X139077506Y-91699791D01*
X139077506Y-91699791D02*
X138982268Y-91747410D01*
X138982268Y-91747410D02*
X138934649Y-91795029D01*
X138934649Y-91795029D02*
X138887030Y-91890267D01*
X138887030Y-91890267D02*
X138839411Y-92080743D01*
X138839411Y-92080743D02*
X138839411Y-92318838D01*
X138839411Y-92318838D02*
X138887030Y-92509314D01*
X138887030Y-92509314D02*
X138934649Y-92604552D01*
X138934649Y-92604552D02*
X138982268Y-92652172D01*
X138982268Y-92652172D02*
X139077506Y-92699791D01*
X139077506Y-92699791D02*
X139172744Y-92699791D01*
X139172744Y-92699791D02*
X139267982Y-92652172D01*
X139267982Y-92652172D02*
X139315601Y-92604552D01*
X139315601Y-92604552D02*
X139363220Y-92509314D01*
X139363220Y-92509314D02*
X139410839Y-92318838D01*
X139410839Y-92318838D02*
X139410839Y-92080743D01*
X139410839Y-92080743D02*
X139363220Y-91890267D01*
X139363220Y-91890267D02*
X139315601Y-91795029D01*
X139315601Y-91795029D02*
X139267982Y-91747410D01*
X139267982Y-91747410D02*
X139172744Y-91699791D01*
X138506077Y-92699791D02*
X137982268Y-92033124D01*
X138506077Y-92033124D02*
X137982268Y-92699791D01*
X137696553Y-91699791D02*
X137077506Y-91699791D01*
X137077506Y-91699791D02*
X137410839Y-92080743D01*
X137410839Y-92080743D02*
X137267982Y-92080743D01*
X137267982Y-92080743D02*
X137172744Y-92128362D01*
X137172744Y-92128362D02*
X137125125Y-92175981D01*
X137125125Y-92175981D02*
X137077506Y-92271219D01*
X137077506Y-92271219D02*
X137077506Y-92509314D01*
X137077506Y-92509314D02*
X137125125Y-92604552D01*
X137125125Y-92604552D02*
X137172744Y-92652172D01*
X137172744Y-92652172D02*
X137267982Y-92699791D01*
X137267982Y-92699791D02*
X137553696Y-92699791D01*
X137553696Y-92699791D02*
X137648934Y-92652172D01*
X137648934Y-92652172D02*
X137696553Y-92604552D01*
X136220363Y-91699791D02*
X136410839Y-91699791D01*
X136410839Y-91699791D02*
X136506077Y-91747410D01*
X136506077Y-91747410D02*
X136553696Y-91795029D01*
X136553696Y-91795029D02*
X136648934Y-91937886D01*
X136648934Y-91937886D02*
X136696553Y-92128362D01*
X136696553Y-92128362D02*
X136696553Y-92509314D01*
X136696553Y-92509314D02*
X136648934Y-92604552D01*
X136648934Y-92604552D02*
X136601315Y-92652172D01*
X136601315Y-92652172D02*
X136506077Y-92699791D01*
X136506077Y-92699791D02*
X136315601Y-92699791D01*
X136315601Y-92699791D02*
X136220363Y-92652172D01*
X136220363Y-92652172D02*
X136172744Y-92604552D01*
X136172744Y-92604552D02*
X136125125Y-92509314D01*
X136125125Y-92509314D02*
X136125125Y-92271219D01*
X136125125Y-92271219D02*
X136172744Y-92175981D01*
X136172744Y-92175981D02*
X136220363Y-92128362D01*
X136220363Y-92128362D02*
X136315601Y-92080743D01*
X136315601Y-92080743D02*
X136506077Y-92080743D01*
X136506077Y-92080743D02*
X136601315Y-92128362D01*
X136601315Y-92128362D02*
X136648934Y-92175981D01*
X136648934Y-92175981D02*
X136696553Y-92271219D01*
X135506077Y-91699791D02*
X135410839Y-91699791D01*
X135410839Y-91699791D02*
X135315601Y-91747410D01*
X135315601Y-91747410D02*
X135267982Y-91795029D01*
X135267982Y-91795029D02*
X135220363Y-91890267D01*
X135220363Y-91890267D02*
X135172744Y-92080743D01*
X135172744Y-92080743D02*
X135172744Y-92318838D01*
X135172744Y-92318838D02*
X135220363Y-92509314D01*
X135220363Y-92509314D02*
X135267982Y-92604552D01*
X135267982Y-92604552D02*
X135315601Y-92652172D01*
X135315601Y-92652172D02*
X135410839Y-92699791D01*
X135410839Y-92699791D02*
X135506077Y-92699791D01*
X135506077Y-92699791D02*
X135601315Y-92652172D01*
X135601315Y-92652172D02*
X135648934Y-92604552D01*
X135648934Y-92604552D02*
X135696553Y-92509314D01*
X135696553Y-92509314D02*
X135744172Y-92318838D01*
X135744172Y-92318838D02*
X135744172Y-92080743D01*
X135744172Y-92080743D02*
X135696553Y-91890267D01*
X135696553Y-91890267D02*
X135648934Y-91795029D01*
X135648934Y-91795029D02*
X135601315Y-91747410D01*
X135601315Y-91747410D02*
X135506077Y-91699791D01*
X139172744Y-93309735D02*
X139077506Y-93309735D01*
X139077506Y-93309735D02*
X138982268Y-93357354D01*
X138982268Y-93357354D02*
X138934649Y-93404973D01*
X138934649Y-93404973D02*
X138887030Y-93500211D01*
X138887030Y-93500211D02*
X138839411Y-93690687D01*
X138839411Y-93690687D02*
X138839411Y-93928782D01*
X138839411Y-93928782D02*
X138887030Y-94119258D01*
X138887030Y-94119258D02*
X138934649Y-94214496D01*
X138934649Y-94214496D02*
X138982268Y-94262116D01*
X138982268Y-94262116D02*
X139077506Y-94309735D01*
X139077506Y-94309735D02*
X139172744Y-94309735D01*
X139172744Y-94309735D02*
X139267982Y-94262116D01*
X139267982Y-94262116D02*
X139315601Y-94214496D01*
X139315601Y-94214496D02*
X139363220Y-94119258D01*
X139363220Y-94119258D02*
X139410839Y-93928782D01*
X139410839Y-93928782D02*
X139410839Y-93690687D01*
X139410839Y-93690687D02*
X139363220Y-93500211D01*
X139363220Y-93500211D02*
X139315601Y-93404973D01*
X139315601Y-93404973D02*
X139267982Y-93357354D01*
X139267982Y-93357354D02*
X139172744Y-93309735D01*
X138506077Y-94309735D02*
X137982268Y-93643068D01*
X138506077Y-93643068D02*
X137982268Y-94309735D01*
X137696553Y-93309735D02*
X137077506Y-93309735D01*
X137077506Y-93309735D02*
X137410839Y-93690687D01*
X137410839Y-93690687D02*
X137267982Y-93690687D01*
X137267982Y-93690687D02*
X137172744Y-93738306D01*
X137172744Y-93738306D02*
X137125125Y-93785925D01*
X137125125Y-93785925D02*
X137077506Y-93881163D01*
X137077506Y-93881163D02*
X137077506Y-94119258D01*
X137077506Y-94119258D02*
X137125125Y-94214496D01*
X137125125Y-94214496D02*
X137172744Y-94262116D01*
X137172744Y-94262116D02*
X137267982Y-94309735D01*
X137267982Y-94309735D02*
X137553696Y-94309735D01*
X137553696Y-94309735D02*
X137648934Y-94262116D01*
X137648934Y-94262116D02*
X137696553Y-94214496D01*
X136506077Y-93738306D02*
X136601315Y-93690687D01*
X136601315Y-93690687D02*
X136648934Y-93643068D01*
X136648934Y-93643068D02*
X136696553Y-93547830D01*
X136696553Y-93547830D02*
X136696553Y-93500211D01*
X136696553Y-93500211D02*
X136648934Y-93404973D01*
X136648934Y-93404973D02*
X136601315Y-93357354D01*
X136601315Y-93357354D02*
X136506077Y-93309735D01*
X136506077Y-93309735D02*
X136315601Y-93309735D01*
X136315601Y-93309735D02*
X136220363Y-93357354D01*
X136220363Y-93357354D02*
X136172744Y-93404973D01*
X136172744Y-93404973D02*
X136125125Y-93500211D01*
X136125125Y-93500211D02*
X136125125Y-93547830D01*
X136125125Y-93547830D02*
X136172744Y-93643068D01*
X136172744Y-93643068D02*
X136220363Y-93690687D01*
X136220363Y-93690687D02*
X136315601Y-93738306D01*
X136315601Y-93738306D02*
X136506077Y-93738306D01*
X136506077Y-93738306D02*
X136601315Y-93785925D01*
X136601315Y-93785925D02*
X136648934Y-93833544D01*
X136648934Y-93833544D02*
X136696553Y-93928782D01*
X136696553Y-93928782D02*
X136696553Y-94119258D01*
X136696553Y-94119258D02*
X136648934Y-94214496D01*
X136648934Y-94214496D02*
X136601315Y-94262116D01*
X136601315Y-94262116D02*
X136506077Y-94309735D01*
X136506077Y-94309735D02*
X136315601Y-94309735D01*
X136315601Y-94309735D02*
X136220363Y-94262116D01*
X136220363Y-94262116D02*
X136172744Y-94214496D01*
X136172744Y-94214496D02*
X136125125Y-94119258D01*
X136125125Y-94119258D02*
X136125125Y-93928782D01*
X136125125Y-93928782D02*
X136172744Y-93833544D01*
X136172744Y-93833544D02*
X136220363Y-93785925D01*
X136220363Y-93785925D02*
X136315601Y-93738306D01*
X135506077Y-93309735D02*
X135410839Y-93309735D01*
X135410839Y-93309735D02*
X135315601Y-93357354D01*
X135315601Y-93357354D02*
X135267982Y-93404973D01*
X135267982Y-93404973D02*
X135220363Y-93500211D01*
X135220363Y-93500211D02*
X135172744Y-93690687D01*
X135172744Y-93690687D02*
X135172744Y-93928782D01*
X135172744Y-93928782D02*
X135220363Y-94119258D01*
X135220363Y-94119258D02*
X135267982Y-94214496D01*
X135267982Y-94214496D02*
X135315601Y-94262116D01*
X135315601Y-94262116D02*
X135410839Y-94309735D01*
X135410839Y-94309735D02*
X135506077Y-94309735D01*
X135506077Y-94309735D02*
X135601315Y-94262116D01*
X135601315Y-94262116D02*
X135648934Y-94214496D01*
X135648934Y-94214496D02*
X135696553Y-94119258D01*
X135696553Y-94119258D02*
X135744172Y-93928782D01*
X135744172Y-93928782D02*
X135744172Y-93690687D01*
X135744172Y-93690687D02*
X135696553Y-93500211D01*
X135696553Y-93500211D02*
X135648934Y-93404973D01*
X135648934Y-93404973D02*
X135601315Y-93357354D01*
X135601315Y-93357354D02*
X135506077Y-93309735D01*
X139172744Y-94919679D02*
X139077506Y-94919679D01*
X139077506Y-94919679D02*
X138982268Y-94967298D01*
X138982268Y-94967298D02*
X138934649Y-95014917D01*
X138934649Y-95014917D02*
X138887030Y-95110155D01*
X138887030Y-95110155D02*
X138839411Y-95300631D01*
X138839411Y-95300631D02*
X138839411Y-95538726D01*
X138839411Y-95538726D02*
X138887030Y-95729202D01*
X138887030Y-95729202D02*
X138934649Y-95824440D01*
X138934649Y-95824440D02*
X138982268Y-95872060D01*
X138982268Y-95872060D02*
X139077506Y-95919679D01*
X139077506Y-95919679D02*
X139172744Y-95919679D01*
X139172744Y-95919679D02*
X139267982Y-95872060D01*
X139267982Y-95872060D02*
X139315601Y-95824440D01*
X139315601Y-95824440D02*
X139363220Y-95729202D01*
X139363220Y-95729202D02*
X139410839Y-95538726D01*
X139410839Y-95538726D02*
X139410839Y-95300631D01*
X139410839Y-95300631D02*
X139363220Y-95110155D01*
X139363220Y-95110155D02*
X139315601Y-95014917D01*
X139315601Y-95014917D02*
X139267982Y-94967298D01*
X139267982Y-94967298D02*
X139172744Y-94919679D01*
X138506077Y-95919679D02*
X137982268Y-95253012D01*
X138506077Y-95253012D02*
X137982268Y-95919679D01*
X137696553Y-94919679D02*
X137077506Y-94919679D01*
X137077506Y-94919679D02*
X137410839Y-95300631D01*
X137410839Y-95300631D02*
X137267982Y-95300631D01*
X137267982Y-95300631D02*
X137172744Y-95348250D01*
X137172744Y-95348250D02*
X137125125Y-95395869D01*
X137125125Y-95395869D02*
X137077506Y-95491107D01*
X137077506Y-95491107D02*
X137077506Y-95729202D01*
X137077506Y-95729202D02*
X137125125Y-95824440D01*
X137125125Y-95824440D02*
X137172744Y-95872060D01*
X137172744Y-95872060D02*
X137267982Y-95919679D01*
X137267982Y-95919679D02*
X137553696Y-95919679D01*
X137553696Y-95919679D02*
X137648934Y-95872060D01*
X137648934Y-95872060D02*
X137696553Y-95824440D01*
X136696553Y-95633964D02*
X136220363Y-95633964D01*
X136791791Y-95919679D02*
X136458458Y-94919679D01*
X136458458Y-94919679D02*
X136125125Y-95919679D01*
X135601315Y-94919679D02*
X135506077Y-94919679D01*
X135506077Y-94919679D02*
X135410839Y-94967298D01*
X135410839Y-94967298D02*
X135363220Y-95014917D01*
X135363220Y-95014917D02*
X135315601Y-95110155D01*
X135315601Y-95110155D02*
X135267982Y-95300631D01*
X135267982Y-95300631D02*
X135267982Y-95538726D01*
X135267982Y-95538726D02*
X135315601Y-95729202D01*
X135315601Y-95729202D02*
X135363220Y-95824440D01*
X135363220Y-95824440D02*
X135410839Y-95872060D01*
X135410839Y-95872060D02*
X135506077Y-95919679D01*
X135506077Y-95919679D02*
X135601315Y-95919679D01*
X135601315Y-95919679D02*
X135696553Y-95872060D01*
X135696553Y-95872060D02*
X135744172Y-95824440D01*
X135744172Y-95824440D02*
X135791791Y-95729202D01*
X135791791Y-95729202D02*
X135839410Y-95538726D01*
X135839410Y-95538726D02*
X135839410Y-95300631D01*
X135839410Y-95300631D02*
X135791791Y-95110155D01*
X135791791Y-95110155D02*
X135744172Y-95014917D01*
X135744172Y-95014917D02*
X135696553Y-94967298D01*
X135696553Y-94967298D02*
X135601315Y-94919679D01*
X139172744Y-96529623D02*
X139077506Y-96529623D01*
X139077506Y-96529623D02*
X138982268Y-96577242D01*
X138982268Y-96577242D02*
X138934649Y-96624861D01*
X138934649Y-96624861D02*
X138887030Y-96720099D01*
X138887030Y-96720099D02*
X138839411Y-96910575D01*
X138839411Y-96910575D02*
X138839411Y-97148670D01*
X138839411Y-97148670D02*
X138887030Y-97339146D01*
X138887030Y-97339146D02*
X138934649Y-97434384D01*
X138934649Y-97434384D02*
X138982268Y-97482004D01*
X138982268Y-97482004D02*
X139077506Y-97529623D01*
X139077506Y-97529623D02*
X139172744Y-97529623D01*
X139172744Y-97529623D02*
X139267982Y-97482004D01*
X139267982Y-97482004D02*
X139315601Y-97434384D01*
X139315601Y-97434384D02*
X139363220Y-97339146D01*
X139363220Y-97339146D02*
X139410839Y-97148670D01*
X139410839Y-97148670D02*
X139410839Y-96910575D01*
X139410839Y-96910575D02*
X139363220Y-96720099D01*
X139363220Y-96720099D02*
X139315601Y-96624861D01*
X139315601Y-96624861D02*
X139267982Y-96577242D01*
X139267982Y-96577242D02*
X139172744Y-96529623D01*
X138506077Y-97529623D02*
X137982268Y-96862956D01*
X138506077Y-96862956D02*
X137982268Y-97529623D01*
X137696553Y-96529623D02*
X137077506Y-96529623D01*
X137077506Y-96529623D02*
X137410839Y-96910575D01*
X137410839Y-96910575D02*
X137267982Y-96910575D01*
X137267982Y-96910575D02*
X137172744Y-96958194D01*
X137172744Y-96958194D02*
X137125125Y-97005813D01*
X137125125Y-97005813D02*
X137077506Y-97101051D01*
X137077506Y-97101051D02*
X137077506Y-97339146D01*
X137077506Y-97339146D02*
X137125125Y-97434384D01*
X137125125Y-97434384D02*
X137172744Y-97482004D01*
X137172744Y-97482004D02*
X137267982Y-97529623D01*
X137267982Y-97529623D02*
X137553696Y-97529623D01*
X137553696Y-97529623D02*
X137648934Y-97482004D01*
X137648934Y-97482004D02*
X137696553Y-97434384D01*
X136077506Y-97434384D02*
X136125125Y-97482004D01*
X136125125Y-97482004D02*
X136267982Y-97529623D01*
X136267982Y-97529623D02*
X136363220Y-97529623D01*
X136363220Y-97529623D02*
X136506077Y-97482004D01*
X136506077Y-97482004D02*
X136601315Y-97386765D01*
X136601315Y-97386765D02*
X136648934Y-97291527D01*
X136648934Y-97291527D02*
X136696553Y-97101051D01*
X136696553Y-97101051D02*
X136696553Y-96958194D01*
X136696553Y-96958194D02*
X136648934Y-96767718D01*
X136648934Y-96767718D02*
X136601315Y-96672480D01*
X136601315Y-96672480D02*
X136506077Y-96577242D01*
X136506077Y-96577242D02*
X136363220Y-96529623D01*
X136363220Y-96529623D02*
X136267982Y-96529623D01*
X136267982Y-96529623D02*
X136125125Y-96577242D01*
X136125125Y-96577242D02*
X136077506Y-96624861D01*
X135458458Y-96529623D02*
X135363220Y-96529623D01*
X135363220Y-96529623D02*
X135267982Y-96577242D01*
X135267982Y-96577242D02*
X135220363Y-96624861D01*
X135220363Y-96624861D02*
X135172744Y-96720099D01*
X135172744Y-96720099D02*
X135125125Y-96910575D01*
X135125125Y-96910575D02*
X135125125Y-97148670D01*
X135125125Y-97148670D02*
X135172744Y-97339146D01*
X135172744Y-97339146D02*
X135220363Y-97434384D01*
X135220363Y-97434384D02*
X135267982Y-97482004D01*
X135267982Y-97482004D02*
X135363220Y-97529623D01*
X135363220Y-97529623D02*
X135458458Y-97529623D01*
X135458458Y-97529623D02*
X135553696Y-97482004D01*
X135553696Y-97482004D02*
X135601315Y-97434384D01*
X135601315Y-97434384D02*
X135648934Y-97339146D01*
X135648934Y-97339146D02*
X135696553Y-97148670D01*
X135696553Y-97148670D02*
X135696553Y-96910575D01*
X135696553Y-96910575D02*
X135648934Y-96720099D01*
X135648934Y-96720099D02*
X135601315Y-96624861D01*
X135601315Y-96624861D02*
X135553696Y-96577242D01*
X135553696Y-96577242D02*
X135458458Y-96529623D01*
X139172744Y-98139567D02*
X139077506Y-98139567D01*
X139077506Y-98139567D02*
X138982268Y-98187186D01*
X138982268Y-98187186D02*
X138934649Y-98234805D01*
X138934649Y-98234805D02*
X138887030Y-98330043D01*
X138887030Y-98330043D02*
X138839411Y-98520519D01*
X138839411Y-98520519D02*
X138839411Y-98758614D01*
X138839411Y-98758614D02*
X138887030Y-98949090D01*
X138887030Y-98949090D02*
X138934649Y-99044328D01*
X138934649Y-99044328D02*
X138982268Y-99091948D01*
X138982268Y-99091948D02*
X139077506Y-99139567D01*
X139077506Y-99139567D02*
X139172744Y-99139567D01*
X139172744Y-99139567D02*
X139267982Y-99091948D01*
X139267982Y-99091948D02*
X139315601Y-99044328D01*
X139315601Y-99044328D02*
X139363220Y-98949090D01*
X139363220Y-98949090D02*
X139410839Y-98758614D01*
X139410839Y-98758614D02*
X139410839Y-98520519D01*
X139410839Y-98520519D02*
X139363220Y-98330043D01*
X139363220Y-98330043D02*
X139315601Y-98234805D01*
X139315601Y-98234805D02*
X139267982Y-98187186D01*
X139267982Y-98187186D02*
X139172744Y-98139567D01*
X138506077Y-99139567D02*
X137982268Y-98472900D01*
X138506077Y-98472900D02*
X137982268Y-99139567D01*
X137696553Y-98139567D02*
X137077506Y-98139567D01*
X137077506Y-98139567D02*
X137410839Y-98520519D01*
X137410839Y-98520519D02*
X137267982Y-98520519D01*
X137267982Y-98520519D02*
X137172744Y-98568138D01*
X137172744Y-98568138D02*
X137125125Y-98615757D01*
X137125125Y-98615757D02*
X137077506Y-98710995D01*
X137077506Y-98710995D02*
X137077506Y-98949090D01*
X137077506Y-98949090D02*
X137125125Y-99044328D01*
X137125125Y-99044328D02*
X137172744Y-99091948D01*
X137172744Y-99091948D02*
X137267982Y-99139567D01*
X137267982Y-99139567D02*
X137553696Y-99139567D01*
X137553696Y-99139567D02*
X137648934Y-99091948D01*
X137648934Y-99091948D02*
X137696553Y-99044328D01*
X136648934Y-98615757D02*
X136315601Y-98615757D01*
X136172744Y-99139567D02*
X136648934Y-99139567D01*
X136648934Y-99139567D02*
X136648934Y-98139567D01*
X136648934Y-98139567D02*
X136172744Y-98139567D01*
X135553696Y-98139567D02*
X135458458Y-98139567D01*
X135458458Y-98139567D02*
X135363220Y-98187186D01*
X135363220Y-98187186D02*
X135315601Y-98234805D01*
X135315601Y-98234805D02*
X135267982Y-98330043D01*
X135267982Y-98330043D02*
X135220363Y-98520519D01*
X135220363Y-98520519D02*
X135220363Y-98758614D01*
X135220363Y-98758614D02*
X135267982Y-98949090D01*
X135267982Y-98949090D02*
X135315601Y-99044328D01*
X135315601Y-99044328D02*
X135363220Y-99091948D01*
X135363220Y-99091948D02*
X135458458Y-99139567D01*
X135458458Y-99139567D02*
X135553696Y-99139567D01*
X135553696Y-99139567D02*
X135648934Y-99091948D01*
X135648934Y-99091948D02*
X135696553Y-99044328D01*
X135696553Y-99044328D02*
X135744172Y-98949090D01*
X135744172Y-98949090D02*
X135791791Y-98758614D01*
X135791791Y-98758614D02*
X135791791Y-98520519D01*
X135791791Y-98520519D02*
X135744172Y-98330043D01*
X135744172Y-98330043D02*
X135696553Y-98234805D01*
X135696553Y-98234805D02*
X135648934Y-98187186D01*
X135648934Y-98187186D02*
X135553696Y-98139567D01*
X139410839Y-80247228D02*
X139267982Y-80294847D01*
X139267982Y-80294847D02*
X139029887Y-80294847D01*
X139029887Y-80294847D02*
X138934649Y-80247228D01*
X138934649Y-80247228D02*
X138887030Y-80199608D01*
X138887030Y-80199608D02*
X138839411Y-80104370D01*
X138839411Y-80104370D02*
X138839411Y-80009132D01*
X138839411Y-80009132D02*
X138887030Y-79913894D01*
X138887030Y-79913894D02*
X138934649Y-79866275D01*
X138934649Y-79866275D02*
X139029887Y-79818656D01*
X139029887Y-79818656D02*
X139220363Y-79771037D01*
X139220363Y-79771037D02*
X139315601Y-79723418D01*
X139315601Y-79723418D02*
X139363220Y-79675799D01*
X139363220Y-79675799D02*
X139410839Y-79580561D01*
X139410839Y-79580561D02*
X139410839Y-79485323D01*
X139410839Y-79485323D02*
X139363220Y-79390085D01*
X139363220Y-79390085D02*
X139315601Y-79342466D01*
X139315601Y-79342466D02*
X139220363Y-79294847D01*
X139220363Y-79294847D02*
X138982268Y-79294847D01*
X138982268Y-79294847D02*
X138839411Y-79342466D01*
X138506077Y-79294847D02*
X138267982Y-80294847D01*
X138267982Y-80294847D02*
X138077506Y-79580561D01*
X138077506Y-79580561D02*
X137887030Y-80294847D01*
X137887030Y-80294847D02*
X137648935Y-79294847D01*
X136744173Y-80294847D02*
X137315601Y-80294847D01*
X137029887Y-80294847D02*
X137029887Y-79294847D01*
X137029887Y-79294847D02*
X137125125Y-79437704D01*
X137125125Y-79437704D02*
X137220363Y-79532942D01*
X137220363Y-79532942D02*
X137315601Y-79580561D01*
X136315601Y-80199608D02*
X136267982Y-80247228D01*
X136267982Y-80247228D02*
X136315601Y-80294847D01*
X136315601Y-80294847D02*
X136363220Y-80247228D01*
X136363220Y-80247228D02*
X136315601Y-80199608D01*
X136315601Y-80199608D02*
X136315601Y-80294847D01*
X135315602Y-80294847D02*
X135887030Y-80294847D01*
X135601316Y-80294847D02*
X135601316Y-79294847D01*
X135601316Y-79294847D02*
X135696554Y-79437704D01*
X135696554Y-79437704D02*
X135791792Y-79532942D01*
X135791792Y-79532942D02*
X135887030Y-79580561D01*
X134887030Y-80199608D02*
X134839411Y-80247228D01*
X134839411Y-80247228D02*
X134887030Y-80294847D01*
X134887030Y-80294847D02*
X134934649Y-80247228D01*
X134934649Y-80247228D02*
X134887030Y-80199608D01*
X134887030Y-80199608D02*
X134887030Y-80294847D01*
X134887030Y-79675799D02*
X134839411Y-79723418D01*
X134839411Y-79723418D02*
X134887030Y-79771037D01*
X134887030Y-79771037D02*
X134934649Y-79723418D01*
X134934649Y-79723418D02*
X134887030Y-79675799D01*
X134887030Y-79675799D02*
X134887030Y-79771037D01*
X133458459Y-79294847D02*
X133267983Y-79294847D01*
X133267983Y-79294847D02*
X133172745Y-79342466D01*
X133172745Y-79342466D02*
X133077507Y-79437704D01*
X133077507Y-79437704D02*
X133029888Y-79628180D01*
X133029888Y-79628180D02*
X133029888Y-79961513D01*
X133029888Y-79961513D02*
X133077507Y-80151989D01*
X133077507Y-80151989D02*
X133172745Y-80247228D01*
X133172745Y-80247228D02*
X133267983Y-80294847D01*
X133267983Y-80294847D02*
X133458459Y-80294847D01*
X133458459Y-80294847D02*
X133553697Y-80247228D01*
X133553697Y-80247228D02*
X133648935Y-80151989D01*
X133648935Y-80151989D02*
X133696554Y-79961513D01*
X133696554Y-79961513D02*
X133696554Y-79628180D01*
X133696554Y-79628180D02*
X133648935Y-79437704D01*
X133648935Y-79437704D02*
X133553697Y-79342466D01*
X133553697Y-79342466D02*
X133458459Y-79294847D01*
X132267983Y-79771037D02*
X132601316Y-79771037D01*
X132601316Y-80294847D02*
X132601316Y-79294847D01*
X132601316Y-79294847D02*
X132125126Y-79294847D01*
X131410840Y-79771037D02*
X131744173Y-79771037D01*
X131744173Y-80294847D02*
X131744173Y-79294847D01*
X131744173Y-79294847D02*
X131267983Y-79294847D01*
X130125125Y-79913894D02*
X129363221Y-79913894D01*
X127839411Y-79294847D02*
X127839411Y-80009132D01*
X127839411Y-80009132D02*
X127887030Y-80151989D01*
X127887030Y-80151989D02*
X127982268Y-80247228D01*
X127982268Y-80247228D02*
X128125125Y-80294847D01*
X128125125Y-80294847D02*
X128220363Y-80294847D01*
X126934649Y-79628180D02*
X126934649Y-80294847D01*
X127363220Y-79628180D02*
X127363220Y-80151989D01*
X127363220Y-80151989D02*
X127315601Y-80247228D01*
X127315601Y-80247228D02*
X127220363Y-80294847D01*
X127220363Y-80294847D02*
X127077506Y-80294847D01*
X127077506Y-80294847D02*
X126982268Y-80247228D01*
X126982268Y-80247228D02*
X126934649Y-80199608D01*
X126458458Y-80294847D02*
X126458458Y-79628180D01*
X126458458Y-79723418D02*
X126410839Y-79675799D01*
X126410839Y-79675799D02*
X126315601Y-79628180D01*
X126315601Y-79628180D02*
X126172744Y-79628180D01*
X126172744Y-79628180D02*
X126077506Y-79675799D01*
X126077506Y-79675799D02*
X126029887Y-79771037D01*
X126029887Y-79771037D02*
X126029887Y-80294847D01*
X126029887Y-79771037D02*
X125982268Y-79675799D01*
X125982268Y-79675799D02*
X125887030Y-79628180D01*
X125887030Y-79628180D02*
X125744173Y-79628180D01*
X125744173Y-79628180D02*
X125648934Y-79675799D01*
X125648934Y-79675799D02*
X125601315Y-79771037D01*
X125601315Y-79771037D02*
X125601315Y-80294847D01*
X125125125Y-79628180D02*
X125125125Y-80628180D01*
X125125125Y-79675799D02*
X125029887Y-79628180D01*
X125029887Y-79628180D02*
X124839411Y-79628180D01*
X124839411Y-79628180D02*
X124744173Y-79675799D01*
X124744173Y-79675799D02*
X124696554Y-79723418D01*
X124696554Y-79723418D02*
X124648935Y-79818656D01*
X124648935Y-79818656D02*
X124648935Y-80104370D01*
X124648935Y-80104370D02*
X124696554Y-80199608D01*
X124696554Y-80199608D02*
X124744173Y-80247228D01*
X124744173Y-80247228D02*
X124839411Y-80294847D01*
X124839411Y-80294847D02*
X125029887Y-80294847D01*
X125029887Y-80294847D02*
X125125125Y-80247228D01*
X123839411Y-80247228D02*
X123934649Y-80294847D01*
X123934649Y-80294847D02*
X124125125Y-80294847D01*
X124125125Y-80294847D02*
X124220363Y-80247228D01*
X124220363Y-80247228D02*
X124267982Y-80151989D01*
X124267982Y-80151989D02*
X124267982Y-79771037D01*
X124267982Y-79771037D02*
X124220363Y-79675799D01*
X124220363Y-79675799D02*
X124125125Y-79628180D01*
X124125125Y-79628180D02*
X123934649Y-79628180D01*
X123934649Y-79628180D02*
X123839411Y-79675799D01*
X123839411Y-79675799D02*
X123791792Y-79771037D01*
X123791792Y-79771037D02*
X123791792Y-79866275D01*
X123791792Y-79866275D02*
X124267982Y-79961513D01*
X123363220Y-80294847D02*
X123363220Y-79628180D01*
X123363220Y-79818656D02*
X123315601Y-79723418D01*
X123315601Y-79723418D02*
X123267982Y-79675799D01*
X123267982Y-79675799D02*
X123172744Y-79628180D01*
X123172744Y-79628180D02*
X123077506Y-79628180D01*
X122601315Y-80294847D02*
X122696553Y-80247228D01*
X122696553Y-80247228D02*
X122744172Y-80151989D01*
X122744172Y-80151989D02*
X122744172Y-79294847D01*
X121839410Y-80247228D02*
X121934648Y-80294847D01*
X121934648Y-80294847D02*
X122125124Y-80294847D01*
X122125124Y-80294847D02*
X122220362Y-80247228D01*
X122220362Y-80247228D02*
X122267981Y-80151989D01*
X122267981Y-80151989D02*
X122267981Y-79771037D01*
X122267981Y-79771037D02*
X122220362Y-79675799D01*
X122220362Y-79675799D02*
X122125124Y-79628180D01*
X122125124Y-79628180D02*
X121934648Y-79628180D01*
X121934648Y-79628180D02*
X121839410Y-79675799D01*
X121839410Y-79675799D02*
X121791791Y-79771037D01*
X121791791Y-79771037D02*
X121791791Y-79866275D01*
X121791791Y-79866275D02*
X122267981Y-79961513D01*
X121410838Y-80247228D02*
X121315600Y-80294847D01*
X121315600Y-80294847D02*
X121125124Y-80294847D01*
X121125124Y-80294847D02*
X121029886Y-80247228D01*
X121029886Y-80247228D02*
X120982267Y-80151989D01*
X120982267Y-80151989D02*
X120982267Y-80104370D01*
X120982267Y-80104370D02*
X121029886Y-80009132D01*
X121029886Y-80009132D02*
X121125124Y-79961513D01*
X121125124Y-79961513D02*
X121267981Y-79961513D01*
X121267981Y-79961513D02*
X121363219Y-79913894D01*
X121363219Y-79913894D02*
X121410838Y-79818656D01*
X121410838Y-79818656D02*
X121410838Y-79771037D01*
X121410838Y-79771037D02*
X121363219Y-79675799D01*
X121363219Y-79675799D02*
X121267981Y-79628180D01*
X121267981Y-79628180D02*
X121125124Y-79628180D01*
X121125124Y-79628180D02*
X121029886Y-79675799D01*
X120601314Y-80247228D02*
X120506076Y-80294847D01*
X120506076Y-80294847D02*
X120315600Y-80294847D01*
X120315600Y-80294847D02*
X120220362Y-80247228D01*
X120220362Y-80247228D02*
X120172743Y-80151989D01*
X120172743Y-80151989D02*
X120172743Y-80104370D01*
X120172743Y-80104370D02*
X120220362Y-80009132D01*
X120220362Y-80009132D02*
X120315600Y-79961513D01*
X120315600Y-79961513D02*
X120458457Y-79961513D01*
X120458457Y-79961513D02*
X120553695Y-79913894D01*
X120553695Y-79913894D02*
X120601314Y-79818656D01*
X120601314Y-79818656D02*
X120601314Y-79771037D01*
X120601314Y-79771037D02*
X120553695Y-79675799D01*
X120553695Y-79675799D02*
X120458457Y-79628180D01*
X120458457Y-79628180D02*
X120315600Y-79628180D01*
X120315600Y-79628180D02*
X120220362Y-79675799D01*
X119696552Y-80247228D02*
X119696552Y-80294847D01*
X119696552Y-80294847D02*
X119744171Y-80390085D01*
X119744171Y-80390085D02*
X119791790Y-80437704D01*
X119744171Y-79675799D02*
X119696552Y-79723418D01*
X119696552Y-79723418D02*
X119744171Y-79771037D01*
X119744171Y-79771037D02*
X119791790Y-79723418D01*
X119791790Y-79723418D02*
X119744171Y-79675799D01*
X119744171Y-79675799D02*
X119744171Y-79771037D01*
X118315600Y-79294847D02*
X118125124Y-79294847D01*
X118125124Y-79294847D02*
X118029886Y-79342466D01*
X118029886Y-79342466D02*
X117934648Y-79437704D01*
X117934648Y-79437704D02*
X117887029Y-79628180D01*
X117887029Y-79628180D02*
X117887029Y-79961513D01*
X117887029Y-79961513D02*
X117934648Y-80151989D01*
X117934648Y-80151989D02*
X118029886Y-80247228D01*
X118029886Y-80247228D02*
X118125124Y-80294847D01*
X118125124Y-80294847D02*
X118315600Y-80294847D01*
X118315600Y-80294847D02*
X118410838Y-80247228D01*
X118410838Y-80247228D02*
X118506076Y-80151989D01*
X118506076Y-80151989D02*
X118553695Y-79961513D01*
X118553695Y-79961513D02*
X118553695Y-79628180D01*
X118553695Y-79628180D02*
X118506076Y-79437704D01*
X118506076Y-79437704D02*
X118410838Y-79342466D01*
X118410838Y-79342466D02*
X118315600Y-79294847D01*
X117458457Y-80294847D02*
X117458457Y-79294847D01*
X117458457Y-79294847D02*
X116887029Y-80294847D01*
X116887029Y-80294847D02*
X116887029Y-79294847D01*
X115648933Y-79913894D02*
X114887029Y-79913894D01*
X113696552Y-80247228D02*
X113553695Y-80294847D01*
X113553695Y-80294847D02*
X113315600Y-80294847D01*
X113315600Y-80294847D02*
X113220362Y-80247228D01*
X113220362Y-80247228D02*
X113172743Y-80199608D01*
X113172743Y-80199608D02*
X113125124Y-80104370D01*
X113125124Y-80104370D02*
X113125124Y-80009132D01*
X113125124Y-80009132D02*
X113172743Y-79913894D01*
X113172743Y-79913894D02*
X113220362Y-79866275D01*
X113220362Y-79866275D02*
X113315600Y-79818656D01*
X113315600Y-79818656D02*
X113506076Y-79771037D01*
X113506076Y-79771037D02*
X113601314Y-79723418D01*
X113601314Y-79723418D02*
X113648933Y-79675799D01*
X113648933Y-79675799D02*
X113696552Y-79580561D01*
X113696552Y-79580561D02*
X113696552Y-79485323D01*
X113696552Y-79485323D02*
X113648933Y-79390085D01*
X113648933Y-79390085D02*
X113601314Y-79342466D01*
X113601314Y-79342466D02*
X113506076Y-79294847D01*
X113506076Y-79294847D02*
X113267981Y-79294847D01*
X113267981Y-79294847D02*
X113125124Y-79342466D01*
X112791790Y-79628180D02*
X112601314Y-80294847D01*
X112601314Y-80294847D02*
X112410838Y-79818656D01*
X112410838Y-79818656D02*
X112220362Y-80294847D01*
X112220362Y-80294847D02*
X112029886Y-79628180D01*
X111648933Y-80294847D02*
X111648933Y-79628180D01*
X111648933Y-79294847D02*
X111696552Y-79342466D01*
X111696552Y-79342466D02*
X111648933Y-79390085D01*
X111648933Y-79390085D02*
X111601314Y-79342466D01*
X111601314Y-79342466D02*
X111648933Y-79294847D01*
X111648933Y-79294847D02*
X111648933Y-79390085D01*
X111315600Y-79628180D02*
X110934648Y-79628180D01*
X111172743Y-79294847D02*
X111172743Y-80151989D01*
X111172743Y-80151989D02*
X111125124Y-80247228D01*
X111125124Y-80247228D02*
X111029886Y-80294847D01*
X111029886Y-80294847D02*
X110934648Y-80294847D01*
X110172743Y-80247228D02*
X110267981Y-80294847D01*
X110267981Y-80294847D02*
X110458457Y-80294847D01*
X110458457Y-80294847D02*
X110553695Y-80247228D01*
X110553695Y-80247228D02*
X110601314Y-80199608D01*
X110601314Y-80199608D02*
X110648933Y-80104370D01*
X110648933Y-80104370D02*
X110648933Y-79818656D01*
X110648933Y-79818656D02*
X110601314Y-79723418D01*
X110601314Y-79723418D02*
X110553695Y-79675799D01*
X110553695Y-79675799D02*
X110458457Y-79628180D01*
X110458457Y-79628180D02*
X110267981Y-79628180D01*
X110267981Y-79628180D02*
X110172743Y-79675799D01*
X109744171Y-80294847D02*
X109744171Y-79294847D01*
X109315600Y-80294847D02*
X109315600Y-79771037D01*
X109315600Y-79771037D02*
X109363219Y-79675799D01*
X109363219Y-79675799D02*
X109458457Y-79628180D01*
X109458457Y-79628180D02*
X109601314Y-79628180D01*
X109601314Y-79628180D02*
X109696552Y-79675799D01*
X109696552Y-79675799D02*
X109744171Y-79723418D01*
X108458457Y-80247228D02*
X108553695Y-80294847D01*
X108553695Y-80294847D02*
X108744171Y-80294847D01*
X108744171Y-80294847D02*
X108839409Y-80247228D01*
X108839409Y-80247228D02*
X108887028Y-80151989D01*
X108887028Y-80151989D02*
X108887028Y-79771037D01*
X108887028Y-79771037D02*
X108839409Y-79675799D01*
X108839409Y-79675799D02*
X108744171Y-79628180D01*
X108744171Y-79628180D02*
X108553695Y-79628180D01*
X108553695Y-79628180D02*
X108458457Y-79675799D01*
X108458457Y-79675799D02*
X108410838Y-79771037D01*
X108410838Y-79771037D02*
X108410838Y-79866275D01*
X108410838Y-79866275D02*
X108887028Y-79961513D01*
X108029885Y-80247228D02*
X107934647Y-80294847D01*
X107934647Y-80294847D02*
X107744171Y-80294847D01*
X107744171Y-80294847D02*
X107648933Y-80247228D01*
X107648933Y-80247228D02*
X107601314Y-80151989D01*
X107601314Y-80151989D02*
X107601314Y-80104370D01*
X107601314Y-80104370D02*
X107648933Y-80009132D01*
X107648933Y-80009132D02*
X107744171Y-79961513D01*
X107744171Y-79961513D02*
X107887028Y-79961513D01*
X107887028Y-79961513D02*
X107982266Y-79913894D01*
X107982266Y-79913894D02*
X108029885Y-79818656D01*
X108029885Y-79818656D02*
X108029885Y-79771037D01*
X108029885Y-79771037D02*
X107982266Y-79675799D01*
X107982266Y-79675799D02*
X107887028Y-79628180D01*
X107887028Y-79628180D02*
X107744171Y-79628180D01*
X107744171Y-79628180D02*
X107648933Y-79675799D01*
X139410839Y-81857172D02*
X139267982Y-81904791D01*
X139267982Y-81904791D02*
X139029887Y-81904791D01*
X139029887Y-81904791D02*
X138934649Y-81857172D01*
X138934649Y-81857172D02*
X138887030Y-81809552D01*
X138887030Y-81809552D02*
X138839411Y-81714314D01*
X138839411Y-81714314D02*
X138839411Y-81619076D01*
X138839411Y-81619076D02*
X138887030Y-81523838D01*
X138887030Y-81523838D02*
X138934649Y-81476219D01*
X138934649Y-81476219D02*
X139029887Y-81428600D01*
X139029887Y-81428600D02*
X139220363Y-81380981D01*
X139220363Y-81380981D02*
X139315601Y-81333362D01*
X139315601Y-81333362D02*
X139363220Y-81285743D01*
X139363220Y-81285743D02*
X139410839Y-81190505D01*
X139410839Y-81190505D02*
X139410839Y-81095267D01*
X139410839Y-81095267D02*
X139363220Y-81000029D01*
X139363220Y-81000029D02*
X139315601Y-80952410D01*
X139315601Y-80952410D02*
X139220363Y-80904791D01*
X139220363Y-80904791D02*
X138982268Y-80904791D01*
X138982268Y-80904791D02*
X138839411Y-80952410D01*
X138506077Y-80904791D02*
X138267982Y-81904791D01*
X138267982Y-81904791D02*
X138077506Y-81190505D01*
X138077506Y-81190505D02*
X137887030Y-81904791D01*
X137887030Y-81904791D02*
X137648935Y-80904791D01*
X136744173Y-81904791D02*
X137315601Y-81904791D01*
X137029887Y-81904791D02*
X137029887Y-80904791D01*
X137029887Y-80904791D02*
X137125125Y-81047648D01*
X137125125Y-81047648D02*
X137220363Y-81142886D01*
X137220363Y-81142886D02*
X137315601Y-81190505D01*
X136315601Y-81809552D02*
X136267982Y-81857172D01*
X136267982Y-81857172D02*
X136315601Y-81904791D01*
X136315601Y-81904791D02*
X136363220Y-81857172D01*
X136363220Y-81857172D02*
X136315601Y-81809552D01*
X136315601Y-81809552D02*
X136315601Y-81904791D01*
X135887030Y-81000029D02*
X135839411Y-80952410D01*
X135839411Y-80952410D02*
X135744173Y-80904791D01*
X135744173Y-80904791D02*
X135506078Y-80904791D01*
X135506078Y-80904791D02*
X135410840Y-80952410D01*
X135410840Y-80952410D02*
X135363221Y-81000029D01*
X135363221Y-81000029D02*
X135315602Y-81095267D01*
X135315602Y-81095267D02*
X135315602Y-81190505D01*
X135315602Y-81190505D02*
X135363221Y-81333362D01*
X135363221Y-81333362D02*
X135934649Y-81904791D01*
X135934649Y-81904791D02*
X135315602Y-81904791D01*
X134887030Y-81809552D02*
X134839411Y-81857172D01*
X134839411Y-81857172D02*
X134887030Y-81904791D01*
X134887030Y-81904791D02*
X134934649Y-81857172D01*
X134934649Y-81857172D02*
X134887030Y-81809552D01*
X134887030Y-81809552D02*
X134887030Y-81904791D01*
X134887030Y-81285743D02*
X134839411Y-81333362D01*
X134839411Y-81333362D02*
X134887030Y-81380981D01*
X134887030Y-81380981D02*
X134934649Y-81333362D01*
X134934649Y-81333362D02*
X134887030Y-81285743D01*
X134887030Y-81285743D02*
X134887030Y-81380981D01*
X133458459Y-80904791D02*
X133267983Y-80904791D01*
X133267983Y-80904791D02*
X133172745Y-80952410D01*
X133172745Y-80952410D02*
X133077507Y-81047648D01*
X133077507Y-81047648D02*
X133029888Y-81238124D01*
X133029888Y-81238124D02*
X133029888Y-81571457D01*
X133029888Y-81571457D02*
X133077507Y-81761933D01*
X133077507Y-81761933D02*
X133172745Y-81857172D01*
X133172745Y-81857172D02*
X133267983Y-81904791D01*
X133267983Y-81904791D02*
X133458459Y-81904791D01*
X133458459Y-81904791D02*
X133553697Y-81857172D01*
X133553697Y-81857172D02*
X133648935Y-81761933D01*
X133648935Y-81761933D02*
X133696554Y-81571457D01*
X133696554Y-81571457D02*
X133696554Y-81238124D01*
X133696554Y-81238124D02*
X133648935Y-81047648D01*
X133648935Y-81047648D02*
X133553697Y-80952410D01*
X133553697Y-80952410D02*
X133458459Y-80904791D01*
X132267983Y-81380981D02*
X132601316Y-81380981D01*
X132601316Y-81904791D02*
X132601316Y-80904791D01*
X132601316Y-80904791D02*
X132125126Y-80904791D01*
X131410840Y-81380981D02*
X131744173Y-81380981D01*
X131744173Y-81904791D02*
X131744173Y-80904791D01*
X131744173Y-80904791D02*
X131267983Y-80904791D01*
X130125125Y-81523838D02*
X129363221Y-81523838D01*
X128125125Y-81904791D02*
X128125125Y-80904791D01*
X128125125Y-80904791D02*
X127553697Y-81904791D01*
X127553697Y-81904791D02*
X127553697Y-80904791D01*
X126934649Y-81904791D02*
X127029887Y-81857172D01*
X127029887Y-81857172D02*
X127077506Y-81809552D01*
X127077506Y-81809552D02*
X127125125Y-81714314D01*
X127125125Y-81714314D02*
X127125125Y-81428600D01*
X127125125Y-81428600D02*
X127077506Y-81333362D01*
X127077506Y-81333362D02*
X127029887Y-81285743D01*
X127029887Y-81285743D02*
X126934649Y-81238124D01*
X126934649Y-81238124D02*
X126791792Y-81238124D01*
X126791792Y-81238124D02*
X126696554Y-81285743D01*
X126696554Y-81285743D02*
X126648935Y-81333362D01*
X126648935Y-81333362D02*
X126601316Y-81428600D01*
X126601316Y-81428600D02*
X126601316Y-81714314D01*
X126601316Y-81714314D02*
X126648935Y-81809552D01*
X126648935Y-81809552D02*
X126696554Y-81857172D01*
X126696554Y-81857172D02*
X126791792Y-81904791D01*
X126791792Y-81904791D02*
X126934649Y-81904791D01*
X125410839Y-81904791D02*
X125410839Y-80904791D01*
X125410839Y-80904791D02*
X125029887Y-80904791D01*
X125029887Y-80904791D02*
X124934649Y-80952410D01*
X124934649Y-80952410D02*
X124887030Y-81000029D01*
X124887030Y-81000029D02*
X124839411Y-81095267D01*
X124839411Y-81095267D02*
X124839411Y-81238124D01*
X124839411Y-81238124D02*
X124887030Y-81333362D01*
X124887030Y-81333362D02*
X124934649Y-81380981D01*
X124934649Y-81380981D02*
X125029887Y-81428600D01*
X125029887Y-81428600D02*
X125410839Y-81428600D01*
X124410839Y-81238124D02*
X124410839Y-81904791D01*
X124410839Y-81333362D02*
X124363220Y-81285743D01*
X124363220Y-81285743D02*
X124267982Y-81238124D01*
X124267982Y-81238124D02*
X124125125Y-81238124D01*
X124125125Y-81238124D02*
X124029887Y-81285743D01*
X124029887Y-81285743D02*
X123982268Y-81380981D01*
X123982268Y-81380981D02*
X123982268Y-81904791D01*
X123506077Y-81904791D02*
X123506077Y-80904791D01*
X123506077Y-80904791D02*
X123125125Y-80904791D01*
X123125125Y-80904791D02*
X123029887Y-80952410D01*
X123029887Y-80952410D02*
X122982268Y-81000029D01*
X122982268Y-81000029D02*
X122934649Y-81095267D01*
X122934649Y-81095267D02*
X122934649Y-81238124D01*
X122934649Y-81238124D02*
X122982268Y-81333362D01*
X122982268Y-81333362D02*
X123029887Y-81380981D01*
X123029887Y-81380981D02*
X123125125Y-81428600D01*
X123125125Y-81428600D02*
X123506077Y-81428600D01*
X122458458Y-81857172D02*
X122458458Y-81904791D01*
X122458458Y-81904791D02*
X122506077Y-82000029D01*
X122506077Y-82000029D02*
X122553696Y-82047648D01*
X122506077Y-81285743D02*
X122458458Y-81333362D01*
X122458458Y-81333362D02*
X122506077Y-81380981D01*
X122506077Y-81380981D02*
X122553696Y-81333362D01*
X122553696Y-81333362D02*
X122506077Y-81285743D01*
X122506077Y-81285743D02*
X122506077Y-81380981D01*
X121077506Y-80904791D02*
X120887030Y-80904791D01*
X120887030Y-80904791D02*
X120791792Y-80952410D01*
X120791792Y-80952410D02*
X120696554Y-81047648D01*
X120696554Y-81047648D02*
X120648935Y-81238124D01*
X120648935Y-81238124D02*
X120648935Y-81571457D01*
X120648935Y-81571457D02*
X120696554Y-81761933D01*
X120696554Y-81761933D02*
X120791792Y-81857172D01*
X120791792Y-81857172D02*
X120887030Y-81904791D01*
X120887030Y-81904791D02*
X121077506Y-81904791D01*
X121077506Y-81904791D02*
X121172744Y-81857172D01*
X121172744Y-81857172D02*
X121267982Y-81761933D01*
X121267982Y-81761933D02*
X121315601Y-81571457D01*
X121315601Y-81571457D02*
X121315601Y-81238124D01*
X121315601Y-81238124D02*
X121267982Y-81047648D01*
X121267982Y-81047648D02*
X121172744Y-80952410D01*
X121172744Y-80952410D02*
X121077506Y-80904791D01*
X120220363Y-81904791D02*
X120220363Y-80904791D01*
X120220363Y-80904791D02*
X119648935Y-81904791D01*
X119648935Y-81904791D02*
X119648935Y-80904791D01*
X118410839Y-81523838D02*
X117648935Y-81523838D01*
X116410839Y-81904791D02*
X116410839Y-80904791D01*
X116410839Y-80904791D02*
X116029887Y-80904791D01*
X116029887Y-80904791D02*
X115934649Y-80952410D01*
X115934649Y-80952410D02*
X115887030Y-81000029D01*
X115887030Y-81000029D02*
X115839411Y-81095267D01*
X115839411Y-81095267D02*
X115839411Y-81238124D01*
X115839411Y-81238124D02*
X115887030Y-81333362D01*
X115887030Y-81333362D02*
X115934649Y-81380981D01*
X115934649Y-81380981D02*
X116029887Y-81428600D01*
X116029887Y-81428600D02*
X116410839Y-81428600D01*
X115410839Y-81238124D02*
X115410839Y-81904791D01*
X115410839Y-81333362D02*
X115363220Y-81285743D01*
X115363220Y-81285743D02*
X115267982Y-81238124D01*
X115267982Y-81238124D02*
X115125125Y-81238124D01*
X115125125Y-81238124D02*
X115029887Y-81285743D01*
X115029887Y-81285743D02*
X114982268Y-81380981D01*
X114982268Y-81380981D02*
X114982268Y-81904791D01*
X114506077Y-81904791D02*
X114506077Y-80904791D01*
X114506077Y-80904791D02*
X114125125Y-80904791D01*
X114125125Y-80904791D02*
X114029887Y-80952410D01*
X114029887Y-80952410D02*
X113982268Y-81000029D01*
X113982268Y-81000029D02*
X113934649Y-81095267D01*
X113934649Y-81095267D02*
X113934649Y-81238124D01*
X113934649Y-81238124D02*
X113982268Y-81333362D01*
X113982268Y-81333362D02*
X114029887Y-81380981D01*
X114029887Y-81380981D02*
X114125125Y-81428600D01*
X114125125Y-81428600D02*
X114506077Y-81428600D01*
X112744172Y-81904791D02*
X112744172Y-80904791D01*
X112744172Y-80904791D02*
X112410839Y-81619076D01*
X112410839Y-81619076D02*
X112077506Y-80904791D01*
X112077506Y-80904791D02*
X112077506Y-81904791D01*
X111458458Y-81904791D02*
X111553696Y-81857172D01*
X111553696Y-81857172D02*
X111601315Y-81809552D01*
X111601315Y-81809552D02*
X111648934Y-81714314D01*
X111648934Y-81714314D02*
X111648934Y-81428600D01*
X111648934Y-81428600D02*
X111601315Y-81333362D01*
X111601315Y-81333362D02*
X111553696Y-81285743D01*
X111553696Y-81285743D02*
X111458458Y-81238124D01*
X111458458Y-81238124D02*
X111315601Y-81238124D01*
X111315601Y-81238124D02*
X111220363Y-81285743D01*
X111220363Y-81285743D02*
X111172744Y-81333362D01*
X111172744Y-81333362D02*
X111125125Y-81428600D01*
X111125125Y-81428600D02*
X111125125Y-81714314D01*
X111125125Y-81714314D02*
X111172744Y-81809552D01*
X111172744Y-81809552D02*
X111220363Y-81857172D01*
X111220363Y-81857172D02*
X111315601Y-81904791D01*
X111315601Y-81904791D02*
X111458458Y-81904791D01*
X110267982Y-81904791D02*
X110267982Y-80904791D01*
X110267982Y-81857172D02*
X110363220Y-81904791D01*
X110363220Y-81904791D02*
X110553696Y-81904791D01*
X110553696Y-81904791D02*
X110648934Y-81857172D01*
X110648934Y-81857172D02*
X110696553Y-81809552D01*
X110696553Y-81809552D02*
X110744172Y-81714314D01*
X110744172Y-81714314D02*
X110744172Y-81428600D01*
X110744172Y-81428600D02*
X110696553Y-81333362D01*
X110696553Y-81333362D02*
X110648934Y-81285743D01*
X110648934Y-81285743D02*
X110553696Y-81238124D01*
X110553696Y-81238124D02*
X110363220Y-81238124D01*
X110363220Y-81238124D02*
X110267982Y-81285743D01*
X109410839Y-81857172D02*
X109506077Y-81904791D01*
X109506077Y-81904791D02*
X109696553Y-81904791D01*
X109696553Y-81904791D02*
X109791791Y-81857172D01*
X109791791Y-81857172D02*
X109839410Y-81761933D01*
X109839410Y-81761933D02*
X109839410Y-81380981D01*
X109839410Y-81380981D02*
X109791791Y-81285743D01*
X109791791Y-81285743D02*
X109696553Y-81238124D01*
X109696553Y-81238124D02*
X109506077Y-81238124D01*
X109506077Y-81238124D02*
X109410839Y-81285743D01*
X109410839Y-81285743D02*
X109363220Y-81380981D01*
X109363220Y-81380981D02*
X109363220Y-81476219D01*
X109363220Y-81476219D02*
X109839410Y-81571457D01*
M02*
